<svg width="16" height="16" viewBox="0 0 16 16" fill="none" xmlns="http://www.w3.org/2000/svg">
<g clip-path="url(#clip0_861_3973)">
<rect width="16" height="16" fill="white" fill-opacity="0.01"/>
<path fill-rule="evenodd" clip-rule="evenodd" d="M8.0022 2.0011C8.13481 2.0011 8.26198 2.05378 8.35575 2.14755C8.44952 2.24131 8.5022 2.36849 8.5022 2.5011V7.5011H13.5022C13.6348 7.5011 13.762 7.55378 13.8558 7.64755C13.9495 7.74131 14.0022 7.86849 14.0022 8.0011C14.0022 8.13371 13.9495 8.26088 13.8558 8.35465C13.762 8.44842 13.6348 8.5011 13.5022 8.5011H8.5022V13.5011C8.5022 13.6337 8.44952 13.7609 8.35575 13.8547C8.26198 13.9484 8.13481 14.0011 8.0022 14.0011C7.86959 14.0011 7.74241 13.9484 7.64864 13.8547C7.55488 13.7609 7.5022 13.6337 7.5022 13.5011V8.5011H2.5022C2.36959 8.5011 2.24241 8.44842 2.14864 8.35465C2.05488 8.26088 2.0022 8.13371 2.0022 8.0011C2.0022 7.86849 2.05488 7.74131 2.14864 7.64755C2.24241 7.55378 2.36959 7.5011 2.5022 7.5011H7.5022V2.5011C7.5022 2.36849 7.55488 2.24131 7.64864 2.14755C7.74241 2.05378 7.86959 2.0011 8.0022 2.0011Z" fill="#525960"/>
</g>
<defs>
<clipPath id="clip0_861_3973">
<rect width="16" height="16" fill="white"/>
</clipPath>
</defs>
</svg>
