<svg width="20" height="21" viewBox="0 0 20 21" fill="none" xmlns="http://www.w3.org/2000/svg">
<g id="wrapper">
<path id="Union" d="M5.00241 6.12598C5.00241 5.96022 5.06826 5.80125 5.18547 5.68403C5.30268 5.56682 5.46165 5.50098 5.62741 5.50098H7.50241C7.66817 5.50098 7.82714 5.56682 7.94435 5.68403C8.06156 5.80125 8.12741 5.96022 8.12741 6.12598C8.12741 6.29174 8.06156 6.45071 7.94435 6.56792C7.82714 6.68513 7.66817 6.75098 7.50241 6.75098V7.37598H12.6774L13.1599 5.92848C13.2013 5.80407 13.2809 5.69585 13.3872 5.61913C13.4935 5.54241 13.6213 5.50108 13.7524 5.50098H15.0024C15.1682 5.50098 15.3271 5.56682 15.4444 5.68403C15.5616 5.80125 15.6274 5.96022 15.6274 6.12598C15.6274 6.29174 15.5616 6.45071 15.4444 6.56792C15.3271 6.68513 15.1682 6.75098 15.0024 6.75098H14.2024L13.8137 7.91973L14.8224 9.53223C15.6917 9.17374 16.6639 9.1549 17.5464 9.47942C18.4289 9.80395 19.1572 10.4482 19.5872 11.2844C20.0171 12.1206 20.1172 13.0879 19.8676 13.9944C19.618 14.9009 19.037 15.6806 18.2396 16.179C17.4423 16.6773 16.4868 16.8579 15.5625 16.685C14.6383 16.5121 13.8127 15.9983 13.2495 15.2455C12.6862 14.4926 12.4263 13.5556 12.5213 12.6201C12.6163 11.6846 13.0593 10.819 13.7624 10.1947L13.1274 9.17973L10.5324 13.3322C10.4762 13.4221 10.3981 13.4962 10.3054 13.5476C10.2127 13.599 10.1084 13.626 10.0024 13.626H7.45116C7.32152 14.3925 6.95688 15.0997 6.40768 15.6499C5.85848 16.2001 5.15187 16.566 4.38561 16.697C3.61934 16.828 2.8313 16.7176 2.13052 16.3812C1.42973 16.0447 0.850836 15.4987 0.473923 14.8188C0.0970109 14.1389 -0.059288 13.3587 0.0266506 12.5861C0.112589 11.8135 0.436517 11.0866 0.953619 10.5062C1.47072 9.92574 2.15544 9.52034 2.91303 9.34607C3.67063 9.17181 4.46366 9.2373 5.18241 9.53348L6.25241 7.82098V6.75098H5.62741C5.46165 6.75098 5.30268 6.68513 5.18547 6.56792C5.06826 6.45071 5.00241 6.29174 5.00241 6.12598ZM6.87741 9.17973L6.24241 10.1972C6.86741 10.7522 7.30491 11.5147 7.45116 12.376H8.87491L6.87741 9.17973ZM10.0024 11.8222L11.9999 8.62598H8.00491L10.0024 11.8222ZM6.17366 12.376C6.06732 11.9647 5.85779 11.5874 5.56491 11.2797L4.87991 12.376H6.17366ZM4.50616 10.616C4.0293 10.4654 3.51823 10.4613 3.03901 10.6041C2.55978 10.747 2.13442 11.0303 1.81789 11.4175C1.50135 11.8046 1.30819 12.2778 1.26338 12.7759C1.21856 13.2739 1.32413 13.774 1.56647 14.2114C1.8088 14.6488 2.17675 15.0036 2.62277 15.2297C3.06878 15.4558 3.57237 15.543 4.06846 15.48C4.56454 15.4169 5.03032 15.2066 5.4056 14.8761C5.78089 14.5456 6.04843 14.1101 6.17366 13.626H3.75241C3.64084 13.626 3.53131 13.5961 3.43518 13.5395C3.33906 13.4829 3.25984 13.4015 3.20575 13.304C3.15167 13.2064 3.12469 13.0961 3.12762 12.9846C3.13055 12.873 3.16328 12.7643 3.22241 12.6697L4.50616 10.616ZM14.4399 11.2785C14.0209 11.7197 13.7773 12.2986 13.7546 12.9067C13.7319 13.5148 13.9317 14.1102 14.3167 14.5815C14.7016 15.0527 15.2452 15.3674 15.8456 15.4665C16.4459 15.5656 17.0618 15.4424 17.5778 15.1199C18.0938 14.7974 18.4745 14.2978 18.6485 13.7147C18.8224 13.1316 18.7778 12.5051 18.5229 11.9526C18.268 11.4001 17.8203 10.9595 17.2638 10.7134C16.7073 10.4674 16.0801 10.4327 15.4999 10.616L16.7824 12.6697C16.8259 12.7393 16.8553 12.8168 16.8688 12.8978C16.8824 12.9787 16.8799 13.0615 16.8614 13.1415C16.8429 13.2215 16.8089 13.297 16.7613 13.3639C16.7136 13.4307 16.6533 13.4875 16.5837 13.531C16.5141 13.5745 16.4366 13.6038 16.3556 13.6174C16.2747 13.631 16.1918 13.6284 16.1119 13.61C16.0319 13.5915 15.9563 13.5575 15.8895 13.5098C15.8227 13.4622 15.7659 13.4018 15.7224 13.3322L14.4399 11.2797V11.2785Z" fill="#212529"/>
</g>
</svg>
