<svg width="20" height="20" viewBox="0 0 20 20" fill="none" xmlns="http://www.w3.org/2000/svg">
<g id="wrapper">
<g id="Union">
<path d="M10.0023 5.94358C9.46947 5.94358 8.94184 6.04853 8.44957 6.25244C7.95729 6.45635 7.50999 6.75522 7.13322 7.132C6.75644 7.50877 6.45757 7.95607 6.25366 8.44835C6.04975 8.94062 5.9448 9.46824 5.9448 10.0011C5.9448 10.5339 6.04975 11.0615 6.25366 11.5538C6.45757 12.0461 6.75644 12.4934 7.13322 12.8702C7.50999 13.2469 7.95729 13.5458 8.44957 13.7497C8.94184 13.9536 9.46947 14.0586 10.0023 14.0586C11.0784 14.0586 12.1105 13.6311 12.8714 12.8702C13.6323 12.1092 14.0598 11.0772 14.0598 10.0011C14.0598 8.92497 13.6323 7.89293 12.8714 7.132C12.1105 6.37107 11.0784 5.94358 10.0023 5.94358ZM7.1948 10.0011C7.1948 9.25649 7.49059 8.54239 8.0171 8.01588C8.54361 7.48937 9.25771 7.19358 10.0023 7.19358C10.7469 7.19358 11.461 7.48937 11.9875 8.01588C12.514 8.54239 12.8098 9.25649 12.8098 10.0011C12.8098 10.7457 12.514 11.4598 11.9875 11.9863C11.461 12.5128 10.7469 12.8086 10.0023 12.8086C9.25771 12.8086 8.54361 12.5128 8.0171 11.9863C7.49059 11.4598 7.1948 10.7457 7.1948 10.0011Z" fill="#212529"/>
<path d="M12.2473 1.67983C11.5886 -0.557666 8.41605 -0.557666 7.7573 1.67983L7.6398 2.07858C7.5938 2.23477 7.51343 2.37869 7.40457 2.49978C7.29572 2.62087 7.16115 2.71607 7.01073 2.7784C6.86031 2.84073 6.69784 2.8686 6.53525 2.85998C6.37265 2.85136 6.21404 2.80647 6.07105 2.72858L5.70605 2.52858C3.65605 1.41358 1.4148 3.65608 2.53105 5.70483L2.7298 6.06983C2.80769 6.21282 2.85258 6.37143 2.8612 6.53403C2.86982 6.69662 2.84195 6.85909 2.77962 7.00951C2.71729 7.15993 2.62209 7.2945 2.501 7.40335C2.37991 7.51221 2.23599 7.59258 2.0798 7.63858L1.68105 7.75608C-0.556445 8.41483 -0.556445 11.5873 1.68105 12.2461L2.0798 12.3636C2.23599 12.4096 2.37991 12.49 2.501 12.5988C2.62209 12.7077 2.71729 12.8422 2.77962 12.9927C2.84195 13.1431 2.86982 13.3055 2.8612 13.4681C2.85258 13.6307 2.80769 13.7893 2.7298 13.9323L2.5298 14.2973C1.4148 16.3473 3.65605 18.5898 5.70605 17.4723L6.07105 17.2736C6.21404 17.1957 6.37265 17.1508 6.53525 17.1422C6.69784 17.1336 6.86031 17.1614 7.01073 17.2238C7.16115 17.2861 7.29572 17.3813 7.40457 17.5024C7.51343 17.6235 7.5938 17.7674 7.6398 17.9236L7.7573 18.3223C8.41605 20.5598 11.5886 20.5598 12.2473 18.3223L12.3648 17.9236C12.4108 17.7674 12.4912 17.6235 12.6 17.5024C12.7089 17.3813 12.8435 17.2861 12.9939 17.2238C13.1443 17.1614 13.3068 17.1336 13.4694 17.1422C13.632 17.1508 13.7906 17.1957 13.9336 17.2736L14.2986 17.4736C16.3486 18.5898 18.5911 16.3461 17.4736 14.2973L17.2748 13.9323C17.1969 13.7893 17.152 13.6307 17.1434 13.4681C17.1348 13.3055 17.1627 13.1431 17.225 12.9927C17.2873 12.8422 17.3825 12.7077 17.5036 12.5988C17.6247 12.49 17.7686 12.4096 17.9248 12.3636L18.3236 12.2461C20.5611 11.5873 20.5611 8.41483 18.3236 7.75608L17.9248 7.63858C17.7686 7.59258 17.6247 7.51221 17.5036 7.40335C17.3825 7.2945 17.2873 7.15993 17.225 7.00951C17.1627 6.85909 17.1348 6.69662 17.1434 6.53403C17.152 6.37143 17.1969 6.21282 17.2748 6.06983L17.4748 5.70483C18.5911 3.65483 16.3473 1.41358 14.2986 2.52983L13.9336 2.72858C13.7906 2.80647 13.632 2.85136 13.4694 2.85998C13.3068 2.8686 13.1443 2.84073 12.9939 2.7784C12.8435 2.71607 12.7089 2.62087 12.6 2.49978C12.4912 2.37869 12.4108 2.23477 12.3648 2.07858L12.2473 1.67983ZM8.95605 2.03358C9.26355 0.989834 10.7411 0.989834 11.0486 2.03358L11.1661 2.43233C11.2648 2.76744 11.4373 3.07619 11.671 3.33596C11.9046 3.59572 12.1934 3.79991 12.5161 3.93356C12.8389 4.0672 13.1875 4.12692 13.5364 4.10832C13.8853 4.08972 14.2256 3.99329 14.5323 3.82608L14.8961 3.62608C15.8511 3.10733 16.8961 4.15108 16.3761 5.10733L16.1773 5.47233C16.0104 5.77912 15.9142 6.11937 15.8958 6.46815C15.8774 6.81694 15.9372 7.16542 16.071 7.48806C16.2047 7.81071 16.409 8.09934 16.6688 8.3328C16.9285 8.56627 17.2373 8.73866 17.5723 8.83733L17.9698 8.95483C19.0136 9.26233 19.0136 10.7398 17.9698 11.0473L17.5711 11.1648C17.2359 11.2636 16.9272 11.4361 16.6674 11.6697C16.4077 11.9034 16.2035 12.1921 16.0698 12.5149C15.9362 12.8377 15.8765 13.1863 15.8951 13.5352C15.9137 13.8841 16.0101 14.2243 16.1773 14.5311L16.3773 14.8948C16.8961 15.8498 15.8523 16.8948 14.8961 16.3748L14.5323 16.1761C14.2255 16.0089 13.8851 15.9125 13.5362 15.894C13.1872 15.8755 12.8386 15.9353 12.5158 16.0691C12.193 16.2028 11.9042 16.4072 11.6707 16.6671C11.4371 16.927 11.2647 17.2359 11.1661 17.5711L11.0486 17.9686C10.7411 19.0123 9.26355 19.0123 8.95605 17.9686L8.83855 17.5698C8.73973 17.2349 8.56724 16.9263 8.33372 16.6667C8.10019 16.407 7.81154 16.2029 7.48892 16.0693C7.16629 15.9357 6.81786 15.8759 6.46914 15.8944C6.12042 15.9129 5.78026 16.0091 5.47355 16.1761L5.10855 16.3761C4.15355 16.8948 3.10855 15.8511 3.62855 14.8948L3.8273 14.5311C3.99474 14.2243 4.09137 13.8839 4.11009 13.5349C4.12881 13.1859 4.06915 12.8371 3.93548 12.5141C3.80182 12.1912 3.59755 11.9023 3.33765 11.6686C3.07776 11.4349 2.76884 11.2623 2.43355 11.1636L2.0348 11.0461C0.991055 10.7386 0.991055 9.26108 2.0348 8.95358L2.43355 8.83608C2.76831 8.73722 3.07673 8.56476 3.33623 8.33132C3.59574 8.09788 3.79976 7.80937 3.93337 7.4869C4.06698 7.16444 4.1268 6.81618 4.10845 6.46761C4.0901 6.11904 3.99404 5.77899 3.8273 5.47233L3.6273 5.10733C3.10855 4.15233 4.1523 3.10733 5.10855 3.62733L5.47355 3.82608C5.78026 3.99305 6.12042 4.0893 6.46914 4.10777C6.81786 4.12625 7.16629 4.06648 7.48892 3.93285C7.81154 3.79923 8.10019 3.59512 8.33372 3.33548C8.56724 3.07585 8.73973 2.76727 8.83855 2.43233L8.95605 2.03358Z" fill="#212529"/>
</g>
</g>
</svg>
