<svg width="14" height="15" viewBox="0 0 14 15" fill="none" xmlns="http://www.w3.org/2000/svg">
<g id="icon-wrapper">
<path id="Union" fill-rule="evenodd" clip-rule="evenodd" d="M12.5599 10.4356C12.5193 10.4763 12.471 10.5087 12.4179 10.5307C12.3647 10.5528 12.3077 10.5641 12.2502 10.5641C12.1926 10.5641 12.1357 10.5528 12.0825 10.5307C12.0294 10.5087 11.9811 10.4763 11.9404 10.4356L7.00019 5.49446L2.05995 10.4356C2.01927 10.4763 1.97098 10.5085 1.91783 10.5305C1.86468 10.5526 1.80772 10.5639 1.75019 10.5639C1.69267 10.5639 1.63571 10.5526 1.58256 10.5305C1.52941 10.5085 1.48112 10.4763 1.44044 10.4356C1.39977 10.3949 1.3675 10.3466 1.34549 10.2935C1.32347 10.2403 1.31214 10.1834 1.31214 10.1258C1.31214 10.0683 1.32347 10.0113 1.34549 9.9582C1.3675 9.90505 1.39977 9.85676 1.44044 9.81609L6.69044 4.56608C6.73108 4.52534 6.77936 4.49302 6.83252 4.47096C6.88567 4.44891 6.94265 4.43755 7.00019 4.43755C7.05774 4.43755 7.11472 4.44891 7.16787 4.47096C7.22103 4.49302 7.2693 4.52534 7.30994 4.56608L12.5599 9.81609C12.6007 9.85673 12.633 9.905 12.6551 9.95816C12.6771 10.0113 12.6885 10.0683 12.6885 10.1258C12.6885 10.1834 12.6771 10.2404 12.6551 10.2935C12.633 10.3467 12.6007 10.3949 12.5599 10.4356Z" fill="#212529"/>
</g>
</svg>
