<svg width="264" height="40" viewBox="0 0 264 40" fill="none" xmlns="http://www.w3.org/2000/svg">
<rect x="0.5" y="0.5" width="263" height="39" rx="11.5" fill="white"/>
<rect x="0.5" y="0.5" width="263" height="39" rx="11.5" stroke="#198754"/>
<g clip-path="url(#clip0_861_3977)">
<rect width="16" height="13" transform="translate(60 12)" fill="white" fill-opacity="0.01"/>
<path d="M68.2371 13.5601C68.1647 13.5216 68.084 13.5014 68.0021 13.5014C67.9201 13.5014 67.8394 13.5216 67.7671 13.5601L60.2671 17.5601C60.1872 17.6027 60.1204 17.6663 60.0739 17.744C60.0273 17.8217 60.0027 17.9105 60.0027 18.0011C60.0027 18.0916 60.0273 18.1805 60.0739 18.2582C60.1204 18.3358 60.1872 18.3994 60.2671 18.4421L63.1901 20.0011L60.2661 21.5601C60.1862 21.6027 60.1194 21.6663 60.0729 21.744C60.0263 21.8217 60.0017 21.9105 60.0017 22.0011C60.0017 22.0916 60.0263 22.1805 60.0729 22.2582C60.1194 22.3358 60.1862 22.3994 60.2661 22.4421L67.7661 26.4421C67.8384 26.4806 67.9191 26.5007 68.0011 26.5007C68.083 26.5007 68.1637 26.4806 68.2361 26.4421L75.7361 22.4421C75.816 22.3994 75.8827 22.3358 75.9293 22.2582C75.9759 22.1805 76.0005 22.0916 76.0005 22.0011C76.0005 21.9105 75.9759 21.8217 75.9293 21.744C75.8827 21.6663 75.816 21.6027 75.7361 21.5601L72.8151 20.0011L75.7371 18.4421C75.817 18.3994 75.8837 18.3358 75.9303 18.2582C75.9769 18.1805 76.0015 18.0916 76.0015 18.0011C76.0015 17.9105 75.9769 17.8217 75.9303 17.744C75.8837 17.6663 75.817 17.6027 75.7371 17.5601L68.2371 13.5601ZM71.7521 20.5681L74.4401 22.0011L68.0021 25.4341L61.5641 22.0011L64.2521 20.5681L67.7671 22.4421C67.8394 22.4806 67.9201 22.5007 68.0021 22.5007C68.084 22.5007 68.1647 22.4806 68.2371 22.4421L71.7521 20.5681ZM68.0021 21.4341L61.5641 18.0011L68.0021 14.5681L74.4401 18.0011L68.0021 21.4341Z" fill="#146C43"/>
</g>
<g clip-path="url(#clip1_861_3977)">
<rect width="16" height="13" transform="translate(84 9.5)" fill="white" fill-opacity="0.01"/>
<path d="M93.5753 18.6293H92.0241C91.9645 18.2978 91.8535 18.0062 91.6911 17.7543C91.5286 17.5024 91.3298 17.2886 91.0945 17.1129C90.8591 16.9373 90.5956 16.8047 90.304 16.7152C90.0156 16.6257 89.709 16.581 89.3842 16.581C88.7976 16.581 88.2723 16.7285 87.8082 17.0234C87.3475 17.3184 86.983 17.7509 86.7145 18.321C86.4493 18.8911 86.3168 19.5871 86.3168 20.4091C86.3168 21.2377 86.4493 21.937 86.7145 22.5071C86.983 23.0772 87.3492 23.508 87.8132 23.7997C88.2772 24.0914 88.7992 24.2372 89.3793 24.2372C89.7008 24.2372 90.0057 24.1941 90.294 24.108C90.5857 24.0185 90.8492 23.8875 91.0845 23.7152C91.3198 23.5429 91.5187 23.3324 91.6811 23.0838C91.8468 22.8319 91.9612 22.5436 92.0241 22.2188L93.5753 22.2237C93.4924 22.7242 93.3317 23.1849 93.093 23.6058C92.8577 24.0234 92.5545 24.3847 92.1832 24.6896C91.8153 24.9912 91.3944 25.2249 90.9205 25.3906C90.4465 25.5563 89.9295 25.6392 89.3693 25.6392C88.4877 25.6392 87.7022 25.4304 87.0128 25.0128C86.3234 24.5919 85.7798 23.9903 85.3821 23.2081C84.9877 22.4259 84.7905 21.4929 84.7905 20.4091C84.7905 19.322 84.9893 18.389 85.3871 17.6101C85.7848 16.8279 86.3284 16.228 87.0178 15.8104C87.7071 15.3894 88.491 15.179 89.3693 15.179C89.9096 15.179 90.4134 15.2569 90.8807 15.4126C91.3513 15.5651 91.7739 15.7905 92.1484 16.0888C92.523 16.3838 92.8329 16.745 93.0781 17.1726C93.3234 17.5968 93.4891 18.0824 93.5753 18.6293ZM98.5108 25.6541C97.7949 25.6541 97.1702 25.4901 96.6365 25.1619C96.1029 24.8338 95.6886 24.3748 95.3936 23.7848C95.0987 23.1948 94.9512 22.5054 94.9512 21.7166C94.9512 20.9245 95.0987 20.2318 95.3936 19.6385C95.6886 19.0452 96.1029 18.5845 96.6365 18.2564C97.1702 17.9283 97.7949 17.7642 98.5108 17.7642C99.2267 17.7642 99.8515 17.9283 100.385 18.2564C100.919 18.5845 101.333 19.0452 101.628 19.6385C101.923 20.2318 102.07 20.9245 102.07 21.7166C102.07 22.5054 101.923 23.1948 101.628 23.7848C101.333 24.3748 100.919 24.8338 100.385 25.1619C99.8515 25.4901 99.2267 25.6541 98.5108 25.6541ZM98.5158 24.4062C98.9798 24.4062 99.3643 24.2836 99.6692 24.0384C99.9741 23.7931 100.2 23.4666 100.345 23.0589C100.494 22.6513 100.569 22.2022 100.569 21.7116C100.569 21.2244 100.494 20.777 100.345 20.3693C100.2 19.9583 99.9741 19.6286 99.6692 19.38C99.3643 19.1314 98.9798 19.0071 98.5158 19.0071C98.0485 19.0071 97.6607 19.1314 97.3525 19.38C97.0475 19.6286 96.8205 19.9583 96.6713 20.3693C96.5255 20.777 96.4526 21.2244 96.4526 21.7116C96.4526 22.2022 96.5255 22.6513 96.6713 23.0589C96.8205 23.4666 97.0475 23.7931 97.3525 24.0384C97.6607 24.2836 98.0485 24.4062 98.5158 24.4062ZM103.73 25.5V17.8636H105.157V19.1065H105.251C105.41 18.6856 105.67 18.3575 106.032 18.1222C106.393 17.8835 106.825 17.7642 107.329 17.7642C107.84 17.7642 108.267 17.8835 108.612 18.1222C108.96 18.3608 109.217 18.6889 109.382 19.1065H109.462C109.644 18.6989 109.934 18.3741 110.332 18.1321C110.73 17.8868 111.204 17.7642 111.754 17.7642C112.447 17.7642 113.012 17.9813 113.449 18.4155C113.89 18.8497 114.11 19.5043 114.11 20.3793V25.5H112.624V20.5185C112.624 20.0014 112.483 19.6269 112.201 19.3949C111.92 19.1629 111.583 19.0469 111.192 19.0469C110.708 19.0469 110.332 19.196 110.064 19.4943C109.795 19.7893 109.661 20.1688 109.661 20.6328V25.5H108.179V20.424C108.179 20.0097 108.05 19.6766 107.792 19.4247C107.533 19.1728 107.197 19.0469 106.782 19.0469C106.501 19.0469 106.24 19.1214 106.002 19.2706C105.766 19.4164 105.576 19.6203 105.43 19.8821C105.288 20.1439 105.216 20.4472 105.216 20.7919V25.5H103.73ZM116.103 28.3636V17.8636H117.555V19.1016H117.679C117.765 18.9425 117.889 18.7585 118.052 18.5497C118.214 18.3409 118.439 18.1586 118.728 18.0028C119.016 17.8438 119.397 17.7642 119.871 17.7642C120.488 17.7642 121.038 17.92 121.522 18.2315C122.006 18.5431 122.385 18.9922 122.66 19.5788C122.939 20.1655 123.078 20.8714 123.078 21.6967C123.078 22.522 122.94 23.2296 122.665 23.8196C122.39 24.4062 122.012 24.8587 121.532 25.1768C121.051 25.4917 120.503 25.6491 119.886 25.6491C119.422 25.6491 119.043 25.5713 118.748 25.4155C118.456 25.2597 118.227 25.0774 118.062 24.8686C117.896 24.6598 117.768 24.4742 117.679 24.3118H117.589V28.3636H116.103ZM117.559 21.6818C117.559 22.2187 117.637 22.6894 117.793 23.0938C117.949 23.4981 118.174 23.8146 118.469 24.0433C118.764 24.2687 119.126 24.3814 119.553 24.3814C119.997 24.3814 120.368 24.2637 120.667 24.0284C120.965 23.7898 121.19 23.4666 121.343 23.0589C121.499 22.6513 121.577 22.1922 121.577 21.6818C121.577 21.178 121.5 20.7256 121.348 20.3246C121.199 19.9235 120.973 19.607 120.672 19.375C120.373 19.143 120.001 19.027 119.553 19.027C119.122 19.027 118.758 19.138 118.459 19.3601C118.164 19.5821 117.941 19.892 117.788 20.2898C117.636 20.6875 117.559 21.1515 117.559 21.6818ZM126.966 25.669C126.482 25.669 126.044 25.5795 125.653 25.4006C125.262 25.2183 124.952 24.9548 124.724 24.6101C124.498 24.2654 124.385 23.8428 124.385 23.3423C124.385 22.9115 124.468 22.5568 124.634 22.2784C124.8 22 125.023 21.7796 125.305 21.6172C125.587 21.4548 125.902 21.3321 126.25 21.2493C126.598 21.1664 126.952 21.1035 127.314 21.0604C127.771 21.0073 128.142 20.9643 128.427 20.9311C128.712 20.8946 128.92 20.8366 129.049 20.7571C129.178 20.6776 129.243 20.5483 129.243 20.3693V20.3345C129.243 19.9003 129.12 19.5639 128.875 19.3253C128.633 19.0866 128.272 18.9673 127.791 18.9673C127.291 18.9673 126.896 19.0784 126.608 19.3004C126.323 19.5192 126.126 19.7628 126.016 20.0312L124.619 19.7131C124.785 19.2491 125.027 18.8745 125.345 18.5895C125.666 18.3011 126.036 18.0923 126.454 17.9631C126.871 17.8305 127.31 17.7642 127.771 17.7642C128.076 17.7642 128.399 17.8007 128.741 17.8736C129.085 17.9432 129.407 18.0724 129.705 18.2614C130.007 18.4503 130.254 18.7204 130.446 19.0717C130.638 19.4197 130.734 19.8722 130.734 20.429V25.5H129.282V24.456H129.223C129.127 24.6482 128.983 24.8371 128.79 25.0227C128.598 25.2083 128.351 25.3625 128.05 25.4851C127.748 25.6077 127.387 25.669 126.966 25.669ZM127.289 24.4759C127.7 24.4759 128.051 24.3946 128.343 24.2322C128.638 24.0698 128.862 23.8577 129.014 23.5959C129.17 23.3307 129.248 23.0473 129.248 22.7457V21.7614C129.195 21.8144 129.092 21.8641 128.939 21.9105C128.79 21.9536 128.62 21.9917 128.427 22.0249C128.235 22.0547 128.048 22.0829 127.866 22.1094C127.683 22.1326 127.531 22.1525 127.408 22.169C127.12 22.2055 126.856 22.2668 126.618 22.353C126.382 22.4392 126.193 22.5634 126.051 22.7259C125.912 22.8849 125.842 23.0971 125.842 23.3622C125.842 23.7301 125.978 24.0085 126.25 24.1974C126.522 24.383 126.868 24.4759 127.289 24.4759ZM132.714 25.5V17.8636H134.151V19.0767H134.23C134.37 18.6657 134.615 18.3426 134.966 18.1072C135.321 17.8686 135.722 17.7493 136.169 17.7493C136.262 17.7493 136.372 17.7526 136.498 17.7592C136.627 17.7659 136.728 17.7741 136.801 17.7841V19.206C136.741 19.1894 136.635 19.1712 136.483 19.1513C136.33 19.1281 136.178 19.1165 136.025 19.1165C135.674 19.1165 135.361 19.1911 135.086 19.3402C134.814 19.486 134.598 19.6899 134.439 19.9517C134.28 20.2102 134.201 20.5052 134.201 20.8366V25.5H132.714ZM140.241 25.669C139.757 25.669 139.32 25.5795 138.929 25.4006C138.538 25.2183 138.228 24.9548 137.999 24.6101C137.774 24.2654 137.661 23.8428 137.661 23.3423C137.661 22.9115 137.744 22.5568 137.909 22.2784C138.075 22 138.299 21.7796 138.581 21.6172C138.862 21.4548 139.177 21.3321 139.525 21.2493C139.873 21.1664 140.228 21.1035 140.589 21.0604C141.047 21.0073 141.418 20.9643 141.703 20.9311C141.988 20.8946 142.195 20.8366 142.324 20.7571C142.453 20.6776 142.518 20.5483 142.518 20.3693V20.3345C142.518 19.9003 142.395 19.5639 142.15 19.3253C141.908 19.0866 141.547 18.9673 141.066 18.9673C140.566 18.9673 140.172 19.0784 139.883 19.3004C139.598 19.5192 139.401 19.7628 139.292 20.0312L137.895 19.7131C138.06 19.2491 138.302 18.8745 138.62 18.5895C138.942 18.3011 139.311 18.0923 139.729 17.9631C140.147 17.8305 140.586 17.7642 141.047 17.7642C141.351 17.7642 141.675 17.8007 142.016 17.8736C142.361 17.9432 142.682 18.0724 142.98 18.2614C143.282 18.4503 143.529 18.7204 143.721 19.0717C143.913 19.4197 144.01 19.8722 144.01 20.429V25.5H142.558V24.456H142.498C142.402 24.6482 142.258 24.8371 142.066 25.0227C141.873 25.2083 141.627 25.3625 141.325 25.4851C141.023 25.6077 140.662 25.669 140.241 25.669ZM140.564 24.4759C140.975 24.4759 141.327 24.3946 141.618 24.2322C141.913 24.0698 142.137 23.8577 142.289 23.5959C142.445 23.3307 142.523 23.0473 142.523 22.7457V21.7614C142.47 21.8144 142.367 21.8641 142.215 21.9105C142.066 21.9536 141.895 21.9917 141.703 22.0249C141.511 22.0547 141.323 22.0829 141.141 22.1094C140.959 22.1326 140.806 22.1525 140.684 22.169C140.395 22.2055 140.132 22.2668 139.893 22.353C139.658 22.4392 139.469 22.5634 139.326 22.7259C139.187 22.8849 139.118 23.0971 139.118 23.3622C139.118 23.7301 139.253 24.0085 139.525 24.1974C139.797 24.383 140.143 24.4759 140.564 24.4759ZM145.99 25.5V17.8636H147.426V19.0767H147.506C147.645 18.6657 147.89 18.3426 148.242 18.1072C148.596 17.8686 148.997 17.7493 149.445 17.7493C149.538 17.7493 149.647 17.7526 149.773 17.7592C149.902 17.7659 150.003 17.7741 150.076 17.7841V19.206C150.017 19.1894 149.91 19.1712 149.758 19.1513C149.606 19.1281 149.453 19.1165 149.301 19.1165C148.949 19.1165 148.636 19.1911 148.361 19.3402C148.089 19.486 147.874 19.6899 147.715 19.9517C147.556 20.2102 147.476 20.5052 147.476 20.8366V25.5H145.99ZM158.284 25.6541C157.545 25.6541 156.909 25.4867 156.375 25.152C155.845 24.8139 155.437 24.3482 155.152 23.755C154.867 23.1617 154.725 22.4822 154.725 21.7166C154.725 20.9411 154.87 20.2566 155.162 19.6634C155.454 19.0668 155.865 18.6011 156.395 18.2663C156.925 17.9316 157.55 17.7642 158.269 17.7642C158.849 17.7642 159.366 17.8719 159.82 18.0874C160.275 18.2995 160.641 18.5978 160.919 18.9822C161.201 19.3667 161.368 19.8158 161.421 20.3295H159.975C159.895 19.9716 159.713 19.6634 159.428 19.4048C159.146 19.1463 158.768 19.017 158.294 19.017C157.88 19.017 157.517 19.1264 157.205 19.3452C156.897 19.5606 156.657 19.8688 156.485 20.2699C156.312 20.6676 156.226 21.1383 156.226 21.6818C156.226 22.2386 156.311 22.7192 156.48 23.1236C156.649 23.5279 156.887 23.8411 157.195 24.0632C157.507 24.2853 157.873 24.3963 158.294 24.3963C158.576 24.3963 158.831 24.3449 159.06 24.2422C159.292 24.1361 159.486 23.9853 159.642 23.7898C159.801 23.5942 159.912 23.3589 159.975 23.0838H161.421C161.368 23.5777 161.208 24.0185 160.939 24.4062C160.671 24.794 160.311 25.099 159.86 25.321C159.413 25.5431 158.887 25.6541 158.284 25.6541ZM165.233 25.669C164.749 25.669 164.312 25.5795 163.921 25.4006C163.53 25.2183 163.22 24.9548 162.991 24.6101C162.766 24.2654 162.653 23.8428 162.653 23.3423C162.653 22.9115 162.736 22.5568 162.902 22.2784C163.067 22 163.291 21.7796 163.573 21.6172C163.855 21.4548 164.169 21.3321 164.517 21.2493C164.865 21.1664 165.22 21.1035 165.581 21.0604C166.039 21.0073 166.41 20.9643 166.695 20.9311C166.98 20.8946 167.187 20.8366 167.316 20.7571C167.446 20.6776 167.51 20.5483 167.51 20.3693V20.3345C167.51 19.9003 167.388 19.5639 167.142 19.3253C166.9 19.0866 166.539 18.9673 166.059 18.9673C165.558 18.9673 165.164 19.0784 164.875 19.3004C164.59 19.5192 164.393 19.7628 164.284 20.0312L162.887 19.7131C163.052 19.2491 163.294 18.8745 163.613 18.5895C163.934 18.3011 164.304 18.0923 164.721 17.9631C165.139 17.8305 165.578 17.7642 166.039 17.7642C166.344 17.7642 166.667 17.8007 167.008 17.8736C167.353 17.9432 167.674 18.0724 167.973 18.2614C168.274 18.4503 168.521 18.7204 168.713 19.0717C168.906 19.4197 169.002 19.8722 169.002 20.429V25.5H167.55V24.456H167.49C167.394 24.6482 167.25 24.8371 167.058 25.0227C166.866 25.2083 166.619 25.3625 166.317 25.4851C166.016 25.6077 165.654 25.669 165.233 25.669ZM165.556 24.4759C165.967 24.4759 166.319 24.3946 166.61 24.2322C166.905 24.0698 167.129 23.8577 167.282 23.5959C167.437 23.3307 167.515 23.0473 167.515 22.7457V21.7614C167.462 21.8144 167.359 21.8641 167.207 21.9105C167.058 21.9536 166.887 21.9917 166.695 22.0249C166.503 22.0547 166.315 22.0829 166.133 22.1094C165.951 22.1326 165.798 22.1525 165.676 22.169C165.387 22.2055 165.124 22.2668 164.885 22.353C164.65 22.4392 164.461 22.5634 164.319 22.7259C164.179 22.8849 164.11 23.0971 164.11 23.3622C164.11 23.7301 164.246 24.0085 164.517 24.1974C164.789 24.383 165.136 24.4759 165.556 24.4759ZM170.982 25.5V17.8636H172.409V19.1065H172.503C172.662 18.6856 172.922 18.3575 173.284 18.1222C173.645 17.8835 174.077 17.7642 174.581 17.7642C175.092 17.7642 175.519 17.8835 175.864 18.1222C176.212 18.3608 176.469 18.6889 176.634 19.1065H176.714C176.896 18.6989 177.186 18.3741 177.584 18.1321C177.982 17.8868 178.456 17.7642 179.006 17.7642C179.699 17.7642 180.264 17.9813 180.701 18.4155C181.142 18.8497 181.362 19.5043 181.362 20.3793V25.5H179.876V20.5185C179.876 20.0014 179.735 19.6269 179.453 19.3949C179.172 19.1629 178.835 19.0469 178.444 19.0469C177.96 19.0469 177.584 19.196 177.316 19.4943C177.047 19.7893 176.913 20.1688 176.913 20.6328V25.5H175.431V20.424C175.431 20.0097 175.302 19.6766 175.044 19.4247C174.785 19.1728 174.449 19.0469 174.034 19.0469C173.753 19.0469 173.492 19.1214 173.254 19.2706C173.018 19.4164 172.828 19.6203 172.682 19.8821C172.539 20.1439 172.468 20.4472 172.468 20.7919V25.5H170.982ZM185.577 25.669C185.093 25.669 184.656 25.5795 184.265 25.4006C183.873 25.2183 183.564 24.9548 183.335 24.6101C183.109 24.2654 182.997 23.8428 182.997 23.3423C182.997 22.9115 183.08 22.5568 183.245 22.2784C183.411 22 183.635 21.7796 183.917 21.6172C184.198 21.4548 184.513 21.3321 184.861 21.2493C185.209 21.1664 185.564 21.1035 185.925 21.0604C186.382 21.0073 186.754 20.9643 187.039 20.9311C187.324 20.8946 187.531 20.8366 187.66 20.7571C187.789 20.6776 187.854 20.5483 187.854 20.3693V20.3345C187.854 19.9003 187.731 19.5639 187.486 19.3253C187.244 19.0866 186.883 18.9673 186.402 18.9673C185.902 18.9673 185.507 19.0784 185.219 19.3004C184.934 19.5192 184.737 19.7628 184.627 20.0312L183.23 19.7131C183.396 19.2491 183.638 18.8745 183.956 18.5895C184.278 18.3011 184.647 18.0923 185.065 17.9631C185.483 17.8305 185.922 17.7642 186.382 17.7642C186.687 17.7642 187.011 17.8007 187.352 17.8736C187.697 17.9432 188.018 18.0724 188.316 18.2614C188.618 18.4503 188.865 18.7204 189.057 19.0717C189.249 19.4197 189.346 19.8722 189.346 20.429V25.5H187.894V24.456H187.834C187.738 24.6482 187.594 24.8371 187.402 25.0227C187.209 25.2083 186.962 25.3625 186.661 25.4851C186.359 25.6077 185.998 25.669 185.577 25.669ZM185.9 24.4759C186.311 24.4759 186.663 24.3946 186.954 24.2322C187.249 24.0698 187.473 23.8577 187.625 23.5959C187.781 23.3307 187.859 23.0473 187.859 22.7457V21.7614C187.806 21.8144 187.703 21.8641 187.551 21.9105C187.402 21.9536 187.231 21.9917 187.039 22.0249C186.846 22.0547 186.659 22.0829 186.477 22.1094C186.295 22.1326 186.142 22.1525 186.02 22.169C185.731 22.2055 185.468 22.2668 185.229 22.353C184.994 22.4392 184.805 22.5634 184.662 22.7259C184.523 22.8849 184.453 23.0971 184.453 23.3622C184.453 23.7301 184.589 24.0085 184.861 24.1974C185.133 24.383 185.479 24.4759 185.9 24.4759ZM194.184 25.6491C193.568 25.6491 193.017 25.4917 192.534 25.1768C192.053 24.8587 191.675 24.4062 191.4 23.8196C191.128 23.2296 190.992 22.522 190.992 21.6967C190.992 20.8714 191.13 20.1655 191.405 19.5788C191.683 18.9922 192.065 18.5431 192.548 18.2315C193.032 17.92 193.581 17.7642 194.194 17.7642C194.668 17.7642 195.049 17.8438 195.338 18.0028C195.629 18.1586 195.855 18.3409 196.014 18.5497C196.176 18.7585 196.302 18.9425 196.392 19.1016H196.481V15.3182H197.968V25.5H196.516V24.3118H196.392C196.302 24.4742 196.173 24.6598 196.004 24.8686C195.838 25.0774 195.609 25.2597 195.318 25.4155C195.026 25.5713 194.648 25.6491 194.184 25.6491ZM194.512 24.3814C194.94 24.3814 195.301 24.2687 195.596 24.0433C195.894 23.8146 196.12 23.4981 196.272 23.0938C196.428 22.6894 196.506 22.2187 196.506 21.6818C196.506 21.1515 196.43 20.6875 196.277 20.2898C196.125 19.892 195.901 19.5821 195.606 19.3601C195.311 19.138 194.946 19.027 194.512 19.027C194.065 19.027 193.692 19.143 193.394 19.375C193.095 19.607 192.87 19.9235 192.718 20.3246C192.568 20.7256 192.494 21.178 192.494 21.6818C192.494 22.1922 192.57 22.6513 192.722 23.0589C192.875 23.4666 193.1 23.7898 193.399 24.0284C193.7 24.2637 194.071 24.3814 194.512 24.3814ZM202.311 25.669C201.828 25.669 201.39 25.5795 200.999 25.4006C200.608 25.2183 200.298 24.9548 200.069 24.6101C199.844 24.2654 199.731 23.8428 199.731 23.3423C199.731 22.9115 199.814 22.5568 199.98 22.2784C200.145 22 200.369 21.7796 200.651 21.6172C200.933 21.4548 201.248 21.3321 201.596 21.2493C201.944 21.1664 202.298 21.1035 202.659 21.0604C203.117 21.0073 203.488 20.9643 203.773 20.9311C204.058 20.8946 204.265 20.8366 204.395 20.7571C204.524 20.6776 204.588 20.5483 204.588 20.3693V20.3345C204.588 19.9003 204.466 19.5639 204.221 19.3253C203.979 19.0866 203.617 18.9673 203.137 18.9673C202.636 18.9673 202.242 19.0784 201.953 19.3004C201.668 19.5192 201.471 19.7628 201.362 20.0312L199.965 19.7131C200.131 19.2491 200.373 18.8745 200.691 18.5895C201.012 18.3011 201.382 18.0923 201.799 17.9631C202.217 17.8305 202.656 17.7642 203.117 17.7642C203.422 17.7642 203.745 17.8007 204.086 17.8736C204.431 17.9432 204.752 18.0724 205.051 18.2614C205.352 18.4503 205.599 18.7204 205.792 19.0717C205.984 19.4197 206.08 19.8722 206.08 20.429V25.5H204.628V24.456H204.569C204.472 24.6482 204.328 24.8371 204.136 25.0227C203.944 25.2083 203.697 25.3625 203.395 25.4851C203.094 25.6077 202.732 25.669 202.311 25.669ZM202.635 24.4759C203.046 24.4759 203.397 24.3946 203.689 24.2322C203.984 24.0698 204.207 23.8577 204.36 23.5959C204.516 23.3307 204.593 23.0473 204.593 22.7457V21.7614C204.54 21.8144 204.438 21.8641 204.285 21.9105C204.136 21.9536 203.965 21.9917 203.773 22.0249C203.581 22.0547 203.394 22.0829 203.211 22.1094C203.029 22.1326 202.877 22.1525 202.754 22.169C202.466 22.2055 202.202 22.2668 201.963 22.353C201.728 22.4392 201.539 22.5634 201.397 22.7259C201.257 22.8849 201.188 23.0971 201.188 23.3622C201.188 23.7301 201.324 24.0085 201.596 24.1974C201.867 24.383 202.214 24.4759 202.635 24.4759Z" fill="#146C43"/>
</g>
<defs>
<clipPath id="clip0_861_3977">
<rect width="16" height="16" fill="white" transform="translate(60 12)"/>
</clipPath>
<clipPath id="clip1_861_3977">
<rect width="16" height="21" fill="white" transform="translate(84 9.5)"/>
</clipPath>
</defs>
</svg>
