<svg width="18" height="18" viewBox="0 0 18 18" fill="none" xmlns="http://www.w3.org/2000/svg">
<g id="wrapper">
<path id="Union" d="M7.87744 2.2511C7.87744 2.54947 7.75891 2.83562 7.54794 3.04659C7.33696 3.25757 7.05081 3.3761 6.75244 3.3761C6.45407 3.3761 6.16792 3.25757 5.95695 3.04659C5.74597 2.83562 5.62744 2.54947 5.62744 2.2511C5.62744 1.95273 5.74597 1.66658 5.95695 1.4556C6.16792 1.24463 6.45407 1.1261 6.75244 1.1261C7.05081 1.1261 7.33696 1.24463 7.54794 1.4556C7.75891 1.66658 7.87744 1.95273 7.87744 2.2511V2.2511ZM11.2524 2.2511C11.2524 2.54947 11.1339 2.83562 10.9229 3.04659C10.712 3.25757 10.4258 3.3761 10.1274 3.3761C9.82907 3.3761 9.54292 3.25757 9.33195 3.04659C9.12097 2.83562 9.00244 2.54947 9.00244 2.2511C9.00244 1.95273 9.12097 1.66658 9.33195 1.4556C9.54292 1.24463 9.82907 1.1261 10.1274 1.1261C10.4258 1.1261 10.712 1.24463 10.9229 1.4556C11.1339 1.66658 11.2524 1.95273 11.2524 2.2511V2.2511ZM7.87744 5.6261C7.87744 5.92447 7.75891 6.21062 7.54794 6.42159C7.33696 6.63257 7.05081 6.7511 6.75244 6.7511C6.45407 6.7511 6.16792 6.63257 5.95695 6.42159C5.74597 6.21062 5.62744 5.92447 5.62744 5.6261C5.62744 5.32773 5.74597 5.04158 5.95695 4.8306C6.16792 4.61963 6.45407 4.5011 6.75244 4.5011C7.05081 4.5011 7.33696 4.61963 7.54794 4.8306C7.75891 5.04158 7.87744 5.32773 7.87744 5.6261V5.6261ZM11.2524 5.6261C11.2524 5.92447 11.1339 6.21062 10.9229 6.42159C10.712 6.63257 10.4258 6.7511 10.1274 6.7511C9.82907 6.7511 9.54292 6.63257 9.33195 6.42159C9.12097 6.21062 9.00244 5.92447 9.00244 5.6261C9.00244 5.32773 9.12097 5.04158 9.33195 4.8306C9.54292 4.61963 9.82907 4.5011 10.1274 4.5011C10.4258 4.5011 10.712 4.61963 10.9229 4.8306C11.1339 5.04158 11.2524 5.32773 11.2524 5.6261ZM7.87744 9.0011C7.87744 9.29947 7.75891 9.58562 7.54794 9.79659C7.33696 10.0076 7.05081 10.1261 6.75244 10.1261C6.45407 10.1261 6.16792 10.0076 5.95695 9.79659C5.74597 9.58562 5.62744 9.29947 5.62744 9.0011C5.62744 8.70273 5.74597 8.41658 5.95695 8.2056C6.16792 7.99463 6.45407 7.8761 6.75244 7.8761C7.05081 7.8761 7.33696 7.99463 7.54794 8.2056C7.75891 8.41658 7.87744 8.70273 7.87744 9.0011V9.0011ZM11.2524 9.0011C11.2524 9.29947 11.1339 9.58562 10.9229 9.79659C10.712 10.0076 10.4258 10.1261 10.1274 10.1261C9.82907 10.1261 9.54292 10.0076 9.33195 9.79659C9.12097 9.58562 9.00244 9.29947 9.00244 9.0011C9.00244 8.70273 9.12097 8.41658 9.33195 8.2056C9.54292 7.99463 9.82907 7.8761 10.1274 7.8761C10.4258 7.8761 10.712 7.99463 10.9229 8.2056C11.1339 8.41658 11.2524 8.70273 11.2524 9.0011ZM7.87744 12.3761C7.87744 12.6745 7.75891 12.9606 7.54794 13.1716C7.33696 13.3826 7.05081 13.5011 6.75244 13.5011C6.45407 13.5011 6.16792 13.3826 5.95695 13.1716C5.74597 12.9606 5.62744 12.6745 5.62744 12.3761C5.62744 12.0777 5.74597 11.7916 5.95695 11.5806C6.16792 11.3696 6.45407 11.2511 6.75244 11.2511C7.05081 11.2511 7.33696 11.3696 7.54794 11.5806C7.75891 11.7916 7.87744 12.0777 7.87744 12.3761V12.3761ZM11.2524 12.3761C11.2524 12.6745 11.1339 12.9606 10.9229 13.1716C10.712 13.3826 10.4258 13.5011 10.1274 13.5011C9.82907 13.5011 9.54292 13.3826 9.33195 13.1716C9.12097 12.9606 9.00244 12.6745 9.00244 12.3761C9.00244 12.0777 9.12097 11.7916 9.33195 11.5806C9.54292 11.3696 9.82907 11.2511 10.1274 11.2511C10.4258 11.2511 10.712 11.3696 10.9229 11.5806C11.1339 11.7916 11.2524 12.0777 11.2524 12.3761V12.3761ZM7.87744 15.7511C7.87744 16.0495 7.75891 16.3356 7.54794 16.5466C7.33696 16.7576 7.05081 16.8761 6.75244 16.8761C6.45407 16.8761 6.16792 16.7576 5.95695 16.5466C5.74597 16.3356 5.62744 16.0495 5.62744 15.7511C5.62744 15.4527 5.74597 15.1666 5.95695 14.9556C6.16792 14.7446 6.45407 14.6261 6.75244 14.6261C7.05081 14.6261 7.33696 14.7446 7.54794 14.9556C7.75891 15.1666 7.87744 15.4527 7.87744 15.7511V15.7511ZM11.2524 15.7511C11.2524 16.0495 11.1339 16.3356 10.9229 16.5466C10.712 16.7576 10.4258 16.8761 10.1274 16.8761C9.82907 16.8761 9.54292 16.7576 9.33195 16.5466C9.12097 16.3356 9.00244 16.0495 9.00244 15.7511C9.00244 15.4527 9.12097 15.1666 9.33195 14.9556C9.54292 14.7446 9.82907 14.6261 10.1274 14.6261C10.4258 14.6261 10.712 14.7446 10.9229 14.9556C11.1339 15.1666 11.2524 15.4527 11.2524 15.7511V15.7511Z" fill="#525960"/>
</g>
</svg>
