<svg width="10" height="11" viewBox="0 0 10 11" fill="none" xmlns="http://www.w3.org/2000/svg">
<g id="wrapper">
<path id="Union" d="M4.53127 7.46262L1.53377 4.03637C1.18002 3.63325 1.46752 3.00012 2.0044 3.00012H7.9994C8.11955 3.00002 8.23719 3.03455 8.33822 3.09959C8.43925 3.16462 8.51939 3.2574 8.56906 3.36681C8.61871 3.47622 8.63579 3.59762 8.61822 3.71648C8.60066 3.83535 8.5492 3.94663 8.47002 4.037L5.47252 7.462C5.41386 7.52913 5.34151 7.58293 5.26034 7.6198C5.17917 7.65666 5.09105 7.67573 5.0019 7.67573C4.91275 7.67573 4.82463 7.65666 4.74346 7.6198C4.66228 7.58293 4.58994 7.52913 4.53127 7.462V7.46262Z" fill="white"/>
</g>
</svg>
