<svg width="14" height="15" viewBox="0 0 14 15" fill="none" xmlns="http://www.w3.org/2000/svg">
<g id="icon-wrapper">
<path id="Union" fill-rule="evenodd" clip-rule="evenodd" d="M1.43981 4.56457C1.48045 4.52382 1.52873 4.4915 1.58188 4.46944C1.63503 4.44739 1.69202 4.43604 1.74956 4.43604C1.80711 4.43604 1.86409 4.44739 1.91724 4.46944C1.97039 4.4915 2.01867 4.52382 2.05931 4.56457L6.99956 9.50569L11.9398 4.56457C11.9805 4.52389 12.0288 4.49162 12.0819 4.46961C12.1351 4.44759 12.192 4.43626 12.2496 4.43626C12.3071 4.43626 12.364 4.44759 12.4172 4.46961C12.4703 4.49162 12.5186 4.52389 12.5593 4.56457C12.6 4.60524 12.6323 4.65353 12.6543 4.70668C12.6763 4.75983 12.6876 4.81679 12.6876 4.87432C12.6876 4.93184 12.6763 4.98881 12.6543 5.04195C12.6323 5.0951 12.6 5.14339 12.5593 5.18407L7.30931 10.4341C7.26867 10.4748 7.22039 10.5071 7.16724 10.5292C7.11409 10.5512 7.05711 10.5626 6.99956 10.5626C6.94201 10.5626 6.88503 10.5512 6.83188 10.5292C6.77873 10.5071 6.73045 10.4748 6.68981 10.4341L1.43981 5.18407C1.39907 5.14343 1.36674 5.09515 1.34469 5.042C1.32263 4.98884 1.31128 4.93186 1.31128 4.87432C1.31128 4.81677 1.32263 4.75979 1.34469 4.70664C1.36674 4.65349 1.39907 4.60521 1.43981 4.56457Z" fill="#212529"/>
</g>
</svg>
