<svg width="16" height="17" viewBox="0 0 16 17" fill="none" xmlns="http://www.w3.org/2000/svg">
<g id="wrapper">
<g id="Union">
<path fill-rule="evenodd" clip-rule="evenodd" d="M3.50195 6.50114C3.36934 6.50114 3.24217 6.55382 3.1484 6.64758C3.05463 6.74135 3.00195 6.86853 3.00195 7.00114V15.0011C3.00195 15.1337 3.05463 15.2609 3.1484 15.3547C3.24217 15.4485 3.36934 15.5011 3.50195 15.5011H12.502C12.6346 15.5011 12.7617 15.4485 12.8555 15.3547C12.9493 15.2609 13.002 15.1337 13.002 15.0011V7.00114C13.002 6.86853 12.9493 6.74135 12.8555 6.64758C12.7617 6.55382 12.6346 6.50114 12.502 6.50114H10.502C10.3693 6.50114 10.2422 6.44846 10.1484 6.35469C10.0546 6.26092 10.002 6.13375 10.002 6.00114C10.002 5.86853 10.0546 5.74135 10.1484 5.64758C10.2422 5.55382 10.3693 5.50114 10.502 5.50114H12.502C12.8998 5.50114 13.2813 5.65917 13.5626 5.94048C13.8439 6.22178 14.002 6.60331 14.002 7.00114V15.0011C14.002 15.399 13.8439 15.7805 13.5626 16.0618C13.2813 16.3431 12.8998 16.5011 12.502 16.5011H3.50195C3.10413 16.5011 2.7226 16.3431 2.44129 16.0618C2.15999 15.7805 2.00195 15.399 2.00195 15.0011V7.00114C2.00195 6.60331 2.15999 6.22178 2.44129 5.94048C2.7226 5.65917 3.10413 5.50114 3.50195 5.50114H5.50195C5.63456 5.50114 5.76174 5.55382 5.85551 5.64758C5.94927 5.74135 6.00195 5.86853 6.00195 6.00114C6.00195 6.13375 5.94927 6.26092 5.85551 6.35469C5.76174 6.44846 5.63456 6.50114 5.50195 6.50114H3.50195Z" fill="#212529"/>
<path fill-rule="evenodd" clip-rule="evenodd" d="M7.64795 0.647138C7.6944 0.600575 7.74957 0.563632 7.81032 0.538425C7.87106 0.513219 7.93619 0.500244 8.00195 0.500244C8.06772 0.500244 8.13284 0.513219 8.19359 0.538425C8.25433 0.563632 8.30951 0.600575 8.35595 0.647138L11.356 3.64714C11.4498 3.74102 11.5026 3.86836 11.5026 4.00114C11.5026 4.13391 11.4498 4.26125 11.356 4.35514C11.2621 4.44902 11.1347 4.50177 11.002 4.50177C10.8692 4.50177 10.7418 4.44902 10.648 4.35514L8.50195 2.20814V11.0011C8.50195 11.1337 8.44928 11.2609 8.35551 11.3547C8.26174 11.4485 8.13456 11.5011 8.00195 11.5011C7.86934 11.5011 7.74217 11.4485 7.6484 11.3547C7.55463 11.2609 7.50195 11.1337 7.50195 11.0011V2.20814L5.35595 4.35514C5.30947 4.40163 5.25428 4.4385 5.19354 4.46366C5.1328 4.48882 5.0677 4.50177 5.00195 4.50177C4.86918 4.50177 4.74184 4.44902 4.64795 4.35514C4.60146 4.30865 4.56459 4.25346 4.53943 4.19272C4.51427 4.13198 4.50132 4.06688 4.50132 4.00114C4.50132 3.86836 4.55407 3.74102 4.64795 3.64714L7.64795 0.647138Z" fill="#212529"/>
</g>
</g>
</svg>
