<svg width="18" height="18" viewBox="0 0 18 18" fill="none" xmlns="http://www.w3.org/2000/svg">
<g id="wrapper">
<g id="Union">
<path d="M18.0024 9.0011C18.0024 9.0011 14.6274 2.8136 9.00244 2.8136C3.37744 2.8136 0.00244141 9.0011 0.00244141 9.0011C0.00244141 9.0011 3.37744 15.1886 9.00244 15.1886C14.6274 15.1886 18.0024 9.0011 18.0024 9.0011ZM1.32207 9.0011C1.86602 8.17436 2.49166 7.40437 3.18957 6.70272C4.63744 5.2526 6.61744 3.9386 9.00244 3.9386C11.3874 3.9386 13.3663 5.2526 14.8164 6.70272C15.5143 7.40437 16.14 8.17436 16.6839 9.0011C16.6187 9.09897 16.5467 9.20697 16.4646 9.3251C16.0877 9.8651 15.5308 10.5851 14.8164 11.2995C13.3663 12.7496 11.3863 14.0636 9.00244 14.0636C6.61744 14.0636 4.63857 12.7496 3.18844 11.2995C2.49054 10.5978 1.86603 9.82783 1.32207 9.0011Z" fill="#525960"/>
<path d="M9.00244 6.1886C8.25652 6.1886 7.54115 6.48491 7.0137 7.01236C6.48626 7.53981 6.18994 8.25518 6.18994 9.0011C6.18994 9.74702 6.48626 10.4624 7.0137 10.9898C7.54115 11.5173 8.25652 11.8136 9.00244 11.8136C9.74836 11.8136 10.4637 11.5173 10.9912 10.9898C11.5186 10.4624 11.8149 9.74702 11.8149 9.0011C11.8149 8.25518 11.5186 7.53981 10.9912 7.01236C10.4637 6.48491 9.74836 6.1886 9.00244 6.1886ZM5.06494 9.0011C5.06494 7.95681 5.47978 6.95529 6.21821 6.21687C6.95663 5.47844 7.95815 5.0636 9.00244 5.0636C10.0467 5.0636 11.0482 5.47844 11.7867 6.21687C12.5251 6.95529 12.9399 7.95681 12.9399 9.0011C12.9399 10.0454 12.5251 11.0469 11.7867 11.7853C11.0482 12.5238 10.0467 12.9386 9.00244 12.9386C7.95815 12.9386 6.95663 12.5238 6.21821 11.7853C5.47978 11.0469 5.06494 10.0454 5.06494 9.0011Z" fill="#525960"/>
</g>
</g>
</svg>
