<svg width="16" height="17" viewBox="0 0 16 17" fill="none" xmlns="http://www.w3.org/2000/svg">
<g id="icon-wrapper" clip-path="url(#clip0_481_2073)">
<g id="Union">
<path d="M8 15.4991C6.14348 15.4991 4.36301 14.7616 3.05025 13.4489C1.7375 12.1361 1 10.3557 1 8.49915C1 6.64263 1.7375 4.86215 3.05025 3.5494C4.36301 2.23664 6.14348 1.49915 8 1.49915C9.85652 1.49915 11.637 2.23664 12.9497 3.5494C14.2625 4.86215 15 6.64263 15 8.49915C15 10.3557 14.2625 12.1361 12.9497 13.4489C11.637 14.7616 9.85652 15.4991 8 15.4991ZM8 16.4991C10.1217 16.4991 12.1566 15.6563 13.6569 14.156C15.1571 12.6557 16 10.6209 16 8.49915C16 6.37741 15.1571 4.34258 13.6569 2.84229C12.1566 1.342 10.1217 0.499146 8 0.499146C5.87827 0.499146 3.84344 1.342 2.34315 2.84229C0.842855 4.34258 0 6.37741 0 8.49915C0 10.6209 0.842855 12.6557 2.34315 14.156C3.84344 15.6563 5.87827 16.4991 8 16.4991Z" fill="#212529"/>
<path d="M5.255 6.28515C5.25363 6.31744 5.25888 6.34967 5.27043 6.37986C5.28198 6.41005 5.29958 6.43756 5.32216 6.46069C5.34473 6.48383 5.3718 6.5021 5.40169 6.51439C5.43159 6.52668 5.46368 6.53272 5.496 6.53215H6.321C6.459 6.53215 6.569 6.41915 6.587 6.28215C6.677 5.62615 7.127 5.14815 7.929 5.14815C8.615 5.14815 9.243 5.49115 9.243 6.31615C9.243 6.95115 8.869 7.24315 8.278 7.68715C7.605 8.17615 7.072 8.74715 7.11 9.67415L7.113 9.89115C7.11405 9.95675 7.14085 10.0193 7.18762 10.0653C7.23439 10.1114 7.29738 10.1372 7.363 10.1371H8.174C8.2403 10.1371 8.30389 10.1108 8.35078 10.0639C8.39766 10.017 8.424 9.95345 8.424 9.88715V9.78215C8.424 9.06415 8.697 8.85515 9.434 8.29615C10.043 7.83315 10.678 7.31915 10.678 6.24015C10.678 4.72915 9.402 3.99915 8.005 3.99915C6.738 3.99915 5.35 4.58915 5.255 6.28515ZM6.812 12.0481C6.812 12.5811 7.237 12.9751 7.822 12.9751C8.431 12.9751 8.85 12.5811 8.85 12.0481C8.85 11.4961 8.43 11.1081 7.821 11.1081C7.237 11.1081 6.812 11.4961 6.812 12.0481Z" fill="#212529"/>
</g>
</g>
<defs>
<clipPath id="clip0_481_2073">
<rect width="16" height="16" fill="white" transform="translate(0 0.5)"/>
</clipPath>
</defs>
</svg>
