<svg width="20" height="20" viewBox="0 0 20 20" fill="none" xmlns="http://www.w3.org/2000/svg">
<g id="wrapper">
<g id="Union">
<path d="M10.0024 4.3761C10.0024 4.21034 9.93659 4.05137 9.81938 3.93416C9.70217 3.81695 9.5432 3.7511 9.37744 3.7511C9.21168 3.7511 9.05271 3.81695 8.9355 3.93416C8.81829 4.05137 8.75244 4.21034 8.75244 4.3761V11.2511C8.75248 11.3613 8.78163 11.4695 8.83695 11.5647C8.89227 11.66 8.97178 11.739 9.06744 11.7936L13.4424 14.2936C13.586 14.3712 13.7542 14.3896 13.9112 14.3448C14.0681 14.2999 14.2013 14.1955 14.2823 14.0538C14.3632 13.9122 14.3856 13.7444 14.3445 13.5865C14.3034 13.4285 14.2022 13.2929 14.0624 13.2086L10.0024 10.8886V4.3761Z" fill="#212529"/>
<path d="M10.0024 20.0011C12.6546 20.0011 15.1981 18.9475 17.0735 17.0722C18.9489 15.1968 20.0024 12.6533 20.0024 10.0011C20.0024 7.34893 18.9489 4.80539 17.0735 2.93003C15.1981 1.05467 12.6546 0.00109863 10.0024 0.00109863C7.35028 0.00109863 4.80674 1.05467 2.93137 2.93003C1.05601 4.80539 0.00244141 7.34893 0.00244141 10.0011C0.00244141 12.6533 1.05601 15.1968 2.93137 17.0722C4.80674 18.9475 7.35028 20.0011 10.0024 20.0011ZM18.7524 10.0011C18.7524 12.3217 17.8306 14.5473 16.1896 16.1883C14.5487 17.8292 12.3231 18.7511 10.0024 18.7511C7.6818 18.7511 5.4562 17.8292 3.81526 16.1883C2.17431 14.5473 1.25244 12.3217 1.25244 10.0011C1.25244 7.68045 2.17431 5.45486 3.81526 3.81391C5.4562 2.17297 7.6818 1.2511 10.0024 1.2511C12.3231 1.2511 14.5487 2.17297 16.1896 3.81391C17.8306 5.45486 18.7524 7.68045 18.7524 10.0011Z" fill="#212529"/>
</g>
</g>
</svg>
