<svg width="18" height="18" viewBox="0 0 18 18" fill="none" xmlns="http://www.w3.org/2000/svg">
<g clip-path="url(#clip0_1053_3859)">
<path d="M9 16.875C6.91142 16.875 4.90838 16.0453 3.43153 14.5685C1.95468 13.0916 1.125 11.0886 1.125 9C1.125 6.91142 1.95468 4.90838 3.43153 3.43153C4.90838 1.95468 6.91142 1.125 9 1.125C11.0886 1.125 13.0916 1.95468 14.5685 3.43153C16.0453 4.90838 16.875 6.91142 16.875 9C16.875 11.0886 16.0453 13.0916 14.5685 14.5685C13.0916 16.0453 11.0886 16.875 9 16.875ZM9 18C11.3869 18 13.6761 17.0518 15.364 15.364C17.0518 13.6761 18 11.3869 18 9C18 6.61305 17.0518 4.32387 15.364 2.63604C13.6761 0.948212 11.3869 0 9 0C6.61305 0 4.32387 0.948212 2.63604 2.63604C0.948212 4.32387 0 6.61305 0 9C0 11.3869 0.948212 13.6761 2.63604 15.364C4.32387 17.0518 6.61305 18 9 18Z" fill="#212529"/>
<path d="M10.0463 7.4115L7.47 7.73438L7.37775 8.16187L7.884 8.25525C8.21475 8.334 8.28 8.45325 8.208 8.78288L7.37775 12.6844C7.1595 13.6935 7.49588 14.1683 8.28675 14.1683C8.89988 14.1683 9.612 13.8848 9.93488 13.4955L10.0339 13.0275C9.80887 13.2255 9.48037 13.3043 9.26213 13.3043C8.95275 13.3043 8.84025 13.0871 8.92013 12.7046L10.0463 7.4115ZM10.125 5.0625C10.125 5.36087 10.0065 5.64702 9.7955 5.858C9.58452 6.06897 9.29837 6.1875 9 6.1875C8.70163 6.1875 8.41548 6.06897 8.2045 5.858C7.99353 5.64702 7.875 5.36087 7.875 5.0625C7.875 4.76413 7.99353 4.47798 8.2045 4.267C8.41548 4.05603 8.70163 3.9375 9 3.9375C9.29837 3.9375 9.58452 4.05603 9.7955 4.267C10.0065 4.47798 10.125 4.76413 10.125 5.0625Z" fill="#212529"/>
</g>
<defs>
<clipPath id="clip0_1053_3859">
<rect width="18" height="18" fill="white"/>
</clipPath>
</defs>
</svg>
