<svg width="20" height="20" viewBox="0 0 20 20" fill="none" xmlns="http://www.w3.org/2000/svg">
<g id="wrapper">
<g id="Union">
<path d="M15.2099 11.1761C14.5549 12.5036 13.6674 13.8261 12.7599 15.0136C11.8991 16.1331 10.9786 17.2055 10.0024 18.2261C9.02629 17.2055 8.1058 16.1331 7.24494 15.0136C6.33744 13.8261 5.44994 12.5036 4.79494 11.1761C4.13244 9.83485 3.75244 8.5786 3.75244 7.5011C3.75244 5.8435 4.41092 4.25378 5.58302 3.08168C6.75513 1.90958 8.34484 1.2511 10.0024 1.2511C11.66 1.2511 13.2498 1.90958 14.4219 3.08168C15.594 4.25378 16.2524 5.8435 16.2524 7.5011C16.2524 8.5786 15.8712 9.83485 15.2099 11.1761ZM10.0024 20.0011C10.0024 20.0011 17.5024 12.8936 17.5024 7.5011C17.5024 5.51197 16.7123 3.60432 15.3057 2.1978C13.8992 0.791275 11.9916 0.00109863 10.0024 0.00109863C8.01332 0.00109863 6.10566 0.791275 4.69914 2.1978C3.29262 3.60432 2.50244 5.51197 2.50244 7.5011C2.50244 12.8936 10.0024 20.0011 10.0024 20.0011Z" fill="#212529"/>
<path d="M10.0024 10.0011C9.3394 10.0011 8.70352 9.73771 8.23467 9.26887C7.76583 8.80002 7.50244 8.16414 7.50244 7.5011C7.50244 6.83806 7.76583 6.20217 8.23467 5.73333C8.70352 5.26449 9.3394 5.0011 10.0024 5.0011C10.6655 5.0011 11.3014 5.26449 11.7702 5.73333C12.239 6.20217 12.5024 6.83806 12.5024 7.5011C12.5024 8.16414 12.239 8.80002 11.7702 9.26887C11.3014 9.73771 10.6655 10.0011 10.0024 10.0011ZM10.0024 11.2511C10.997 11.2511 11.9508 10.856 12.6541 10.1528C13.3574 9.44949 13.7524 8.49566 13.7524 7.5011C13.7524 6.50654 13.3574 5.55271 12.6541 4.84945C11.9508 4.14619 10.997 3.7511 10.0024 3.7511C9.00788 3.7511 8.05405 4.14619 7.35079 4.84945C6.64753 5.55271 6.25244 6.50654 6.25244 7.5011C6.25244 8.49566 6.64753 9.44949 7.35079 10.1528C8.05405 10.856 9.00788 11.2511 10.0024 11.2511Z" fill="#212529"/>
</g>
</g>
</svg>
