<svg width="20" height="20" viewBox="0 0 20 20" fill="none" xmlns="http://www.w3.org/2000/svg">
<g id="wrapper">
<path id="Union" fill-rule="evenodd" clip-rule="evenodd" d="M5.80516 17.9414C5.74696 17.8833 5.70078 17.8144 5.66927 17.7384C5.63776 17.6625 5.62155 17.5811 5.62155 17.4989C5.62155 17.4167 5.63776 17.3353 5.66927 17.2593C5.70078 17.1834 5.74696 17.1144 5.80516 17.0564L12.8639 9.99888L5.80516 2.94138C5.68781 2.82402 5.62187 2.66485 5.62187 2.49888C5.62187 2.33291 5.68781 2.17374 5.80516 2.05638C5.92252 1.93902 6.08169 1.87309 6.24766 1.87309C6.41363 1.87309 6.5728 1.93902 6.69016 2.05638L14.1902 9.55638C14.2484 9.61444 14.2945 9.68341 14.3261 9.75934C14.3576 9.83527 14.3738 9.91667 14.3738 9.99888C14.3738 10.0811 14.3576 10.1625 14.3261 10.2384C14.2945 10.3144 14.2484 10.3833 14.1902 10.4414L6.69016 17.9414C6.63211 17.9996 6.56314 18.0458 6.4872 18.0773C6.41127 18.1088 6.32987 18.125 6.24766 18.125C6.16545 18.125 6.08405 18.1088 6.00812 18.0773C5.93219 18.0458 5.86322 17.9996 5.80516 17.9414Z" fill="#025949"/>
</g>
</svg>
