<svg width="20" height="20" viewBox="0 0 20 20" fill="none" xmlns="http://www.w3.org/2000/svg">
<g id="wrapper">
<path id="Union" d="M11.8774 16.2511C11.8774 16.7484 11.6799 17.2253 11.3283 17.5769C10.9766 17.9286 10.4997 18.1261 10.0024 18.1261C9.50516 18.1261 9.02825 17.9286 8.67662 17.5769C8.32499 17.2253 8.12744 16.7484 8.12744 16.2511C8.12744 15.7538 8.32499 15.2769 8.67662 14.9253C9.02825 14.5736 9.50516 14.3761 10.0024 14.3761C10.4997 14.3761 10.9766 14.5736 11.3283 14.9253C11.6799 15.2769 11.8774 15.7538 11.8774 16.2511ZM11.8774 10.0011C11.8774 10.4984 11.6799 10.9753 11.3283 11.3269C10.9766 11.6786 10.4997 11.8761 10.0024 11.8761C9.50516 11.8761 9.02825 11.6786 8.67662 11.3269C8.32499 10.9753 8.12744 10.4984 8.12744 10.0011C8.12744 9.50382 8.32499 9.0269 8.67662 8.67527C9.02825 8.32364 9.50516 8.1261 10.0024 8.1261C10.4997 8.1261 10.9766 8.32364 11.3283 8.67527C11.6799 9.0269 11.8774 9.50382 11.8774 10.0011ZM11.8774 3.7511C11.8774 4.24838 11.6799 4.72529 11.3283 5.07692C10.9766 5.42855 10.4997 5.6261 10.0024 5.6261C9.50516 5.6261 9.02825 5.42855 8.67662 5.07692C8.32499 4.72529 8.12744 4.24838 8.12744 3.7511C8.12744 3.25382 8.32499 2.7769 8.67662 2.42527C9.02825 2.07364 9.50516 1.8761 10.0024 1.8761C10.4997 1.8761 10.9766 2.07364 11.3283 2.42527C11.6799 2.7769 11.8774 3.25382 11.8774 3.7511Z" fill="#525960"/>
</g>
</svg>
