<svg width="20" height="20" viewBox="0 0 20 20" fill="none" xmlns="http://www.w3.org/2000/svg">
<g id="wrapper">
<path id="Union" fill-rule="evenodd" clip-rule="evenodd" d="M14.1948 2.05862C14.253 2.11667 14.2992 2.18564 14.3307 2.26158C14.3622 2.33751 14.3785 2.41891 14.3785 2.50112C14.3785 2.58333 14.3622 2.66473 14.3307 2.74066C14.2992 2.81659 14.253 2.88556 14.1948 2.94362L7.13609 10.0011L14.1948 17.0586C14.3122 17.176 14.3781 17.3351 14.3781 17.5011C14.3781 17.6671 14.3122 17.8263 14.1948 17.9436C14.0775 18.061 13.9183 18.1269 13.7523 18.1269C13.5864 18.1269 13.4272 18.061 13.3098 17.9436L5.80984 10.4436C5.75163 10.3856 5.70545 10.3166 5.67395 10.2407C5.64244 10.1647 5.62622 10.0833 5.62622 10.0011C5.62622 9.91891 5.64244 9.83751 5.67395 9.76158C5.70545 9.68564 5.75163 9.61667 5.80984 9.55862L13.3098 2.05862C13.3679 2.00041 13.4369 1.95423 13.5128 1.92273C13.5887 1.89122 13.6701 1.875 13.7523 1.875C13.8345 1.875 13.9159 1.89122 13.9919 1.92273C14.0678 1.95423 14.1368 2.00041 14.1948 2.05862Z" fill="#025949"/>
</g>
</svg>
