<svg width="20" height="21" viewBox="0 0 20 21" fill="none" xmlns="http://www.w3.org/2000/svg">
<g id="wrapper">
<path id="Union" d="M10.5224 0.77973C10.4653 0.694132 10.388 0.623947 10.2973 0.575405C10.2066 0.526863 10.1053 0.501465 10.0024 0.501465C9.89954 0.501465 9.79825 0.526863 9.70753 0.575405C9.61682 0.623947 9.5395 0.694132 9.48242 0.77973L5.73242 6.40473C5.66979 6.49885 5.63386 6.60819 5.62846 6.72112C5.62305 6.83404 5.64838 6.94631 5.70174 7.04598C5.75511 7.14565 5.8345 7.22898 5.93147 7.28709C6.02845 7.3452 6.13937 7.37592 6.25242 7.37598H6.37492L3.84742 11.4197C3.78829 11.5143 3.75556 11.623 3.75263 11.7346C3.74971 11.8461 3.77668 11.9564 3.83077 12.054C3.88485 12.1515 3.96407 12.2329 4.0602 12.2895C4.15632 12.3461 4.26585 12.376 4.37742 12.376H4.61617L2.56867 16.471C2.52092 16.5663 2.49834 16.6722 2.50305 16.7787C2.50777 16.8851 2.53964 16.9886 2.59563 17.0793C2.65163 17.17 2.72988 17.2449 2.82296 17.2968C2.91603 17.3487 3.02084 17.376 3.12742 17.376H8.75242V20.501H11.2524V17.376H16.8774C16.984 17.376 17.0888 17.3487 17.1819 17.2968C17.275 17.2449 17.3532 17.17 17.4092 17.0793C17.4652 16.9886 17.4971 16.8851 17.5018 16.7787C17.5065 16.6722 17.4839 16.5663 17.4362 16.471L15.3899 12.376H15.6287C15.7402 12.376 15.8498 12.3461 15.9459 12.2895C16.042 12.2329 16.1212 12.1515 16.1753 12.054C16.2294 11.9564 16.2564 11.8461 16.2535 11.7346C16.2505 11.623 16.2178 11.5143 16.1587 11.4197L13.6299 7.37598H13.7524C13.8655 7.37592 13.9764 7.3452 14.0734 7.28709C14.1703 7.22898 14.2497 7.14565 14.3031 7.04598C14.3565 6.94631 14.3818 6.83404 14.3764 6.72112C14.371 6.60819 14.3351 6.49885 14.2724 6.40473L10.5224 0.77973ZM8.04867 6.44848C7.99468 6.35087 7.91556 6.26949 7.8195 6.21278C7.72345 6.15607 7.61397 6.1261 7.50242 6.12598H7.41992L10.0024 2.25223L12.5849 6.12598H12.5024C12.3909 6.12598 12.2813 6.15584 12.1852 6.21247C12.0891 6.26909 12.0099 6.35042 11.9558 6.448C11.9017 6.54558 11.8747 6.65586 11.8776 6.76739C11.8806 6.87891 11.9133 6.98762 11.9724 7.08223L14.4999 11.126H14.3774C14.2708 11.126 14.166 11.1532 14.073 11.2052C13.9799 11.2571 13.9016 11.332 13.8456 11.4226C13.7896 11.5133 13.7578 11.6168 13.7531 11.7233C13.7483 11.8298 13.7709 11.9357 13.8187 12.031L15.8649 16.126H4.13867L6.18617 12.031C6.23392 11.9357 6.25651 11.8298 6.25179 11.7233C6.24707 11.6168 6.2152 11.5133 6.15921 11.4226C6.10321 11.332 6.02496 11.2571 5.93189 11.2052C5.83881 11.1532 5.734 11.126 5.62742 11.126H5.50492L8.03242 7.08223C8.0914 6.98764 8.124 6.879 8.12686 6.76757C8.12972 6.65614 8.10272 6.54597 8.04867 6.44848Z" fill="#212529"/>
</g>
</svg>
