<svg width="16" height="16" viewBox="0 0 16 16" fill="none" xmlns="http://www.w3.org/2000/svg">
<path d="M11.7444 10.3451C12.7127 9.02376 13.1463 7.38557 12.9587 5.75823C12.771 4.13089 11.9758 2.63442 10.7321 1.56821C9.48848 0.501998 7.88811 -0.0553194 6.2512 0.00775377C4.61429 0.0708269 3.06155 0.749639 1.90363 1.90838C0.745714 3.06713 0.0680132 4.62035 0.00611138 6.25731C-0.0557904 7.89427 0.502672 9.49424 1.56977 10.7371C2.63687 11.98 4.13391 12.7741 5.76138 12.9607C7.38886 13.1472 9.02674 12.7123 10.3474 11.7431H10.3464C10.3764 11.7831 10.4084 11.8211 10.4444 11.8581L14.2944 15.7081C14.4819 15.8957 14.7362 16.0012 15.0015 16.0013C15.2668 16.0014 15.5212 15.8961 15.7089 15.7086C15.8965 15.5211 16.002 15.2667 16.0021 15.0014C16.0022 14.7362 15.8969 14.4817 15.7094 14.2941L11.8594 10.4441C11.8236 10.4079 11.7852 10.3745 11.7444 10.3441V10.3451ZM12.0024 6.50108C12.0024 7.22335 11.8601 7.93855 11.5837 8.60584C11.3073 9.27313 10.9022 9.87944 10.3914 10.3902C9.88073 10.9009 9.27441 11.306 8.60712 11.5824C7.93983 11.8588 7.22463 12.0011 6.50236 12.0011C5.78009 12.0011 5.06489 11.8588 4.3976 11.5824C3.73031 11.306 3.124 10.9009 2.61328 10.3902C2.10255 9.87944 1.69743 9.27313 1.42103 8.60584C1.14462 7.93855 1.00236 7.22335 1.00236 6.50108C1.00236 5.04239 1.58183 3.64344 2.61328 2.61199C3.64473 1.58054 5.04367 1.00108 6.50236 1.00108C7.96105 1.00108 9.36 1.58054 10.3914 2.61199C11.4229 3.64344 12.0024 5.04239 12.0024 6.50108Z" fill="#525960"/>
</svg>
