<svg width="42" height="42" viewBox="0 0 42 42" fill="none" xmlns="http://www.w3.org/2000/svg">
<rect x="0.5" y="0.5" width="41" height="41" rx="6.5" fill="white"/>
<rect x="0.5" y="0.5" width="41" height="41" rx="6.5" stroke="#E9ECEF"/>
<g clip-path="url(#clip0_894_10568)">
<rect width="18" height="18" transform="translate(12 12)" fill="white" fill-opacity="0.01"/>
<g clip-path="url(#clip1_894_10568)">
<path d="M27.1876 13.125C26.74 13.125 26.3108 13.3028 25.9943 13.6193C25.6778 13.9358 25.5001 14.365 25.5001 14.8125C25.5001 15.2601 25.6778 15.6893 25.9943 16.0058C26.3108 16.3223 26.74 16.5 27.1876 16.5C27.6351 16.5 28.0643 16.3223 28.3808 16.0058C28.6973 15.6893 28.8751 15.2601 28.8751 14.8125C28.8751 14.365 28.6973 13.9358 28.3808 13.6193C28.0643 13.3028 27.6351 13.125 27.1876 13.125ZM24.3751 14.8125C24.375 14.1527 24.6069 13.5137 25.0303 13.0076C25.4537 12.5015 26.0416 12.1603 26.6912 12.0438C27.3407 11.9274 28.0105 12.043 28.5834 12.3705C29.1563 12.698 29.5958 13.2165 29.825 13.8353C30.0542 14.4541 30.0585 15.1338 29.8372 15.7555C29.6158 16.3772 29.183 16.9012 28.6143 17.236C28.0456 17.5707 27.3773 17.6948 26.7264 17.5866C26.0754 17.4784 25.4832 17.1448 25.0534 16.644L17.4957 20.154C17.6694 20.7047 17.6694 21.2954 17.4957 21.846L25.0534 25.356C25.5078 24.8277 26.1421 24.4868 26.8334 24.3994C27.5247 24.312 28.2239 24.4844 28.7954 24.8832C29.3669 25.2819 29.77 25.8787 29.9266 26.5577C30.0832 27.2367 29.9821 27.9497 29.643 28.5584C29.3038 29.1672 28.7508 29.6284 28.091 29.8526C27.4312 30.0769 26.7117 30.0482 26.0719 29.7721C25.432 29.4961 24.9175 28.9923 24.6279 28.3585C24.3383 27.7247 24.2943 27.0059 24.5044 26.3415L16.9467 22.8315C16.5725 23.2676 16.0738 23.5785 15.5177 23.7226C14.9615 23.8667 14.3746 23.8371 13.8358 23.6376C13.297 23.4381 12.8322 23.0784 12.5039 22.6069C12.1757 22.1353 11.9998 21.5746 11.9998 21C11.9998 20.4255 12.1757 19.8648 12.5039 19.3932C12.8322 18.9217 13.297 18.562 13.8358 18.3625C14.3746 18.163 14.9615 18.1333 15.5177 18.2774C16.0738 18.4215 16.5725 18.7325 16.9467 19.1685L24.5044 15.6585C24.4184 15.3848 24.3748 15.0995 24.3751 14.8125ZM14.8126 19.3125C14.365 19.3125 13.9358 19.4903 13.6193 19.8068C13.3028 20.1233 13.1251 20.5525 13.1251 21C13.1251 21.4476 13.3028 21.8768 13.6193 22.1933C13.9358 22.5098 14.365 22.6875 14.8126 22.6875C15.2601 22.6875 15.6893 22.5098 16.0058 22.1933C16.3223 21.8768 16.5001 21.4476 16.5001 21C16.5001 20.5525 16.3223 20.1233 16.0058 19.8068C15.6893 19.4903 15.2601 19.3125 14.8126 19.3125ZM27.1876 25.5C26.74 25.5 26.3108 25.6778 25.9943 25.9943C25.6778 26.3108 25.5001 26.74 25.5001 27.1875C25.5001 27.6351 25.6778 28.0643 25.9943 28.3808C26.3108 28.6973 26.74 28.875 27.1876 28.875C27.6351 28.875 28.0643 28.6973 28.3808 28.3808C28.6973 28.0643 28.8751 27.6351 28.8751 27.1875C28.8751 26.74 28.6973 26.3108 28.3808 25.9943C28.0643 25.6778 27.6351 25.5 27.1876 25.5Z" fill="#212529"/>
</g>
</g>
<defs>
<clipPath id="clip0_894_10568">
<rect width="18" height="18" fill="white" transform="translate(12 12)"/>
</clipPath>
<clipPath id="clip1_894_10568">
<rect width="18" height="18" fill="white" transform="translate(12 12)"/>
</clipPath>
</defs>
</svg>
