<svg width="20" height="21" viewBox="0 0 20 21" fill="none" xmlns="http://www.w3.org/2000/svg">
<g id="wrapper">
<g id="Union">
<path d="M8.75235 10.501C9.33271 10.5009 9.90729 10.6163 10.4426 10.8405C10.978 11.0646 11.4633 11.393 11.8705 11.8066C12.2777 12.2202 12.5985 12.7106 12.8143 13.2494C13.03 13.7881 13.1365 14.3644 13.1273 14.9447C13.1259 15.0408 13.1466 15.1359 13.1879 15.2227C13.2291 15.3095 13.2898 15.3856 13.3653 15.4451C13.4408 15.5046 13.5289 15.5459 13.6229 15.5657C13.7169 15.5856 13.8143 15.5836 13.9073 15.5597C14.1845 15.4887 14.4742 15.482 14.7544 15.54C15.0346 15.5979 15.2978 15.7192 15.524 15.8944C15.7502 16.0696 15.9334 16.2941 16.0596 16.5509C16.1859 16.8077 16.2518 17.0899 16.2523 17.376C16.2523 17.8733 16.0548 18.3502 15.7032 18.7018C15.3515 19.0534 14.8746 19.251 14.3773 19.251H3.75235C3.41997 19.2491 3.09131 19.181 2.78559 19.0506C2.47986 18.9201 2.20321 18.7301 1.97181 18.4915C1.74042 18.2529 1.55892 17.9705 1.43794 17.661C1.31697 17.3514 1.25894 17.0208 1.26725 16.6885C1.27556 16.3562 1.35004 16.029 1.48635 15.7258C1.62265 15.4227 1.81803 15.1497 2.06107 14.923C2.3041 14.6963 2.58991 14.5203 2.90178 14.4053C3.21364 14.2904 3.5453 14.2387 3.87735 14.2535C4.02137 14.2609 4.16353 14.2183 4.27972 14.1328C4.39591 14.0474 4.47898 13.9244 4.51485 13.7847C4.7573 12.8451 5.3051 12.0127 6.07213 11.4183C6.83917 10.8239 7.78196 10.5012 8.75235 10.501ZM14.3436 14.251C14.203 12.9837 13.6359 11.8017 12.7354 10.8989C11.8349 9.99616 10.6544 9.42612 9.38746 9.28228C8.12049 9.13844 6.84224 9.42933 5.76229 10.1073C4.68233 10.7852 3.86475 11.8099 3.4436 13.0135C2.47852 13.0925 1.58141 13.5417 0.940051 14.2671C0.298692 14.9926 -0.0371956 15.938 0.00269882 16.9055C0.0425932 17.873 0.455177 18.7875 1.15409 19.4577C1.85299 20.1279 2.78404 20.5017 3.75235 20.501H14.3773C15.2061 20.501 16.001 20.1717 16.5871 19.5857C17.1731 18.9996 17.5023 18.2048 17.5023 17.376C17.5023 16.5472 17.1731 15.7523 16.5871 15.1663C16.001 14.5802 15.2061 14.251 14.3773 14.251H14.3436Z" fill="#212529"/>
<path d="M13.1273 2.37598C13.1273 2.21022 13.0615 2.05125 12.9443 1.93403C12.8271 1.81682 12.6681 1.75098 12.5023 1.75098C12.3366 1.75098 12.1776 1.81682 12.0604 1.93403C11.9432 2.05125 11.8773 2.21022 11.8773 2.37598V3.62598C11.8773 3.79174 11.9432 3.95071 12.0604 4.06792C12.1776 4.18513 12.3366 4.25098 12.5023 4.25098C12.6681 4.25098 12.8271 4.18513 12.9443 4.06792C13.0615 3.95071 13.1273 3.79174 13.1273 3.62598V2.37598ZM17.8061 4.83098C17.8658 4.77332 17.9134 4.70436 17.9462 4.6281C17.9789 4.55185 17.9962 4.46984 17.9969 4.38685C17.9976 4.30387 17.9818 4.22157 17.9504 4.14476C17.9189 4.06795 17.8725 3.99816 17.8138 3.93948C17.7552 3.8808 17.6854 3.83439 17.6086 3.80296C17.5318 3.77154 17.4495 3.75572 17.3665 3.75645C17.2835 3.75717 17.2015 3.77441 17.1252 3.80716C17.049 3.83992 16.98 3.88753 16.9223 3.94723L16.0373 4.83098C15.92 4.94833 15.8541 5.10751 15.8541 5.27348C15.8541 5.43945 15.92 5.59862 16.0373 5.71598C16.1547 5.83333 16.3139 5.89927 16.4798 5.89927C16.6458 5.89927 16.805 5.83333 16.9223 5.71598L17.8061 4.83098ZM8.08235 3.94723C7.96447 3.83338 7.80659 3.77038 7.64272 3.77181C7.47885 3.77323 7.32209 3.83896 7.20621 3.95484C7.09033 4.07072 7.0246 4.22748 7.02318 4.39135C7.02175 4.55522 7.08475 4.7131 7.1986 4.83098L8.08235 5.71598C8.14046 5.77409 8.20944 5.82018 8.28537 5.85163C8.36129 5.88308 8.44267 5.89927 8.52485 5.89927C8.60703 5.89927 8.6884 5.88308 8.76433 5.85163C8.84025 5.82018 8.90924 5.77409 8.96735 5.71598C9.02546 5.65787 9.07155 5.58888 9.103 5.51296C9.13445 5.43703 9.15064 5.35566 9.15064 5.27348C9.15064 5.1913 9.13445 5.10992 9.103 5.034C9.07155 4.95807 9.02546 4.88909 8.96735 4.83098L8.08235 3.94723ZM10.2498 8.16473C10.4052 7.84278 10.6278 7.55789 10.9026 7.32928C11.1774 7.10067 11.4981 6.93365 11.8429 6.8395C12.1878 6.74534 12.5488 6.72624 12.9017 6.78348C13.2546 6.84071 13.591 6.97296 13.8884 7.17129C14.1859 7.36962 14.4373 7.62943 14.6257 7.93319C14.8142 8.23695 14.9353 8.57759 14.981 8.93214C15.0266 9.2867 14.9956 9.64691 14.8902 9.98849C14.7848 10.3301 14.6074 10.6451 14.3698 10.9122C14.6186 11.2635 14.8348 11.6397 15.0148 12.0347C15.4385 11.652 15.7691 11.1776 15.9815 10.6476C16.194 10.1177 16.2826 9.54627 16.2407 8.97689C16.1988 8.40751 16.0274 7.85522 15.7396 7.36212C15.4519 6.86903 15.0553 6.44815 14.5802 6.13158C14.1051 5.815 13.564 5.61108 12.9981 5.53538C12.4322 5.45967 11.8565 5.51417 11.3149 5.69472C10.7733 5.87527 10.28 6.17711 9.87276 6.57722C9.4655 6.97732 9.15497 7.46514 8.96485 8.00348C9.40485 8.01723 9.83485 8.07223 10.2498 8.16473ZM15.8548 13.2572C16.6048 13.526 17.2611 13.9947 17.7573 14.5972C17.8254 14.5421 17.8811 14.4733 17.9209 14.3953C17.9606 14.3173 17.9835 14.2318 17.9881 14.1443C17.9927 14.0569 17.9789 13.9694 17.9475 13.8877C17.9162 13.8059 17.868 13.7317 17.8061 13.6697L16.9223 12.786C16.8332 12.6963 16.7191 12.6358 16.5949 12.6124C16.4707 12.589 16.3423 12.6038 16.2267 12.6548C16.1111 12.7059 16.0136 12.7908 15.9473 12.8983C15.8809 13.0059 15.8487 13.131 15.8548 13.2572ZM18.1273 8.62598C17.9616 8.62598 17.8026 8.69182 17.6854 8.80903C17.5682 8.92625 17.5023 9.08522 17.5023 9.25098C17.5023 9.41674 17.5682 9.57571 17.6854 9.69292C17.8026 9.81013 17.9616 9.87598 18.1273 9.87598H19.3773C19.5431 9.87598 19.7021 9.81013 19.8193 9.69292C19.9365 9.57571 20.0023 9.41674 20.0023 9.25098C20.0023 9.08522 19.9365 8.92625 19.8193 8.80903C19.7021 8.69182 19.5431 8.62598 19.3773 8.62598H18.1273Z" fill="#212529"/>
</g>
</g>
</svg>
