<svg width="16" height="16" viewBox="0 0 16 16" fill="none" xmlns="http://www.w3.org/2000/svg">
<g id="wrapper">
<path id="Union" fill-rule="evenodd" clip-rule="evenodd" d="M1.64714 4.64381C1.69358 4.59725 1.74876 4.5603 1.8095 4.5351C1.87025 4.50989 1.93537 4.49692 2.00114 4.49692C2.06691 4.49692 2.13203 4.50989 2.19277 4.5351C2.25352 4.5603 2.30869 4.59725 2.35514 4.64381L8.00114 10.2908L13.6471 4.64381C13.741 4.54992 13.8684 4.49718 14.0011 4.49718C14.1339 4.49718 14.2613 4.54992 14.3551 4.64381C14.449 4.7377 14.5018 4.86503 14.5018 4.99781C14.5018 5.13059 14.449 5.25792 14.3551 5.35181L8.35514 11.3518C8.30869 11.3984 8.25352 11.4353 8.19277 11.4605C8.13203 11.4857 8.06691 11.4987 8.00114 11.4987C7.93537 11.4987 7.87025 11.4857 7.8095 11.4605C7.74876 11.4353 7.69358 11.3984 7.64714 11.3518L1.64714 5.35181C1.60057 5.30536 1.56363 5.25019 1.53843 5.18944C1.51322 5.1287 1.50024 5.06358 1.50024 4.99781C1.50024 4.93204 1.51322 4.86692 1.53843 4.80618C1.56363 4.74543 1.60057 4.69026 1.64714 4.64381Z" fill="#212529"/>
</g>
</svg>
