<svg width="312" height="193" viewBox="0 0 312 193" fill="none" xmlns="http://www.w3.org/2000/svg">
<rect x="1.425" y="-1.425" width="307.85" height="188.85" rx="21.9286" transform="matrix(-1 0 0 1 311.1 3.2998)" fill="white"/>
<rect x="1.425" y="-1.425" width="307.85" height="188.85" rx="21.9286" transform="matrix(-1 0 0 1 311.1 3.2998)" stroke="url(#paint0_linear_625_20350)" stroke-width="2.85"/>
<g clip-path="url(#clip0_625_20350)">
<g clip-path="url(#clip1_625_20350)">
<rect width="228.833" height="20" transform="translate(41.3335 53.3833)" fill="white" fill-opacity="0.01"/>
<path d="M42.6696 57.2216H44.8965L48.7683 66.6754H48.9108L52.7826 57.2216H55.0095V69.3833H53.2636V60.5827H53.1508L49.564 69.3655H48.1151L44.5283 60.5767H44.4155V69.3833H42.6696V57.2216ZM61.466 69.5674C60.5673 69.5674 59.7933 69.3754 59.1441 68.9914C58.4988 68.6034 57.9999 68.0591 57.6476 67.3583C57.2992 66.6536 57.125 65.8282 57.125 64.882C57.125 63.9477 57.2992 63.1243 57.6476 62.4117C57.9999 61.6991 58.4909 61.1429 59.1203 60.743C59.7537 60.3432 60.4941 60.1432 61.3413 60.1432C61.8559 60.1432 62.3547 60.2284 62.8377 60.3986C63.3207 60.5688 63.7542 60.836 64.1382 61.2003C64.5222 61.5645 64.8251 62.0376 65.0468 62.6195C65.2685 63.1975 65.3793 63.9002 65.3793 64.7276V65.3571H58.1286V64.0269H63.6394C63.6394 63.5598 63.5444 63.1461 63.3544 62.7858C63.1643 62.4216 62.8971 62.1346 62.5527 61.9247C62.2122 61.7149 61.8124 61.61 61.3531 61.61C60.8543 61.61 60.4188 61.7327 60.0467 61.9782C59.6785 62.2197 59.3935 62.5364 59.1916 62.9283C58.9936 63.3163 58.8947 63.7379 58.8947 64.1932V65.2324C58.8947 65.8421 59.0015 66.3607 59.2153 66.7882C59.4331 67.2158 59.7359 67.5424 60.1239 67.7681C60.5119 67.9898 60.9652 68.1006 61.4838 68.1006C61.8203 68.1006 62.1271 68.0531 62.4042 67.9581C62.6813 67.8591 62.9209 67.7126 63.1228 67.5187C63.3247 67.3247 63.4791 67.0852 63.5859 66.8001L65.2665 67.103C65.1319 67.5978 64.8904 68.0313 64.542 68.4035C64.1976 68.7717 63.7641 69.0587 63.2415 69.2645C62.7229 69.4664 62.1311 69.5674 61.466 69.5674ZM60.5396 59.0446L61.9291 56.3071H63.7997L61.9588 59.0446H60.5396ZM70.7639 69.5615C70.0276 69.5615 69.3704 69.3734 68.7924 68.9973C68.2183 68.6173 67.767 68.0769 67.4384 67.3761C67.1138 66.6715 66.9515 65.8262 66.9515 64.8405C66.9515 63.8547 67.1158 63.0115 67.4444 62.3107C67.7769 61.61 68.2322 61.0736 68.8102 60.7014C69.3882 60.3293 70.0434 60.1432 70.7758 60.1432C71.3419 60.1432 71.7972 60.2383 72.1416 60.4283C72.49 60.6143 72.7592 60.8321 72.9492 61.0815C73.1432 61.3309 73.2937 61.5506 73.4005 61.7407H73.5074V57.2216H75.283V69.3833H73.549V67.964H73.4005C73.2937 68.158 73.1393 68.3797 72.9374 68.6291C72.7394 68.8785 72.4662 69.0963 72.1179 69.2823C71.7695 69.4684 71.3182 69.5615 70.7639 69.5615ZM71.1558 68.0472C71.6665 68.0472 72.0981 67.9126 72.4504 67.6434C72.8067 67.3702 73.0759 66.9921 73.258 66.5091C73.4441 66.0262 73.5371 65.464 73.5371 64.8227C73.5371 64.1892 73.4461 63.635 73.264 63.1599C73.0819 62.6849 72.8146 62.3147 72.4623 62.0494C72.1099 61.7842 71.6745 61.6516 71.1558 61.6516C70.6214 61.6516 70.176 61.7901 69.8197 62.0673C69.4634 62.3444 69.1942 62.7225 69.0121 63.2015C68.834 63.6805 68.7449 64.2209 68.7449 64.8227C68.7449 65.4323 68.8359 65.9806 69.018 66.4676C69.2002 66.9545 69.4694 67.3405 69.8257 67.6256C70.1859 67.9066 70.6293 68.0472 71.1558 68.0472ZM77.8172 69.3833V60.262H79.5927V69.3833H77.8172ZM78.7139 58.8546C78.4051 58.8546 78.1398 58.7517 77.9181 58.5458C77.7004 58.336 77.5915 58.0866 77.5915 57.7976C77.5915 57.5046 77.7004 57.2552 77.9181 57.0494C78.1398 56.8395 78.4051 56.7346 78.7139 56.7346C79.0227 56.7346 79.2859 56.8395 79.5037 57.0494C79.7254 57.2552 79.8362 57.5046 79.8362 57.7976C79.8362 58.0866 79.7254 58.336 79.5037 58.5458C79.2859 58.7517 79.0227 58.8546 78.7139 58.8546ZM84.6359 69.5852C84.0579 69.5852 83.5353 69.4783 83.0682 69.2645C82.601 69.0468 82.2309 68.7321 81.9577 68.3203C81.6885 67.9086 81.5539 67.4039 81.5539 66.8061C81.5539 66.2914 81.6529 65.8678 81.8508 65.5353C82.0487 65.2027 82.316 64.9394 82.6525 64.7455C82.989 64.5515 83.3651 64.405 83.7808 64.306C84.1964 64.207 84.62 64.1318 85.0516 64.0804C85.5979 64.017 86.0413 63.9656 86.3818 63.926C86.7222 63.8824 86.9697 63.8131 87.124 63.7181C87.2784 63.6231 87.3556 63.4687 87.3556 63.2549V63.2134C87.3556 62.6947 87.2092 62.2929 86.9162 62.0079C86.6272 61.7228 86.1957 61.5803 85.6216 61.5803C85.0239 61.5803 84.5527 61.7129 84.2083 61.9782C83.8679 62.2395 83.6323 62.5305 83.5017 62.8511L81.833 62.4711C82.0309 61.9168 82.3199 61.4695 82.7 61.129C83.084 60.7846 83.5254 60.5352 84.0242 60.3808C84.5231 60.2224 85.0476 60.1432 85.5979 60.1432C85.9621 60.1432 86.3481 60.1868 86.7559 60.2739C87.1676 60.357 87.5516 60.5114 87.9079 60.7371C88.2682 60.9627 88.5631 61.2854 88.7927 61.705C89.0223 62.1207 89.1371 62.6611 89.1371 63.3262V69.3833H87.4032V68.1362H87.3319C87.2171 68.3659 87.0449 68.5915 86.8153 68.8132C86.5856 69.0349 86.2907 69.219 85.9304 69.3655C85.5702 69.512 85.1387 69.5852 84.6359 69.5852ZM85.0219 68.16C85.5128 68.16 85.9324 68.063 86.2808 67.869C86.6331 67.675 86.9004 67.4217 87.0825 67.1089C87.2685 66.7922 87.3616 66.4537 87.3616 66.0935V64.9177C87.2982 64.981 87.1755 65.0404 86.9934 65.0958C86.8153 65.1473 86.6114 65.1928 86.3818 65.2324C86.1521 65.268 85.9285 65.3017 85.7107 65.3334C85.493 65.3611 85.3109 65.3848 85.1644 65.4046C84.82 65.4482 84.5052 65.5214 84.2202 65.6243C83.9391 65.7273 83.7135 65.8757 83.5432 66.0697C83.377 66.2597 83.2938 66.5131 83.2938 66.8298C83.2938 67.2693 83.4561 67.6018 83.7808 67.8275C84.1054 68.0492 84.5191 68.16 85.0219 68.16ZM99.3422 69.5615C98.6058 69.5615 97.9487 69.3734 97.3707 68.9973C96.7966 68.6173 96.3453 68.0769 96.0167 67.3761C95.6921 66.6715 95.5298 65.8262 95.5298 64.8405C95.5298 63.8547 95.6941 63.0115 96.0227 62.3107C96.3552 61.61 96.8105 61.0736 97.3885 60.7014C97.9665 60.3293 98.6217 60.1432 99.3541 60.1432C99.9202 60.1432 100.375 60.2383 100.72 60.4283C101.068 60.6143 101.337 60.8321 101.527 61.0815C101.721 61.3309 101.872 61.5506 101.979 61.7407H102.086V57.2216H103.861V69.3833H102.127V67.964H101.979C101.872 68.158 101.718 68.3797 101.516 68.6291C101.318 68.8785 101.045 69.0963 100.696 69.2823C100.348 69.4684 99.8964 69.5615 99.3422 69.5615ZM99.7341 68.0472C100.245 68.0472 100.676 67.9126 101.029 67.6434C101.385 67.3702 101.654 66.9921 101.836 66.5091C102.022 66.0262 102.115 65.464 102.115 64.8227C102.115 64.1892 102.024 63.635 101.842 63.1599C101.66 62.6849 101.393 62.3147 101.041 62.0494C100.688 61.7842 100.253 61.6516 99.7341 61.6516C99.1997 61.6516 98.7543 61.7901 98.398 62.0673C98.0417 62.3444 97.7725 62.7225 97.5904 63.2015C97.4122 63.6805 97.3231 64.2209 97.3231 64.8227C97.3231 65.4323 97.4142 65.9806 97.5963 66.4676C97.7784 66.9545 98.0476 67.3405 98.4039 67.6256C98.7642 67.9066 99.2076 68.0472 99.7341 68.0472ZM109.05 69.5852C108.472 69.5852 107.949 69.4783 107.482 69.2645C107.015 69.0468 106.645 68.7321 106.372 68.3203C106.102 67.9086 105.968 67.4039 105.968 66.8061C105.968 66.2914 106.067 65.8678 106.265 65.5353C106.463 65.2027 106.73 64.9394 107.066 64.7455C107.403 64.5515 107.779 64.405 108.195 64.306C108.61 64.207 109.034 64.1318 109.466 64.0804C110.012 64.017 110.455 63.9656 110.796 63.926C111.136 63.8824 111.384 63.8131 111.538 63.7181C111.692 63.6231 111.77 63.4687 111.77 63.2549V63.2134C111.77 62.6947 111.623 62.2929 111.33 62.0079C111.041 61.7228 110.61 61.5803 110.036 61.5803C109.438 61.5803 108.967 61.7129 108.622 61.9782C108.282 62.2395 108.046 62.5305 107.916 62.8511L106.247 62.4711C106.445 61.9168 106.734 61.4695 107.114 61.129C107.498 60.7846 107.939 60.5352 108.438 60.3808C108.937 60.2224 109.462 60.1432 110.012 60.1432C110.376 60.1432 110.762 60.1868 111.17 60.2739C111.582 60.357 111.966 60.5114 112.322 60.7371C112.682 60.9627 112.977 61.2854 113.207 61.705C113.436 62.1207 113.551 62.6611 113.551 63.3262V69.3833H111.817V68.1362H111.746C111.631 68.3659 111.459 68.5915 111.229 68.8132C111 69.0349 110.705 69.219 110.344 69.3655C109.984 69.512 109.553 69.5852 109.05 69.5852ZM109.436 68.16C109.927 68.16 110.346 68.063 110.695 67.869C111.047 67.675 111.314 67.4217 111.496 67.1089C111.683 66.7922 111.776 66.4537 111.776 66.0935V64.9177C111.712 64.981 111.59 65.0404 111.407 65.0958C111.229 65.1473 111.025 65.1928 110.796 65.2324C110.566 65.268 110.342 65.3017 110.125 65.3334C109.907 65.3611 109.725 65.3848 109.578 65.4046C109.234 65.4482 108.919 65.5214 108.634 65.6243C108.353 65.7273 108.127 65.8757 107.957 66.0697C107.791 66.2597 107.708 66.5131 107.708 66.8298C107.708 67.2693 107.87 67.6018 108.195 67.8275C108.519 68.0492 108.933 68.16 109.436 68.16ZM124.184 69.5674C123.301 69.5674 122.541 69.3675 121.903 68.9676C121.27 68.5638 120.783 68.0076 120.443 67.2989C120.102 66.5903 119.932 65.7787 119.932 64.8642C119.932 63.9378 120.106 63.1203 120.454 62.4117C120.803 61.6991 121.294 61.1429 121.927 60.743C122.561 60.3432 123.307 60.1432 124.166 60.1432C124.859 60.1432 125.476 60.2719 126.019 60.5292C126.561 60.7826 126.999 61.1389 127.331 61.5981C127.668 62.0574 127.868 62.5938 127.931 63.2074H126.203C126.108 62.7799 125.89 62.4117 125.55 62.1029C125.213 61.7941 124.762 61.6397 124.196 61.6397C123.701 61.6397 123.267 61.7703 122.895 62.0316C122.527 62.289 122.24 62.6571 122.034 63.1362C121.828 63.6112 121.725 64.1734 121.725 64.8227C121.725 65.4877 121.826 66.0618 122.028 66.5448C122.23 67.0278 122.515 67.4019 122.883 67.6671C123.255 67.9324 123.693 68.065 124.196 68.065C124.532 68.065 124.837 68.0036 125.11 67.8809C125.387 67.7542 125.619 67.5741 125.805 67.3405C125.995 67.1069 126.128 66.8259 126.203 66.4973H127.931C127.868 67.0871 127.675 67.6137 127.355 68.0769C127.034 68.5401 126.605 68.9043 126.066 69.1695C125.532 69.4348 124.904 69.5674 124.184 69.5674ZM133.672 69.5674C132.817 69.5674 132.07 69.3714 131.433 68.9795C130.796 68.5876 130.301 68.0393 129.948 67.3346C129.596 66.6299 129.42 65.8064 129.42 64.8642C129.42 63.918 129.596 63.0906 129.948 62.382C130.301 61.6734 130.796 61.1231 131.433 60.7311C132.07 60.3392 132.817 60.1432 133.672 60.1432C134.527 60.1432 135.273 60.3392 135.91 60.7311C136.548 61.1231 137.043 61.6734 137.395 62.382C137.747 63.0906 137.924 63.918 137.924 64.8642C137.924 65.8064 137.747 66.6299 137.395 67.3346C137.043 68.0393 136.548 68.5876 135.91 68.9795C135.273 69.3714 134.527 69.5674 133.672 69.5674ZM133.678 68.0769C134.232 68.0769 134.691 67.9304 135.055 67.6374C135.42 67.3445 135.689 66.9545 135.863 66.4676C136.041 65.9806 136.13 65.4442 136.13 64.8583C136.13 64.2763 136.041 63.7419 135.863 63.2549C135.689 62.764 135.42 62.3701 135.055 62.0732C134.691 61.7763 134.232 61.6278 133.678 61.6278C133.119 61.6278 132.656 61.7763 132.288 62.0732C131.924 62.3701 131.653 62.764 131.475 63.2549C131.3 63.7419 131.213 64.2763 131.213 64.8583C131.213 65.4442 131.3 65.9806 131.475 66.4676C131.653 66.9545 131.924 67.3445 132.288 67.6374C132.656 67.9304 133.119 68.0769 133.678 68.0769ZM140.048 69.3833V57.2216H141.824V61.7407H141.93C142.033 61.5506 142.182 61.3309 142.376 61.0815C142.57 60.8321 142.839 60.6143 143.183 60.4283C143.528 60.2383 143.983 60.1432 144.549 60.1432C145.286 60.1432 145.943 60.3293 146.521 60.7014C147.099 61.0736 147.552 61.61 147.881 62.3107C148.213 63.0115 148.38 63.8547 148.38 64.8405C148.38 65.8262 148.215 66.6715 147.887 67.3761C147.558 68.0769 147.107 68.6173 146.533 68.9973C145.959 69.3734 145.303 69.5615 144.567 69.5615C144.013 69.5615 143.56 69.4684 143.207 69.2823C142.859 69.0963 142.586 68.8785 142.388 68.6291C142.19 68.3797 142.037 68.158 141.93 67.964H141.782V69.3833H140.048ZM141.788 64.8227C141.788 65.464 141.881 66.0262 142.067 66.5091C142.253 66.9921 142.522 67.3702 142.875 67.6434C143.227 67.9126 143.659 68.0472 144.169 68.0472C144.7 68.0472 145.143 67.9066 145.499 67.6256C145.856 67.3405 146.125 66.9545 146.307 66.4676C146.493 65.9806 146.586 65.4323 146.586 64.8227C146.586 64.2209 146.495 63.6805 146.313 63.2015C146.135 62.7225 145.866 62.3444 145.505 62.0673C145.149 61.7901 144.704 61.6516 144.169 61.6516C143.655 61.6516 143.219 61.7842 142.863 62.0494C142.51 62.3147 142.243 62.6849 142.061 63.1599C141.879 63.635 141.788 64.1892 141.788 64.8227ZM154.305 69.5674C153.406 69.5674 152.632 69.3754 151.983 68.9914C151.337 68.6034 150.838 68.0591 150.486 67.3583C150.138 66.6536 149.964 65.8282 149.964 64.882C149.964 63.9477 150.138 63.1243 150.486 62.4117C150.838 61.6991 151.329 61.1429 151.959 60.743C152.592 60.3432 153.333 60.1432 154.18 60.1432C154.694 60.1432 155.193 60.2284 155.676 60.3986C156.159 60.5688 156.593 60.836 156.977 61.2003C157.361 61.5645 157.664 62.0376 157.885 62.6195C158.107 63.1975 158.218 63.9002 158.218 64.7276V65.3571H150.967V64.0269H156.478C156.478 63.5598 156.383 63.1461 156.193 62.7858C156.003 62.4216 155.736 62.1346 155.391 61.9247C155.051 61.7149 154.651 61.61 154.192 61.61C153.693 61.61 153.257 61.7327 152.885 61.9782C152.517 62.2197 152.232 62.5364 152.03 62.9283C151.832 63.3163 151.733 63.7379 151.733 64.1932V65.2324C151.733 65.8421 151.84 66.3607 152.054 66.7882C152.272 67.2158 152.574 67.5424 152.962 67.7681C153.35 67.9898 153.804 68.1006 154.322 68.1006C154.659 68.1006 154.966 68.0531 155.243 67.9581C155.52 67.8591 155.759 67.7126 155.961 67.5187C156.163 67.3247 156.318 67.0852 156.424 66.8001L158.105 67.103C157.97 67.5978 157.729 68.0313 157.381 68.4035C157.036 68.7717 156.603 69.0587 156.08 69.2645C155.561 69.4664 154.97 69.5674 154.305 69.5674ZM160.188 69.3833V60.262H161.904V61.711H161.999C162.165 61.2201 162.458 60.8341 162.878 60.553C163.302 60.2679 163.781 60.1254 164.315 60.1254C164.426 60.1254 164.557 60.1294 164.707 60.1373C164.861 60.1452 164.982 60.1551 165.069 60.167V61.8654C164.998 61.8456 164.871 61.8238 164.689 61.8C164.507 61.7723 164.325 61.7585 164.143 61.7585C163.723 61.7585 163.349 61.8475 163.021 62.0257C162.696 62.1999 162.439 62.4434 162.249 62.7561C162.059 63.0649 161.963 63.4172 161.963 63.8131V69.3833H160.188ZM171.402 60.262V61.6872H166.42V60.262H171.402ZM167.756 58.0767H169.532V66.7051C169.532 67.0495 169.583 67.3088 169.686 67.483C169.789 67.6533 169.922 67.7701 170.084 67.8334C170.25 67.8928 170.431 67.9225 170.625 67.9225C170.767 67.9225 170.892 67.9126 170.999 67.8928C171.106 67.873 171.189 67.8571 171.248 67.8453L171.569 69.312C171.466 69.3516 171.319 69.3912 171.129 69.4308C170.939 69.4744 170.702 69.4981 170.417 69.5021C169.95 69.51 169.514 69.4268 169.11 69.2527C168.706 69.0785 168.38 68.8093 168.13 68.445C167.881 68.0808 167.756 67.6236 167.756 67.0733V58.0767ZM179.145 65.6006V60.262H180.926V69.3833H179.18V67.8037H179.085C178.875 68.2906 178.539 68.6964 178.076 69.0211C177.616 69.3417 177.044 69.5021 176.36 69.5021C175.774 69.5021 175.255 69.3734 174.804 69.1161C174.356 68.8548 174.004 68.4688 173.747 67.9581C173.493 67.4474 173.367 66.816 173.367 66.0638V60.262H175.142V65.85C175.142 66.4715 175.314 66.9664 175.659 67.3346C176.003 67.7028 176.451 67.8868 177.001 67.8868C177.333 67.8868 177.664 67.8037 177.993 67.6374C178.325 67.4712 178.6 67.2198 178.818 66.8833C179.04 66.5468 179.149 66.1192 179.145 65.6006ZM183.312 69.3833V60.262H185.028V61.711H185.123C185.289 61.2201 185.582 60.8341 186.002 60.553C186.425 60.2679 186.905 60.1254 187.439 60.1254C187.55 60.1254 187.68 60.1294 187.831 60.1373C187.985 60.1452 188.106 60.1551 188.193 60.167V61.8654C188.122 61.8456 187.995 61.8238 187.813 61.8C187.631 61.7723 187.449 61.7585 187.267 61.7585C186.847 61.7585 186.473 61.8475 186.144 62.0257C185.82 62.1999 185.562 62.4434 185.372 62.7561C185.182 63.0649 185.087 63.4172 185.087 63.8131V69.3833H183.312ZM192.302 69.5852C191.724 69.5852 191.202 69.4783 190.735 69.2645C190.268 69.0468 189.897 68.7321 189.624 68.3203C189.355 67.9086 189.22 67.4039 189.22 66.8061C189.22 66.2914 189.319 65.8678 189.517 65.5353C189.715 65.2027 189.983 64.9394 190.319 64.7455C190.656 64.5515 191.032 64.405 191.447 64.306C191.863 64.207 192.287 64.1318 192.718 64.0804C193.264 64.017 193.708 63.9656 194.048 63.926C194.389 63.8824 194.636 63.8131 194.791 63.7181C194.945 63.6231 195.022 63.4687 195.022 63.2549V63.2134C195.022 62.6947 194.876 62.2929 194.583 62.0079C194.294 61.7228 193.862 61.5803 193.288 61.5803C192.69 61.5803 192.219 61.7129 191.875 61.9782C191.534 62.2395 191.299 62.5305 191.168 62.8511L189.5 62.4711C189.698 61.9168 189.987 61.4695 190.367 61.129C190.751 60.7846 191.192 60.5352 191.691 60.3808C192.19 60.2224 192.714 60.1432 193.264 60.1432C193.629 60.1432 194.015 60.1868 194.422 60.2739C194.834 60.357 195.218 60.5114 195.574 60.7371C195.935 60.9627 196.23 61.2854 196.459 61.705C196.689 62.1207 196.804 62.6611 196.804 63.3262V69.3833H195.07V68.1362H194.998C194.884 68.3659 194.711 68.5915 194.482 68.8132C194.252 69.0349 193.957 69.219 193.597 69.3655C193.237 69.512 192.805 69.5852 192.302 69.5852ZM192.688 68.16C193.179 68.16 193.599 68.063 193.947 67.869C194.3 67.675 194.567 67.4217 194.749 67.1089C194.935 66.7922 195.028 66.4537 195.028 66.0935V64.9177C194.965 64.981 194.842 65.0404 194.66 65.0958C194.482 65.1473 194.278 65.1928 194.048 65.2324C193.819 65.268 193.595 65.3017 193.377 65.3334C193.16 65.3611 192.977 65.3848 192.831 65.4046C192.487 65.4482 192.172 65.5214 191.887 65.6243C191.606 65.7273 191.38 65.8757 191.21 66.0697C191.044 66.2597 190.96 66.5131 190.96 66.8298C190.96 67.2693 191.123 67.6018 191.447 67.8275C191.772 68.0492 192.186 68.16 192.688 68.16ZM211.397 60.262L208.09 69.3833H206.189L202.876 60.262H204.782L207.092 67.2811H207.187L209.491 60.262H211.397ZM216.687 69.5674C215.788 69.5674 215.014 69.3754 214.365 68.9914C213.72 68.6034 213.221 68.0591 212.868 67.3583C212.52 66.6536 212.346 65.8282 212.346 64.882C212.346 63.9477 212.52 63.1243 212.868 62.4117C213.221 61.6991 213.712 61.1429 214.341 60.743C214.975 60.3432 215.715 60.1432 216.562 60.1432C217.077 60.1432 217.576 60.2284 218.059 60.3986C218.542 60.5688 218.975 60.836 219.359 61.2003C219.743 61.5645 220.046 62.0376 220.268 62.6195C220.489 63.1975 220.6 63.9002 220.6 64.7276V65.3571H213.349V64.0269H218.86C218.86 63.5598 218.765 63.1461 218.575 62.7858C218.385 62.4216 218.118 62.1346 217.774 61.9247C217.433 61.7149 217.033 61.61 216.574 61.61C216.075 61.61 215.64 61.7327 215.268 61.9782C214.899 62.2197 214.614 62.5364 214.412 62.9283C214.214 63.3163 214.115 63.7379 214.115 64.1932V65.2324C214.115 65.8421 214.222 66.3607 214.436 66.7882C214.654 67.2158 214.957 67.5424 215.345 67.7681C215.733 67.9898 216.186 68.1006 216.705 68.1006C217.041 68.1006 217.348 68.0531 217.625 67.9581C217.902 67.8591 218.142 67.7126 218.344 67.5187C218.545 67.3247 218.7 67.0852 218.807 66.8001L220.487 67.103C220.353 67.5978 220.111 68.0313 219.763 68.4035C219.418 68.7717 218.985 69.0587 218.462 69.2645C217.944 69.4664 217.352 69.5674 216.687 69.5674ZM226.394 72.9938C225.67 72.9938 225.046 72.8988 224.524 72.7088C224.005 72.5187 223.582 72.2674 223.253 71.9546C222.925 71.6419 222.679 71.2994 222.517 70.9273L224.043 70.2978C224.15 70.472 224.292 70.6561 224.47 70.8501C224.653 71.048 224.898 71.2163 225.207 71.3548C225.52 71.4934 225.921 71.5627 226.412 71.5627C227.085 71.5627 227.642 71.3984 228.081 71.0698C228.52 70.7452 228.74 70.2265 228.74 69.5139V67.7206H228.627C228.52 67.9146 228.366 68.1303 228.164 68.3678C227.966 68.6054 227.693 68.8112 227.345 68.9854C226.996 69.1596 226.543 69.2467 225.985 69.2467C225.264 69.2467 224.615 69.0785 224.037 68.742C223.463 68.4015 223.008 67.9007 222.671 67.2396C222.339 66.5745 222.172 65.757 222.172 64.787C222.172 63.8171 222.337 62.9857 222.665 62.2929C222.998 61.6001 223.453 61.0696 224.031 60.7014C224.609 60.3293 225.264 60.1432 225.997 60.1432C226.563 60.1432 227.02 60.2383 227.368 60.4283C227.717 60.6143 227.988 60.8321 228.182 61.0815C228.38 61.3309 228.532 61.5506 228.639 61.7407H228.77V60.262H230.51V69.5852C230.51 70.3691 230.328 71.0124 229.963 71.5152C229.599 72.0179 229.106 72.3901 228.485 72.6316C227.867 72.8731 227.17 72.9938 226.394 72.9938ZM226.377 67.774C226.887 67.774 227.319 67.6552 227.671 67.4177C228.028 67.1762 228.297 66.8318 228.479 66.3844C228.665 65.9331 228.758 65.3927 228.758 64.7633C228.758 64.1496 228.667 63.6093 228.485 63.1421C228.303 62.675 228.035 62.3107 227.683 62.0494C227.331 61.7842 226.895 61.6516 226.377 61.6516C225.842 61.6516 225.397 61.7901 225.041 62.0673C224.684 62.3404 224.415 62.7126 224.233 63.1837C224.055 63.6548 223.966 64.1813 223.966 64.7633C223.966 65.3611 224.057 65.8856 224.239 66.3369C224.421 66.7882 224.69 67.1406 225.046 67.394C225.407 67.6473 225.85 67.774 226.377 67.774ZM236.822 69.5674C235.924 69.5674 235.15 69.3754 234.5 68.9914C233.855 68.6034 233.356 68.0591 233.004 67.3583C232.655 66.6536 232.481 65.8282 232.481 64.882C232.481 63.9477 232.655 63.1243 233.004 62.4117C233.356 61.6991 233.847 61.1429 234.477 60.743C235.11 60.3432 235.85 60.1432 236.698 60.1432C237.212 60.1432 237.711 60.2284 238.194 60.3986C238.677 60.5688 239.11 60.836 239.494 61.2003C239.878 61.5645 240.181 62.0376 240.403 62.6195C240.625 63.1975 240.736 63.9002 240.736 64.7276V65.3571H233.485V64.0269H238.996C238.996 63.5598 238.901 63.1461 238.711 62.7858C238.521 62.4216 238.253 62.1346 237.909 61.9247C237.568 61.7149 237.169 61.61 236.709 61.61C236.211 61.61 235.775 61.7327 235.403 61.9782C235.035 62.2197 234.75 62.5364 234.548 62.9283C234.35 63.3163 234.251 63.7379 234.251 64.1932V65.2324C234.251 65.8421 234.358 66.3607 234.572 66.7882C234.789 67.2158 235.092 67.5424 235.48 67.7681C235.868 67.9898 236.321 68.1006 236.84 68.1006C237.177 68.1006 237.483 68.0531 237.76 67.9581C238.038 67.8591 238.277 67.7126 238.479 67.5187C238.681 67.3247 238.835 67.0852 238.942 66.8001L240.623 67.103C240.488 67.5978 240.247 68.0313 239.898 68.4035C239.554 68.7717 239.12 69.0587 238.598 69.2645C238.079 69.4664 237.487 69.5674 236.822 69.5674ZM246.963 60.262V61.6872H241.981V60.262H246.963ZM243.317 58.0767H245.093V66.7051C245.093 67.0495 245.144 67.3088 245.247 67.483C245.35 67.6533 245.483 67.7701 245.645 67.8334C245.811 67.8928 245.992 67.9225 246.185 67.9225C246.328 67.9225 246.453 67.9126 246.56 67.8928C246.667 67.873 246.75 67.8571 246.809 67.8453L247.13 69.312C247.027 69.3516 246.88 69.3912 246.69 69.4308C246.5 69.4744 246.263 69.4981 245.978 69.5021C245.511 69.51 245.075 69.4268 244.671 69.2527C244.267 69.0785 243.941 68.8093 243.691 68.445C243.442 68.0808 243.317 67.6236 243.317 67.0733V58.0767ZM251.582 69.5852C251.004 69.5852 250.481 69.4783 250.014 69.2645C249.547 69.0468 249.177 68.7321 248.904 68.3203C248.635 67.9086 248.5 67.4039 248.5 66.8061C248.5 66.2914 248.599 65.8678 248.797 65.5353C248.995 65.2027 249.262 64.9394 249.599 64.7455C249.935 64.5515 250.311 64.405 250.727 64.306C251.143 64.207 251.566 64.1318 251.998 64.0804C252.544 64.017 252.987 63.9656 253.328 63.926C253.668 63.8824 253.916 63.8131 254.07 63.7181C254.225 63.6231 254.302 63.4687 254.302 63.2549V63.2134C254.302 62.6947 254.155 62.2929 253.862 62.0079C253.573 61.7228 253.142 61.5803 252.568 61.5803C251.97 61.5803 251.499 61.7129 251.154 61.9782C250.814 62.2395 250.578 62.5305 250.448 62.8511L248.779 62.4711C248.977 61.9168 249.266 61.4695 249.646 61.129C250.03 60.7846 250.471 60.5352 250.97 60.3808C251.469 60.2224 251.994 60.1432 252.544 60.1432C252.908 60.1432 253.294 60.1868 253.702 60.2739C254.114 60.357 254.498 60.5114 254.854 60.7371C255.214 60.9627 255.509 61.2854 255.739 61.705C255.968 62.1207 256.083 62.6611 256.083 63.3262V69.3833H254.349V68.1362H254.278C254.163 68.3659 253.991 68.5915 253.761 68.8132C253.532 69.0349 253.237 69.219 252.877 69.3655C252.516 69.512 252.085 69.5852 251.582 69.5852ZM251.968 68.16C252.459 68.16 252.879 68.063 253.227 67.869C253.579 67.675 253.846 67.4217 254.029 67.1089C254.215 66.7922 254.308 66.4537 254.308 66.0935V64.9177C254.244 64.981 254.122 65.0404 253.939 65.0958C253.761 65.1473 253.557 65.1928 253.328 65.2324C253.098 65.268 252.875 65.3017 252.657 65.3334C252.439 65.3611 252.257 65.3848 252.11 65.4046C251.766 65.4482 251.451 65.5214 251.166 65.6243C250.885 65.7273 250.66 65.8757 250.489 66.0697C250.323 66.2597 250.24 66.5131 250.24 66.8298C250.24 67.2693 250.402 67.6018 250.727 67.8275C251.051 68.0492 251.465 68.16 251.968 68.16ZM260.224 57.2216V69.3833H258.448V57.2216H260.224Z" fill="#212529"/>
</g>
<g filter="url(#filter0_d_625_20350)">
<path d="M112.282 129.661V125.272L123.57 114.611C124.462 113.803 125.117 113.078 125.535 112.437C125.953 111.796 126.231 111.211 126.371 110.681C126.538 110.152 126.622 109.664 126.622 109.218C126.622 108.047 126.217 107.156 125.409 106.542C124.629 105.901 123.472 105.581 121.939 105.581C120.713 105.581 119.57 105.818 118.511 106.292C117.48 106.765 116.602 107.504 115.877 108.507L110.944 105.33C112.059 103.658 113.62 102.334 115.627 101.359C117.633 100.383 119.947 99.8953 122.566 99.8953C124.74 99.8953 126.635 100.258 128.252 100.982C129.896 101.679 131.164 102.668 132.056 103.95C132.976 105.233 133.436 106.765 133.436 108.549C133.436 109.497 133.311 110.444 133.06 111.392C132.837 112.312 132.363 113.287 131.638 114.318C130.942 115.35 129.91 116.506 128.545 117.788L119.18 126.609L117.884 124.143H134.397V129.661H112.282ZM149.734 130.163C147.337 130.163 145.191 129.578 143.296 128.407C141.4 127.209 139.909 125.481 138.822 123.223C137.735 120.966 137.192 118.234 137.192 115.029C137.192 111.824 137.735 109.093 138.822 106.835C139.909 104.578 141.4 102.864 143.296 101.693C145.191 100.495 147.337 99.8953 149.734 99.8953C152.158 99.8953 154.304 100.495 156.172 101.693C158.067 102.864 159.558 104.578 160.645 106.835C161.732 109.093 162.275 111.824 162.275 115.029C162.275 118.234 161.732 120.966 160.645 123.223C159.558 125.481 158.067 127.209 156.172 128.407C154.304 129.578 152.158 130.163 149.734 130.163ZM149.734 124.435C150.876 124.435 151.866 124.115 152.702 123.474C153.566 122.833 154.235 121.816 154.709 120.422C155.21 119.028 155.461 117.231 155.461 115.029C155.461 112.827 155.21 111.03 154.709 109.636C154.235 108.243 153.566 107.225 152.702 106.584C151.866 105.943 150.876 105.623 149.734 105.623C148.619 105.623 147.629 105.943 146.765 106.584C145.929 107.225 145.26 108.243 144.759 109.636C144.285 111.03 144.048 112.827 144.048 115.029C144.048 117.231 144.285 119.028 144.759 120.422C145.26 121.816 145.929 122.833 146.765 123.474C147.629 124.115 148.619 124.435 149.734 124.435ZM169.788 129.661L189.772 100.397H194.747L174.763 129.661H169.788ZM172.339 116.2C170.917 116.2 169.663 115.879 168.576 115.238C167.489 114.569 166.625 113.636 165.984 112.437C165.371 111.211 165.064 109.775 165.064 108.131C165.064 106.487 165.371 105.065 165.984 103.867C166.625 102.668 167.489 101.735 168.576 101.066C169.663 100.397 170.917 100.063 172.339 100.063C173.76 100.063 175.014 100.397 176.101 101.066C177.188 101.735 178.038 102.668 178.651 103.867C179.264 105.065 179.571 106.487 179.571 108.131C179.571 109.775 179.264 111.211 178.651 112.437C178.038 113.636 177.188 114.569 176.101 115.238C175.014 115.879 173.76 116.2 172.339 116.2ZM172.339 112.772C173.258 112.772 173.997 112.395 174.554 111.643C175.112 110.862 175.39 109.692 175.39 108.131C175.39 106.57 175.112 105.414 174.554 104.661C173.997 103.881 173.258 103.491 172.339 103.491C171.447 103.491 170.708 103.881 170.123 104.661C169.565 105.414 169.287 106.57 169.287 108.131C169.287 109.664 169.565 110.821 170.123 111.601C170.708 112.381 171.447 112.772 172.339 112.772ZM192.196 129.996C190.803 129.996 189.549 129.675 188.434 129.034C187.347 128.365 186.497 127.431 185.884 126.233C185.271 125.007 184.964 123.571 184.964 121.927C184.964 120.283 185.271 118.861 185.884 117.663C186.497 116.464 187.347 115.531 188.434 114.862C189.549 114.193 190.803 113.858 192.196 113.858C193.646 113.858 194.914 114.193 196.001 114.862C197.088 115.531 197.938 116.464 198.551 117.663C199.164 118.861 199.471 120.283 199.471 121.927C199.471 123.571 199.164 125.007 198.551 126.233C197.938 127.431 197.088 128.365 196.001 129.034C194.914 129.675 193.646 129.996 192.196 129.996ZM192.196 126.567C193.116 126.567 193.855 126.191 194.412 125.439C194.97 124.658 195.248 123.488 195.248 121.927C195.248 120.394 194.97 119.238 194.412 118.457C193.855 117.677 193.116 117.287 192.196 117.287C191.305 117.287 190.566 117.677 189.981 118.457C189.423 119.21 189.145 120.366 189.145 121.927C189.145 123.488 189.423 124.658 189.981 125.439C190.566 126.191 191.305 126.567 192.196 126.567Z" fill="#198754"/>
</g>
</g>
<defs>
<filter id="filter0_d_625_20350" x="100.944" y="93.8953" width="108.526" height="50.2676" filterUnits="userSpaceOnUse" color-interpolation-filters="sRGB">
<feFlood flood-opacity="0" result="BackgroundImageFix"/>
<feColorMatrix in="SourceAlpha" type="matrix" values="0 0 0 0 0 0 0 0 0 0 0 0 0 0 0 0 0 0 127 0" result="hardAlpha"/>
<feOffset dy="4"/>
<feGaussianBlur stdDeviation="5"/>
<feComposite in2="hardAlpha" operator="out"/>
<feColorMatrix type="matrix" values="0 0 0 0 0 0 0 0 0 0 0 0 0 0 0 0 0 0 0.17 0"/>
<feBlend mode="normal" in2="BackgroundImageFix" result="effect1_dropShadow_625_20350"/>
<feBlend mode="normal" in="SourceGraphic" in2="effect1_dropShadow_625_20350" result="shape"/>
</filter>
<linearGradient id="paint0_linear_625_20350" x1="6.78983" y1="-0.25918" x2="295.009" y2="192.371" gradientUnits="userSpaceOnUse">
<stop stop-color="#D7EBE2"/>
<stop offset="0.47" stop-color="#D7EBE2" stop-opacity="0.1"/>
</linearGradient>
<clipPath id="clip0_625_20350">
<rect x="16.25" y="28.2998" width="279" height="136" rx="16.7224" fill="white"/>
</clipPath>
<clipPath id="clip1_625_20350">
<rect width="228.833" height="20" fill="white" transform="translate(41.3335 53.3833)"/>
</clipPath>
</defs>
</svg>
