<svg width="306" height="187" viewBox="0 0 306 187" fill="none" xmlns="http://www.w3.org/2000/svg">
<rect width="305" height="186" rx="20.5036" transform="matrix(-1 0 0 1 305.25 0.601807)" fill="white"/>
<g clip-path="url(#clip0_1146_25965)">
<g clip-path="url(#clip1_1146_25965)">
<rect width="228.833" height="20" transform="translate(38.3336 50.6853)" fill="white" fill-opacity="0.01"/>
<path d="M39.6697 54.5236H41.8966L45.7684 63.9774H45.9109L49.7827 54.5236H52.0096V66.6853H50.2637V57.8847H50.1509L46.5641 66.6675H45.1151L41.5284 57.8787H41.4156V66.6853H39.6697V54.5236ZM58.466 66.8694C57.5674 66.8694 56.7934 66.6774 56.1441 66.2934C55.4988 65.9054 55 65.3611 54.6477 64.6603C54.2993 63.9556 54.1251 63.1302 54.1251 62.184C54.1251 61.2497 54.2993 60.4263 54.6477 59.7137C55 59.0011 55.4909 58.4449 56.1204 58.045C56.7538 57.6452 57.4941 57.4452 58.3413 57.4452C58.856 57.4452 59.3548 57.5304 59.8378 57.7006C60.3208 57.8708 60.7543 58.138 61.1383 58.5023C61.5223 58.8665 61.8251 59.3396 62.0468 59.9215C62.2685 60.4995 62.3794 61.2022 62.3794 62.0296V62.6591H55.1287V61.3289H60.6395C60.6395 60.8618 60.5444 60.4481 60.3544 60.0878C60.1644 59.7236 59.8972 59.4366 59.5527 59.2267C59.2123 59.0169 58.8124 58.912 58.3532 58.912C57.8544 58.912 57.4189 59.0347 57.0468 59.2802C56.6786 59.5217 56.3935 59.8384 56.1916 60.2303C55.9937 60.6183 55.8947 61.0399 55.8947 61.4952V62.5344C55.8947 63.1441 56.0016 63.6627 56.2154 64.0902C56.4331 64.5178 56.736 64.8444 57.124 65.0701C57.5119 65.2918 57.9652 65.4026 58.4838 65.4026C58.8203 65.4026 59.1272 65.3551 59.4043 65.2601C59.6814 65.1611 59.9209 65.0146 60.1228 64.8207C60.3247 64.6267 60.4791 64.3872 60.586 64.1021L62.2666 64.405C62.132 64.8998 61.8905 65.3333 61.5421 65.7055C61.1977 66.0737 60.7642 66.3607 60.2416 66.5665C59.723 66.7684 59.1311 66.8694 58.466 66.8694ZM57.5396 56.3466L58.9292 53.6091H60.7998L58.9589 56.3466H57.5396ZM67.764 66.8635C67.0276 66.8635 66.3704 66.6754 65.7925 66.2993C65.2184 65.9193 64.7671 65.3789 64.4385 64.6781C64.1139 63.9735 63.9516 63.1282 63.9516 62.1425C63.9516 61.1567 64.1159 60.3135 64.4444 59.6127C64.777 58.912 65.2323 58.3756 65.8103 58.0034C66.3883 57.6313 67.0435 57.4452 67.7759 57.4452C68.342 57.4452 68.7973 57.5403 69.1417 57.7303C69.4901 57.9164 69.7593 58.1341 69.9493 58.3835C70.1433 58.6329 70.2937 58.8526 70.4006 59.0427H70.5075V54.5236H72.2831V66.6853H70.5491V65.266H70.4006C70.2937 65.46 70.1393 65.6817 69.9374 65.9311C69.7395 66.1805 69.4663 66.3983 69.1179 66.5844C68.7695 66.7704 68.3182 66.8635 67.764 66.8635ZM68.1559 65.3492C68.6666 65.3492 69.0981 65.2146 69.4505 64.9454C69.8068 64.6722 70.076 64.2941 70.2581 63.8111C70.4442 63.3282 70.5372 62.766 70.5372 62.1247C70.5372 61.4912 70.4461 60.937 70.264 60.4619C70.0819 59.9869 69.8147 59.6167 69.4623 59.3515C69.11 59.0862 68.6745 58.9536 68.1559 58.9536C67.6215 58.9536 67.1761 59.0921 66.8198 59.3693C66.4635 59.6464 66.1943 60.0245 66.0122 60.5035C65.834 60.9825 65.7449 61.5229 65.7449 62.1247C65.7449 62.7343 65.836 63.2826 66.0181 63.7696C66.2002 64.2565 66.4694 64.6425 66.8257 64.9276C67.186 65.2086 67.6294 65.3492 68.1559 65.3492ZM74.8172 66.6853V57.564H76.5928V66.6853H74.8172ZM75.7139 56.1566C75.4051 56.1566 75.1399 56.0537 74.9182 55.8478C74.7005 55.638 74.5916 55.3886 74.5916 55.0996C74.5916 54.8066 74.7005 54.5572 74.9182 54.3514C75.1399 54.1415 75.4051 54.0366 75.7139 54.0366C76.0227 54.0366 76.286 54.1415 76.5037 54.3514C76.7254 54.5572 76.8363 54.8066 76.8363 55.0996C76.8363 55.3886 76.7254 55.638 76.5037 55.8478C76.286 56.0537 76.0227 56.1566 75.7139 56.1566ZM81.6359 66.8872C81.0579 66.8872 80.5354 66.7803 80.0682 66.5665C79.6011 66.3488 79.2309 66.0341 78.9578 65.6223C78.6885 65.2106 78.5539 64.7059 78.5539 64.1081C78.5539 63.5934 78.6529 63.1698 78.8509 62.8373C79.0488 62.5047 79.316 62.2414 79.6525 62.0475C79.989 61.8535 80.3651 61.707 80.7808 61.608C81.1965 61.509 81.6201 61.4338 82.0516 61.3824C82.598 61.319 83.0414 61.2676 83.3818 61.228C83.7223 61.1844 83.9697 61.1151 84.1241 61.0201C84.2785 60.9251 84.3557 60.7707 84.3557 60.5569V60.5154C84.3557 59.9968 84.2092 59.5949 83.9163 59.3099C83.6273 59.0248 83.1957 58.8823 82.6217 58.8823C82.0239 58.8823 81.5528 59.0149 81.2084 59.2802C80.8679 59.5415 80.6324 59.8325 80.5017 60.1531L78.833 59.7731C79.031 59.2188 79.32 58.7715 79.7 58.431C80.0841 58.0866 80.5255 57.8372 81.0243 57.6828C81.5231 57.5244 82.0477 57.4452 82.598 57.4452C82.9622 57.4452 83.3482 57.4888 83.7559 57.5759C84.1677 57.659 84.5517 57.8134 84.908 58.0391C85.2682 58.2647 85.5632 58.5874 85.7928 59.007C86.0224 59.4227 86.1372 59.9631 86.1372 60.6282V66.6853H84.4032V65.4383H84.332C84.2171 65.6679 84.0449 65.8935 83.8153 66.1152C83.5857 66.3369 83.2908 66.521 82.9305 66.6675C82.5702 66.814 82.1387 66.8872 81.6359 66.8872ZM82.0219 65.462C82.5128 65.462 82.9325 65.365 83.2809 65.171C83.6332 64.977 83.9004 64.7237 84.0825 64.4109C84.2686 64.0942 84.3616 63.7557 84.3616 63.3955V62.2197C84.2983 62.283 84.1756 62.3424 83.9935 62.3978C83.8153 62.4493 83.6114 62.4948 83.3818 62.5344C83.1522 62.57 82.9285 62.6037 82.7108 62.6354C82.493 62.6631 82.3109 62.6868 82.1645 62.7066C81.82 62.7502 81.5053 62.8234 81.2203 62.9263C80.9392 63.0293 80.7135 63.1777 80.5433 63.3717C80.377 63.5617 80.2939 63.8151 80.2939 64.1318C80.2939 64.5713 80.4562 64.9038 80.7808 65.1295C81.1055 65.3512 81.5192 65.462 82.0219 65.462ZM96.3422 66.8635C95.6059 66.8635 94.9487 66.6754 94.3707 66.2993C93.7967 65.9193 93.3454 65.3789 93.0168 64.6781C92.6921 63.9735 92.5298 63.1282 92.5298 62.1425C92.5298 61.1567 92.6941 60.3135 93.0227 59.6127C93.3553 58.912 93.8105 58.3756 94.3885 58.0034C94.9665 57.6313 95.6217 57.4452 96.3541 57.4452C96.9202 57.4452 97.3755 57.5403 97.7199 57.7303C98.0683 57.9164 98.3375 58.1341 98.5276 58.3835C98.7215 58.6329 98.872 58.8526 98.9789 59.0427H99.0858V54.5236H100.861V66.6853H99.1273V65.266H98.9789C98.872 65.46 98.7176 65.6817 98.5157 65.9311C98.3177 66.1805 98.0446 66.3983 97.6962 66.5844C97.3478 66.7704 96.8965 66.8635 96.3422 66.8635ZM96.7342 65.3492C97.2449 65.3492 97.6764 65.2146 98.0287 64.9454C98.385 64.6722 98.6542 64.2941 98.8363 63.8111C99.0224 63.3282 99.1155 62.766 99.1155 62.1247C99.1155 61.4912 99.0244 60.937 98.8423 60.4619C98.6602 59.9869 98.393 59.6167 98.0406 59.3515C97.6883 59.0862 97.2528 58.9536 96.7342 58.9536C96.1997 58.9536 95.7544 59.0921 95.398 59.3693C95.0417 59.6464 94.7725 60.0245 94.5904 60.5035C94.4123 60.9825 94.3232 61.5229 94.3232 62.1247C94.3232 62.7343 94.4143 63.2826 94.5964 63.7696C94.7785 64.2565 95.0477 64.6425 95.404 64.9276C95.7642 65.2086 96.2076 65.3492 96.7342 65.3492ZM106.05 66.8872C105.472 66.8872 104.949 66.7803 104.482 66.5665C104.015 66.3488 103.645 66.0341 103.372 65.6223C103.103 65.2106 102.968 64.7059 102.968 64.1081C102.968 63.5934 103.067 63.1698 103.265 62.8373C103.463 62.5047 103.73 62.2414 104.067 62.0475C104.403 61.8535 104.779 61.707 105.195 61.608C105.611 61.509 106.034 61.4338 106.466 61.3824C107.012 61.319 107.455 61.2676 107.796 61.228C108.136 61.1844 108.384 61.1151 108.538 61.0201C108.693 60.9251 108.77 60.7707 108.77 60.5569V60.5154C108.77 59.9968 108.623 59.5949 108.33 59.3099C108.041 59.0248 107.61 58.8823 107.036 58.8823C106.438 58.8823 105.967 59.0149 105.622 59.2802C105.282 59.5415 105.046 59.8325 104.916 60.1531L103.247 59.7731C103.445 59.2188 103.734 58.7715 104.114 58.431C104.498 58.0866 104.939 57.8372 105.438 57.6828C105.937 57.5244 106.462 57.4452 107.012 57.4452C107.376 57.4452 107.762 57.4888 108.17 57.5759C108.582 57.659 108.966 57.8134 109.322 58.0391C109.682 58.2647 109.977 58.5874 110.207 59.007C110.436 59.4227 110.551 59.9631 110.551 60.6282V66.6853H108.817V65.4383H108.746C108.631 65.6679 108.459 65.8935 108.229 66.1152C108 66.3369 107.705 66.521 107.345 66.6675C106.984 66.814 106.553 66.8872 106.05 66.8872ZM106.436 65.462C106.927 65.462 107.346 65.365 107.695 65.171C108.047 64.977 108.314 64.7237 108.497 64.4109C108.683 64.0942 108.776 63.7557 108.776 63.3955V62.2197C108.712 62.283 108.59 62.3424 108.407 62.3978C108.229 62.4493 108.025 62.4948 107.796 62.5344C107.566 62.57 107.343 62.6037 107.125 62.6354C106.907 62.6631 106.725 62.6868 106.578 62.7066C106.234 62.7502 105.919 62.8234 105.634 62.9263C105.353 63.0293 105.128 63.1777 104.957 63.3717C104.791 63.5617 104.708 63.8151 104.708 64.1318C104.708 64.5713 104.87 64.9038 105.195 65.1295C105.519 65.3512 105.933 65.462 106.436 65.462ZM121.184 66.8694C120.301 66.8694 119.541 66.6695 118.903 66.2696C118.27 65.8658 117.783 65.3096 117.443 64.6009C117.102 63.8923 116.932 63.0807 116.932 62.1662C116.932 61.2398 117.106 60.4223 117.455 59.7137C117.803 59.0011 118.294 58.4449 118.927 58.045C119.561 57.6452 120.307 57.4452 121.166 57.4452C121.859 57.4452 122.476 57.5739 123.019 57.8312C123.561 58.0846 123.999 58.4409 124.331 58.9001C124.668 59.3594 124.868 59.8958 124.931 60.5094H123.203C123.108 60.0819 122.89 59.7137 122.55 59.4049C122.213 59.0961 121.762 58.9417 121.196 58.9417C120.701 58.9417 120.267 59.0723 119.895 59.3336C119.527 59.591 119.24 59.9591 119.034 60.4382C118.828 60.9132 118.725 61.4754 118.725 62.1247C118.725 62.7898 118.826 63.3638 119.028 63.8468C119.23 64.3298 119.515 64.7039 119.883 64.9691C120.255 65.2344 120.693 65.367 121.196 65.367C121.532 65.367 121.837 65.3056 122.11 65.1829C122.387 65.0562 122.619 64.8761 122.805 64.6425C122.995 64.4089 123.128 64.1279 123.203 63.7993H124.931C124.868 64.3891 124.676 64.9157 124.355 65.3789C124.034 65.8421 123.605 66.2063 123.066 66.4715C122.532 66.7368 121.904 66.8694 121.184 66.8694ZM130.672 66.8694C129.817 66.8694 129.07 66.6734 128.433 66.2815C127.796 65.8896 127.301 65.3413 126.948 64.6366C126.596 63.9319 126.42 63.1084 126.42 62.1662C126.42 61.22 126.596 60.3926 126.948 59.684C127.301 58.9754 127.796 58.4251 128.433 58.0331C129.07 57.6412 129.817 57.4452 130.672 57.4452C131.527 57.4452 132.273 57.6412 132.911 58.0331C133.548 58.4251 134.043 58.9754 134.395 59.684C134.747 60.3926 134.924 61.22 134.924 62.1662C134.924 63.1084 134.747 63.9319 134.395 64.6366C134.043 65.3413 133.548 65.8896 132.911 66.2815C132.273 66.6734 131.527 66.8694 130.672 66.8694ZM130.678 65.3789C131.232 65.3789 131.691 65.2324 132.055 64.9394C132.42 64.6465 132.689 64.2565 132.863 63.7696C133.041 63.2826 133.13 62.7462 133.13 62.1603C133.13 61.5783 133.041 61.0439 132.863 60.5569C132.689 60.066 132.42 59.6721 132.055 59.3752C131.691 59.0783 131.232 58.9298 130.678 58.9298C130.12 58.9298 129.656 59.0783 129.288 59.3752C128.924 59.6721 128.653 60.066 128.475 60.5569C128.3 61.0439 128.213 61.5783 128.213 62.1603C128.213 62.7462 128.3 63.2826 128.475 63.7696C128.653 64.2565 128.924 64.6465 129.288 64.9394C129.656 65.2324 130.12 65.3789 130.678 65.3789ZM137.048 66.6853V54.5236H138.824V59.0427H138.931C139.033 58.8526 139.182 58.6329 139.376 58.3835C139.57 58.1341 139.839 57.9164 140.184 57.7303C140.528 57.5403 140.983 57.4452 141.549 57.4452C142.286 57.4452 142.943 57.6313 143.521 58.0034C144.099 58.3756 144.552 58.912 144.881 59.6127C145.213 60.3135 145.38 61.1567 145.38 62.1425C145.38 63.1282 145.215 63.9735 144.887 64.6781C144.558 65.3789 144.107 65.9193 143.533 66.2993C142.959 66.6754 142.304 66.8635 141.567 66.8635C141.013 66.8635 140.56 66.7704 140.207 66.5844C139.859 66.3983 139.586 66.1805 139.388 65.9311C139.19 65.6817 139.037 65.46 138.931 65.266H138.782V66.6853H137.048ZM138.788 62.1247C138.788 62.766 138.881 63.3282 139.067 63.8111C139.253 64.2941 139.522 64.6722 139.875 64.9454C140.227 65.2146 140.659 65.3492 141.169 65.3492C141.7 65.3492 142.143 65.2086 142.499 64.9276C142.856 64.6425 143.125 64.2565 143.307 63.7696C143.493 63.2826 143.586 62.7343 143.586 62.1247C143.586 61.5229 143.495 60.9825 143.313 60.5035C143.135 60.0245 142.866 59.6464 142.505 59.3693C142.149 59.0921 141.704 58.9536 141.169 58.9536C140.655 58.9536 140.219 59.0862 139.863 59.3515C139.511 59.6167 139.243 59.9869 139.061 60.4619C138.879 60.937 138.788 61.4912 138.788 62.1247ZM151.305 66.8694C150.406 66.8694 149.632 66.6774 148.983 66.2934C148.337 65.9054 147.839 65.3611 147.486 64.6603C147.138 63.9556 146.964 63.1302 146.964 62.184C146.964 61.2497 147.138 60.4263 147.486 59.7137C147.839 59.0011 148.329 58.4449 148.959 58.045C149.592 57.6452 150.333 57.4452 151.18 57.4452C151.695 57.4452 152.193 57.5304 152.676 57.7006C153.159 57.8708 153.593 58.138 153.977 58.5023C154.361 58.8665 154.664 59.3396 154.885 59.9215C155.107 60.4995 155.218 61.2022 155.218 62.0296V62.6591H147.967V61.3289H153.478C153.478 60.8618 153.383 60.4481 153.193 60.0878C153.003 59.7236 152.736 59.4366 152.391 59.2267C152.051 59.0169 151.651 58.912 151.192 58.912C150.693 58.912 150.257 59.0347 149.885 59.2802C149.517 59.5217 149.232 59.8384 149.03 60.2303C148.832 60.6183 148.733 61.0399 148.733 61.4952V62.5344C148.733 63.1441 148.84 63.6627 149.054 64.0902C149.272 64.5178 149.575 64.8444 149.963 65.0701C150.35 65.2918 150.804 65.4026 151.322 65.4026C151.659 65.4026 151.966 65.3551 152.243 65.2601C152.52 65.1611 152.759 65.0146 152.961 64.8207C153.163 64.6267 153.318 64.3872 153.425 64.1021L155.105 64.405C154.971 64.8998 154.729 65.3333 154.381 65.7055C154.036 66.0737 153.603 66.3607 153.08 66.5665C152.562 66.7684 151.97 66.8694 151.305 66.8694ZM157.188 66.6853V57.564H158.904V59.013H158.999C159.165 58.5221 159.458 58.1361 159.878 57.855C160.302 57.5699 160.781 57.4274 161.315 57.4274C161.426 57.4274 161.557 57.4314 161.707 57.4393C161.861 57.4472 161.982 57.4571 162.069 57.469V59.1674C161.998 59.1476 161.871 59.1258 161.689 59.102C161.507 59.0743 161.325 59.0605 161.143 59.0605C160.723 59.0605 160.349 59.1495 160.021 59.3277C159.696 59.5019 159.439 59.7454 159.249 60.0581C159.059 60.3669 158.964 60.7192 158.964 61.1151V66.6853H157.188ZM168.403 57.564V58.9892H163.42V57.564H168.403ZM164.756 55.3787H166.532V64.0071C166.532 64.3515 166.583 64.6108 166.686 64.785C166.789 64.9553 166.922 65.0721 167.084 65.1354C167.251 65.1948 167.431 65.2245 167.625 65.2245C167.767 65.2245 167.892 65.2146 167.999 65.1948C168.106 65.175 168.189 65.1591 168.248 65.1473L168.569 66.614C168.466 66.6536 168.319 66.6932 168.129 66.7328C167.939 66.7764 167.702 66.8001 167.417 66.8041C166.95 66.812 166.514 66.7289 166.11 66.5547C165.707 66.3805 165.38 66.1113 165.131 65.747C164.881 65.3828 164.756 64.9256 164.756 64.3753V55.3787ZM176.145 62.9026V57.564H177.926V66.6853H176.18V65.1057H176.085C175.875 65.5926 175.539 65.9984 175.076 66.3231C174.617 66.6437 174.044 66.8041 173.36 66.8041C172.774 66.8041 172.255 66.6754 171.804 66.4181C171.356 66.1568 171.004 65.7708 170.747 65.2601C170.493 64.7494 170.367 64.118 170.367 63.3658V57.564H172.142V63.152C172.142 63.7735 172.314 64.2684 172.659 64.6366C173.003 65.0048 173.451 65.1888 174.001 65.1888C174.333 65.1888 174.664 65.1057 174.993 64.9394C175.325 64.7732 175.6 64.5218 175.818 64.1853C176.04 63.8488 176.149 63.4212 176.145 62.9026ZM180.312 66.6853V57.564H182.028V59.013H182.123C182.289 58.5221 182.582 58.1361 183.002 57.855C183.426 57.5699 183.905 57.4274 184.439 57.4274C184.55 57.4274 184.681 57.4314 184.831 57.4393C184.985 57.4472 185.106 57.4571 185.193 57.469V59.1674C185.122 59.1476 184.995 59.1258 184.813 59.102C184.631 59.0743 184.449 59.0605 184.267 59.0605C183.847 59.0605 183.473 59.1495 183.144 59.3277C182.82 59.5019 182.563 59.7454 182.372 60.0581C182.182 60.3669 182.087 60.7192 182.087 61.1151V66.6853H180.312ZM189.303 66.8872C188.725 66.8872 188.202 66.7803 187.735 66.5665C187.268 66.3488 186.898 66.0341 186.624 65.6223C186.355 65.2106 186.221 64.7059 186.221 64.1081C186.221 63.5934 186.32 63.1698 186.517 62.8373C186.715 62.5047 186.983 62.2414 187.319 62.0475C187.656 61.8535 188.032 61.707 188.447 61.608C188.863 61.509 189.287 61.4338 189.718 61.3824C190.265 61.319 190.708 61.2676 191.048 61.228C191.389 61.1844 191.636 61.1151 191.791 61.0201C191.945 60.9251 192.022 60.7707 192.022 60.5569V60.5154C192.022 59.9968 191.876 59.5949 191.583 59.3099C191.294 59.0248 190.862 58.8823 190.288 58.8823C189.691 58.8823 189.219 59.0149 188.875 59.2802C188.535 59.5415 188.299 59.8325 188.168 60.1531L186.5 59.7731C186.698 59.2188 186.987 58.7715 187.367 58.431C187.751 58.0866 188.192 57.8372 188.691 57.6828C189.19 57.5244 189.714 57.4452 190.265 57.4452C190.629 57.4452 191.015 57.4888 191.423 57.5759C191.834 57.659 192.218 57.8134 192.575 58.0391C192.935 58.2647 193.23 58.5874 193.459 59.007C193.689 59.4227 193.804 59.9631 193.804 60.6282V66.6853H192.07V65.4383H191.999C191.884 65.6679 191.712 65.8935 191.482 66.1152C191.252 66.3369 190.957 66.521 190.597 66.6675C190.237 66.814 189.805 66.8872 189.303 66.8872ZM189.689 65.462C190.179 65.462 190.599 65.365 190.947 65.171C191.3 64.977 191.567 64.7237 191.749 64.4109C191.935 64.0942 192.028 63.7557 192.028 63.3955V62.2197C191.965 62.283 191.842 62.3424 191.66 62.3978C191.482 62.4493 191.278 62.4948 191.048 62.5344C190.819 62.57 190.595 62.6037 190.377 62.6354C190.16 62.6631 189.978 62.6868 189.831 62.7066C189.487 62.7502 189.172 62.8234 188.887 62.9263C188.606 63.0293 188.38 63.1777 188.21 63.3717C188.044 63.5617 187.96 63.8151 187.96 64.1318C187.96 64.5713 188.123 64.9038 188.447 65.1295C188.772 65.3512 189.186 65.462 189.689 65.462ZM208.397 57.564L205.09 66.6853H203.189L199.876 57.564H201.782L204.092 64.5831H204.187L206.491 57.564H208.397ZM213.687 66.8694C212.788 66.8694 212.014 66.6774 211.365 66.2934C210.72 65.9054 210.221 65.3611 209.868 64.6603C209.52 63.9556 209.346 63.1302 209.346 62.184C209.346 61.2497 209.52 60.4263 209.868 59.7137C210.221 59.0011 210.712 58.4449 211.341 58.045C211.975 57.6452 212.715 57.4452 213.562 57.4452C214.077 57.4452 214.576 57.5304 215.059 57.7006C215.542 57.8708 215.975 58.138 216.359 58.5023C216.743 58.8665 217.046 59.3396 217.268 59.9215C217.489 60.4995 217.6 61.2022 217.6 62.0296V62.6591H210.349V61.3289H215.86C215.86 60.8618 215.765 60.4481 215.575 60.0878C215.385 59.7236 215.118 59.4366 214.774 59.2267C214.433 59.0169 214.033 58.912 213.574 58.912C213.075 58.912 212.64 59.0347 212.268 59.2802C211.899 59.5217 211.614 59.8384 211.412 60.2303C211.215 60.6183 211.116 61.0399 211.116 61.4952V62.5344C211.116 63.1441 211.222 63.6627 211.436 64.0902C211.654 64.5178 211.957 64.8444 212.345 65.0701C212.733 65.2918 213.186 65.4026 213.705 65.4026C214.041 65.4026 214.348 65.3551 214.625 65.2601C214.902 65.1611 215.142 65.0146 215.344 64.8207C215.546 64.6267 215.7 64.3872 215.807 64.1021L217.487 64.405C217.353 64.8998 217.111 65.3333 216.763 65.7055C216.418 66.0737 215.985 66.3607 215.462 66.5665C214.944 66.7684 214.352 66.8694 213.687 66.8694ZM223.395 70.2958C222.67 70.2958 222.047 70.2008 221.524 70.0108C221.005 69.8207 220.582 69.5694 220.253 69.2566C219.925 68.9439 219.679 68.6014 219.517 68.2293L221.043 67.5998C221.15 67.774 221.292 67.9581 221.471 68.1521C221.653 68.35 221.898 68.5183 222.207 68.6568C222.52 68.7954 222.921 68.8647 223.412 68.8647C224.085 68.8647 224.642 68.7004 225.081 68.3718C225.52 68.0472 225.74 67.5285 225.74 66.8159V65.0226H225.627C225.52 65.2166 225.366 65.4323 225.164 65.6698C224.966 65.9074 224.693 66.1132 224.345 66.2874C223.996 66.4616 223.543 66.5487 222.985 66.5487C222.264 66.5487 221.615 66.3805 221.037 66.044C220.463 65.7035 220.008 65.2027 219.671 64.5416C219.339 63.8765 219.172 63.059 219.172 62.089C219.172 61.1191 219.337 60.2877 219.665 59.5949C219.998 58.9021 220.453 58.3716 221.031 58.0034C221.609 57.6313 222.264 57.4452 222.997 57.4452C223.563 57.4452 224.02 57.5403 224.368 57.7303C224.717 57.9164 224.988 58.1341 225.182 58.3835C225.38 58.6329 225.532 58.8526 225.639 59.0427H225.77V57.564H227.51V66.8872C227.51 67.6711 227.328 68.3144 226.963 68.8172C226.599 69.3199 226.106 69.6921 225.485 69.9336C224.867 70.1751 224.17 70.2958 223.395 70.2958ZM223.377 65.076C223.887 65.076 224.319 64.9572 224.671 64.7197C225.028 64.4782 225.297 64.1338 225.479 63.6864C225.665 63.2351 225.758 62.6947 225.758 62.0653C225.758 61.4516 225.667 60.9113 225.485 60.4441C225.303 59.977 225.036 59.6127 224.683 59.3515C224.331 59.0862 223.895 58.9536 223.377 58.9536C222.842 58.9536 222.397 59.0921 222.041 59.3693C221.684 59.6424 221.415 60.0146 221.233 60.4857C221.055 60.9568 220.966 61.4833 220.966 62.0653C220.966 62.6631 221.057 63.1876 221.239 63.6389C221.421 64.0902 221.69 64.4426 222.047 64.696C222.407 64.9493 222.85 65.076 223.377 65.076ZM233.822 66.8694C232.924 66.8694 232.15 66.6774 231.5 66.2934C230.855 65.9054 230.356 65.3611 230.004 64.6603C229.656 63.9556 229.481 63.1302 229.481 62.184C229.481 61.2497 229.656 60.4263 230.004 59.7137C230.356 59.0011 230.847 58.4449 231.477 58.045C232.11 57.6452 232.85 57.4452 233.698 57.4452C234.212 57.4452 234.711 57.5304 235.194 57.7006C235.677 57.8708 236.111 58.138 236.495 58.5023C236.879 58.8665 237.181 59.3396 237.403 59.9215C237.625 60.4995 237.736 61.2022 237.736 62.0296V62.6591H230.485V61.3289H235.996C235.996 60.8618 235.901 60.4481 235.711 60.0878C235.521 59.7236 235.253 59.4366 234.909 59.2267C234.569 59.0169 234.169 58.912 233.709 58.912C233.211 58.912 232.775 59.0347 232.403 59.2802C232.035 59.5217 231.75 59.8384 231.548 60.2303C231.35 60.6183 231.251 61.0399 231.251 61.4952V62.5344C231.251 63.1441 231.358 63.6627 231.572 64.0902C231.789 64.5178 232.092 64.8444 232.48 65.0701C232.868 65.2918 233.321 65.4026 233.84 65.4026C234.177 65.4026 234.483 65.3551 234.761 65.2601C235.038 65.1611 235.277 65.0146 235.479 64.8207C235.681 64.6267 235.835 64.3872 235.942 64.1021L237.623 64.405C237.488 64.8998 237.247 65.3333 236.898 65.7055C236.554 66.0737 236.12 66.3607 235.598 66.5665C235.079 66.7684 234.487 66.8694 233.822 66.8694ZM243.963 57.564V58.9892H238.981V57.564H243.963ZM240.317 55.3787H242.093V64.0071C242.093 64.3515 242.144 64.6108 242.247 64.785C242.35 64.9553 242.483 65.0721 242.645 65.1354C242.811 65.1948 242.992 65.2245 243.186 65.2245C243.328 65.2245 243.453 65.2146 243.56 65.1948C243.667 65.175 243.75 65.1591 243.809 65.1473L244.13 66.614C244.027 66.6536 243.88 66.6932 243.69 66.7328C243.5 66.7764 243.263 66.8001 242.978 66.8041C242.511 66.812 242.075 66.7289 241.671 66.5547C241.267 66.3805 240.941 66.1113 240.691 65.747C240.442 65.3828 240.317 64.9256 240.317 64.3753V55.3787ZM248.582 66.8872C248.004 66.8872 247.481 66.7803 247.014 66.5665C246.547 66.3488 246.177 66.0341 245.904 65.6223C245.635 65.2106 245.5 64.7059 245.5 64.1081C245.5 63.5934 245.599 63.1698 245.797 62.8373C245.995 62.5047 246.262 62.2414 246.599 62.0475C246.935 61.8535 247.311 61.707 247.727 61.608C248.143 61.509 248.566 61.4338 248.998 61.3824C249.544 61.319 249.987 61.2676 250.328 61.228C250.668 61.1844 250.916 61.1151 251.07 61.0201C251.225 60.9251 251.302 60.7707 251.302 60.5569V60.5154C251.302 59.9968 251.155 59.5949 250.862 59.3099C250.573 59.0248 250.142 58.8823 249.568 58.8823C248.97 58.8823 248.499 59.0149 248.154 59.2802C247.814 59.5415 247.578 59.8325 247.448 60.1531L245.779 59.7731C245.977 59.2188 246.266 58.7715 246.646 58.431C247.03 58.0866 247.472 57.8372 247.97 57.6828C248.469 57.5244 248.994 57.4452 249.544 57.4452C249.908 57.4452 250.294 57.4888 250.702 57.5759C251.114 57.659 251.498 57.8134 251.854 58.0391C252.214 58.2647 252.509 58.5874 252.739 59.007C252.968 59.4227 253.083 59.9631 253.083 60.6282V66.6853H251.349V65.4383H251.278C251.163 65.6679 250.991 65.8935 250.761 66.1152C250.532 66.3369 250.237 66.521 249.877 66.6675C249.516 66.814 249.085 66.8872 248.582 66.8872ZM248.968 65.462C249.459 65.462 249.879 65.365 250.227 65.171C250.579 64.977 250.847 64.7237 251.029 64.4109C251.215 64.0942 251.308 63.7557 251.308 63.3955V62.2197C251.244 62.283 251.122 62.3424 250.94 62.3978C250.761 62.4493 250.558 62.4948 250.328 62.5344C250.098 62.57 249.875 62.6037 249.657 62.6354C249.439 62.6631 249.257 62.6868 249.111 62.7066C248.766 62.7502 248.451 62.8234 248.166 62.9263C247.885 63.0293 247.66 63.1777 247.489 63.3717C247.323 63.5617 247.24 63.8151 247.24 64.1318C247.24 64.5713 247.402 64.9038 247.727 65.1295C248.052 65.3512 248.465 65.462 248.968 65.462ZM257.224 54.5236V66.6853H255.448V54.5236H257.224Z" fill="#212529"/>
</g>
<g filter="url(#filter0_d_1146_25965)">
<path d="M109.282 126.963V122.574L120.57 111.913C121.462 111.105 122.117 110.38 122.535 109.739C122.953 109.098 123.231 108.513 123.371 107.983C123.538 107.454 123.622 106.966 123.622 106.52C123.622 105.349 123.217 104.458 122.409 103.844C121.629 103.203 120.472 102.883 118.939 102.883C117.713 102.883 116.57 103.12 115.511 103.594C114.48 104.067 113.602 104.806 112.877 105.809L107.944 102.632C109.059 100.96 110.62 99.636 112.627 98.6605C114.633 97.6851 116.947 97.1973 119.566 97.1973C121.74 97.1973 123.635 97.5596 125.252 98.2843C126.896 98.981 128.164 99.9704 129.056 101.252C129.976 102.535 130.436 104.067 130.436 105.851C130.436 106.799 130.311 107.746 130.06 108.694C129.837 109.614 129.363 110.589 128.638 111.62C127.942 112.652 126.91 113.808 125.545 115.09L116.18 123.911L114.884 121.445H131.397V126.963H109.282ZM146.734 127.465C144.337 127.465 142.191 126.88 140.296 125.709C138.4 124.511 136.909 122.783 135.822 120.525C134.735 118.268 134.192 115.536 134.192 112.331C134.192 109.126 134.735 106.395 135.822 104.137C136.909 101.88 138.4 100.166 140.296 98.995C142.191 97.7965 144.337 97.1973 146.734 97.1973C149.158 97.1973 151.304 97.7965 153.172 98.995C155.067 100.166 156.558 101.88 157.645 104.137C158.732 106.395 159.275 109.126 159.275 112.331C159.275 115.536 158.732 118.268 157.645 120.525C156.558 122.783 155.067 124.511 153.172 125.709C151.304 126.88 149.158 127.465 146.734 127.465ZM146.734 121.737C147.876 121.737 148.866 121.417 149.702 120.776C150.566 120.135 151.235 119.118 151.709 117.724C152.21 116.33 152.461 114.533 152.461 112.331C152.461 110.129 152.21 108.332 151.709 106.938C151.235 105.545 150.566 104.527 149.702 103.886C148.866 103.245 147.876 102.925 146.734 102.925C145.619 102.925 144.629 103.245 143.765 103.886C142.929 104.527 142.26 105.545 141.759 106.938C141.285 108.332 141.048 110.129 141.048 112.331C141.048 114.533 141.285 116.33 141.759 117.724C142.26 119.118 142.929 120.135 143.765 120.776C144.629 121.417 145.619 121.737 146.734 121.737ZM166.788 126.963L186.772 97.699H191.747L171.763 126.963H166.788ZM169.339 113.502C167.917 113.502 166.663 113.181 165.576 112.54C164.489 111.871 163.625 110.938 162.984 109.739C162.371 108.513 162.064 107.077 162.064 105.433C162.064 103.789 162.371 102.367 162.984 101.169C163.625 99.9704 164.489 99.0368 165.576 98.3679C166.663 97.699 167.917 97.3645 169.339 97.3645C170.76 97.3645 172.014 97.699 173.101 98.3679C174.188 99.0368 175.038 99.9704 175.651 101.169C176.264 102.367 176.571 103.789 176.571 105.433C176.571 107.077 176.264 108.513 175.651 109.739C175.038 110.938 174.188 111.871 173.101 112.54C172.014 113.181 170.76 113.502 169.339 113.502ZM169.339 110.074C170.258 110.074 170.997 109.697 171.554 108.945C172.112 108.164 172.39 106.994 172.39 105.433C172.39 103.872 172.112 102.716 171.554 101.963C170.997 101.183 170.258 100.793 169.339 100.793C168.447 100.793 167.708 101.183 167.123 101.963C166.565 102.716 166.287 103.872 166.287 105.433C166.287 106.966 166.565 108.123 167.123 108.903C167.708 109.683 168.447 110.074 169.339 110.074ZM189.196 127.298C187.803 127.298 186.549 126.977 185.434 126.336C184.347 125.667 183.497 124.733 182.884 123.535C182.271 122.309 181.964 120.873 181.964 119.229C181.964 117.585 182.271 116.163 182.884 114.965C183.497 113.766 184.347 112.833 185.434 112.164C186.549 111.495 187.803 111.16 189.196 111.16C190.646 111.16 191.914 111.495 193.001 112.164C194.088 112.833 194.938 113.766 195.551 114.965C196.164 116.163 196.471 117.585 196.471 119.229C196.471 120.873 196.164 122.309 195.551 123.535C194.938 124.733 194.088 125.667 193.001 126.336C191.914 126.977 190.646 127.298 189.196 127.298ZM189.196 123.869C190.116 123.869 190.855 123.493 191.412 122.741C191.97 121.96 192.248 120.79 192.248 119.229C192.248 117.696 191.97 116.54 191.412 115.759C190.855 114.979 190.116 114.589 189.196 114.589C188.305 114.589 187.566 114.979 186.981 115.759C186.423 116.512 186.145 117.668 186.145 119.229C186.145 120.79 186.423 121.96 186.981 122.741C187.566 123.493 188.305 123.869 189.196 123.869Z" fill="#198754"/>
</g>
</g>
<defs>
<filter id="filter0_d_1146_25965" x="97.9443" y="91.1973" width="108.526" height="50.2676" filterUnits="userSpaceOnUse" color-interpolation-filters="sRGB">
<feFlood flood-opacity="0" result="BackgroundImageFix"/>
<feColorMatrix in="SourceAlpha" type="matrix" values="0 0 0 0 0 0 0 0 0 0 0 0 0 0 0 0 0 0 127 0" result="hardAlpha"/>
<feOffset dy="4"/>
<feGaussianBlur stdDeviation="5"/>
<feComposite in2="hardAlpha" operator="out"/>
<feColorMatrix type="matrix" values="0 0 0 0 0 0 0 0 0 0 0 0 0 0 0 0 0 0 0.17 0"/>
<feBlend mode="normal" in2="BackgroundImageFix" result="effect1_dropShadow_1146_25965"/>
<feBlend mode="normal" in="SourceGraphic" in2="effect1_dropShadow_1146_25965" result="shape"/>
</filter>
<clipPath id="clip0_1146_25965">
<rect x="13.25" y="25.6018" width="279" height="136" rx="16.7224" fill="white"/>
</clipPath>
<clipPath id="clip1_1146_25965">
<rect width="228.833" height="20" fill="white" transform="translate(38.3336 50.6853)"/>
</clipPath>
</defs>
</svg>
