<svg width="128" height="136" viewBox="0 0 128 136" fill="none" xmlns="http://www.w3.org/2000/svg">
<g filter="url(#filter0_d_776_17975)">
<rect width="128" height="128" rx="64" fill="url(#paint0_radial_776_17975)" shape-rendering="crispEdges"/>
<rect x="7" y="7" width="114" height="114" rx="57" stroke="#FFCD39" stroke-width="14" shape-rendering="crispEdges"/>
<path d="M93 71.3403V94.1C93 95.1493 92.1493 96 91.1 96H66.9C65.8507 96 65 95.1493 65 94.1V71.3403C65 70.5842 65.4483 69.9001 66.1416 69.5982L78.2416 64.3302C78.7253 64.1196 79.2747 64.1196 79.7584 64.3302L91.8584 69.5982C92.5517 69.9001 93 70.5842 93 71.3403Z" fill="#FFDA6A"/>
<path d="M61.334 72.2845L78.8339 59.4221C79.1742 59.172 79.6387 59.1765 79.974 59.4333L96.774 72.2957C97.4951 72.8478 97.1046 74 96.1965 74H61.8966C60.979 74 60.5946 72.828 61.334 72.2845Z" fill="#FFDA6A"/>
<path d="M86 60.8889V67.3333V70.1111C86 70.602 86.398 71 86.8889 71H91.1111C91.602 71 92 70.602 92 70.1111V60.8889C92 60.398 91.602 60 91.1111 60H86.8889C86.398 60 86 60.398 86 60.8889Z" fill="#FFDA6A"/>
<path d="M68.65 87.5001V79.9001C68.65 79.3754 69.0754 78.9501 69.6 78.9501H76.25C76.7747 78.9501 77.2 79.3754 77.2 79.9001V87.5001C77.2 88.0247 76.7747 88.4501 76.25 88.4501H69.6C69.0754 88.4501 68.65 88.0247 68.65 87.5001Z" fill="#DDA53A"/>
<path d="M81 87.5001V79.9001C81 79.3754 81.4253 78.9501 81.95 78.9501H88.6C89.1247 78.9501 89.55 79.3754 89.55 79.9001V87.5001C89.55 88.0247 89.1247 88.4501 88.6 88.4501H81.95C81.4253 88.4501 81 88.0247 81 87.5001Z" fill="#DDA53A"/>
<path d="M60.1549 77.55H36.7949C36.2 77.55 35.7514 78.0907 35.8613 78.6754L36.3966 81.5254C36.4809 81.9746 36.8732 82.3 37.3303 82.3H59.6196C60.0766 82.3 60.4689 81.9746 60.5532 81.5254L61.0885 78.6754C61.1984 78.0907 60.7498 77.55 60.1549 77.55Z" fill="#FFDA6A"/>
<path d="M58.245 83.2501H38.6848C38.0932 83.2501 37.6455 83.7849 37.7496 84.3672L39.6171 94.8172C39.6981 95.2702 40.0921 95.6001 40.5523 95.6001H56.1907C56.6447 95.6001 57.0353 95.2788 57.1229 94.8333L59.1772 84.3833C59.2925 83.7963 58.8432 83.2501 58.245 83.2501Z" fill="#FFDA6A"/>
<path d="M50.9204 75H46.0524C45.4894 75 45.0499 74.5131 45.1074 73.9531L47.0664 54.8531C47.1161 54.3685 47.5243 54 48.0114 54H48.4717C48.9497 54 49.3532 54.3551 49.414 54.8292L51.8627 73.9292C51.9355 74.4972 51.4931 75 50.9204 75Z" fill="#FFDA6A"/>
<path d="M45.1852 54.5237L47.0774 56.7314C47.2236 56.9019 47.4369 57 47.6615 57H49.2616C49.4861 57 49.6995 56.9019 49.8456 56.7314L51.7379 54.5237C51.8574 54.3843 51.9231 54.2068 51.9231 54.0231V47.7692C51.9231 47.3444 51.5787 47 51.1538 47C50.729 47 50.3846 47.3444 50.3846 47.7692V51.9231C50.3846 52.2417 50.1263 52.5 49.8077 52.5C49.4891 52.5 49.2308 52.2417 49.2308 51.9231V47.7692C49.2308 47.3444 48.8864 47 48.4615 47C48.0367 47 47.6923 47.3444 47.6923 47.7692V51.9231C47.6923 52.2417 47.434 52.5 47.1154 52.5C46.7968 52.5 46.5385 52.2417 46.5385 51.9231V47.7692C46.5385 47.3444 46.1941 47 45.7692 47C45.3444 47 45 47.3444 45 47.7692V54.0231C45 54.2068 45.0657 54.3843 45.1852 54.5237Z" fill="#FFDA6A"/>
<path d="M60.1237 53.4259C58.2072 51.6502 57.0342 51.019 54.836 50.2859C58.0877 49.2858 58.1461 49.2169 60.9829 50.8466C63.1444 52.0883 63.7073 53.3193 65.0233 56.9575C62.4697 57.3344 61.695 57.7088 59.0294 56.8944C55.6697 55.4765 55.0931 54.4283 54.3292 51.5311C56.5476 52.2262 57.096 52.3527 59.1946 53.7116C60.0735 54.2807 60.2371 54.208 60.4311 54.0122C60.4361 53.7994 60.3762 53.6705 60.1237 53.4259Z" fill="#FFDA6A"/>
<path d="M61.6235 41.6189C59.088 42.4326 57.9407 43.1584 56.19 44.7438C56.9285 41.3559 56.8965 41.2696 59.7628 39.5656C61.9468 38.2672 63.3215 38.3831 67.2108 39.0344C66.268 41.4906 66.213 42.3658 64.1564 44.3257C61.2166 46.6 59.9973 46.5877 57.0423 45.8169C58.7693 44.1945 59.156 43.7707 61.4125 42.5869C62.3576 42.0911 62.3749 41.9094 62.298 41.6391C62.1115 41.5282 61.9671 41.517 61.6235 41.6189Z" fill="#FFDA6A"/>
<path d="M38.0135 39.1953C40.2054 40.6623 41.249 41.4954 43 42.9878C42.6677 39.8307 41.6147 38.4558 38.6783 36.4863C37.203 35.72 36.326 35.4361 34.6891 35.1319C33.2373 34.9494 32.4394 34.9628 31.0323 35.1319C30.9711 35.9086 30.9816 36.3501 31.1985 37.1636C31.5263 38.6199 31.9355 39.4225 33.1932 40.8206C34.1171 41.7985 34.701 42.237 35.8526 42.8523C37.442 43.5435 39.0108 43.8005 39.8419 43.9359C40.6729 44.0714 41.0294 43.9526 41.504 43.9359C40.4725 42.6792 39.9276 41.8238 37.8472 40.1434C37.0171 39.4749 36.5701 39.1651 36.1851 38.6535C36.7164 38.5214 37.1335 38.6456 38.0135 39.1953Z" fill="#FFDA6A"/>
<path d="M35.9641 47.7746C38.8406 48.4415 40.2749 48.9071 42.7267 49.7926C40.8803 46.4611 39.1765 45.4031 35.321 44.5052C33.4911 44.2997 32.4859 44.3665 30.7181 44.7396C29.1921 45.1667 28.4081 45.5266 27.0954 46.3212C27.408 47.2027 27.6306 47.6841 28.2364 48.4857C29.2609 49.947 30.0521 50.6534 31.9699 51.6485C33.3552 52.3253 34.1443 52.5554 35.5809 52.7347C37.4876 52.8081 39.1652 52.4125 40.0536 52.2021C40.942 51.9918 41.2381 51.7068 41.7003 51.4832C40.0745 50.546 39.1236 49.8401 36.2551 48.8902C35.1115 48.5133 34.5198 48.3657 33.8924 47.969C34.3553 47.5939 34.8282 47.5502 35.9641 47.7746Z" fill="#FFDA6A"/>
<path d="M49.9846 33.4697C48.4682 34.7462 47.8149 37.7573 47.1275 43.7707C43.9781 40.4168 43.5601 38.0479 44.3394 33.6986C45.6381 28.2048 48.2354 27.0602 52.1315 25C54.4691 27.7469 56.4053 28.8915 55.7677 35.0721C55.2483 40.1081 53.4369 41.8272 49.4651 44.4574C50.4998 37.0198 50.6527 34.4658 49.9846 33.4697Z" fill="#FFDA6A"/>
<path d="M38.3824 60.4965C37.3556 60.4896 36.9999 60.8018 36.7131 61.1557C36.4768 61.4472 36.1283 61.2437 36.178 60.8718C36.2739 60.1551 36.3671 59.3769 36.6178 58.9813C36.6376 58.95 36.6633 58.9235 36.6921 58.9002C37.5459 58.2078 38.6745 57.3148 41.178 56.7737C41.3266 56.7416 41.4486 56.6347 41.4966 56.4904L41.7314 55.7861C41.8343 55.4775 41.566 55.1746 41.2499 55.2514C39.2818 55.7296 37.1286 56.5962 36.0421 57.7008C35.7565 57.9912 35.0493 57.9721 34.8604 57.6112C34.6875 57.2808 34.4823 56.9454 34.1874 56.522C34.1492 56.4673 34.098 56.4223 34.0389 56.3915C32.8149 55.7524 32.1241 55.5682 30.9635 55.6427C29.8754 55.7193 29.2741 55.8085 28.5198 55.9864C28.2914 56.0403 28.153 56.2737 28.224 56.4973C28.5958 57.6687 29.1441 58.2922 30.3053 59.2023C31.1242 59.705 31.5703 59.7179 32.3632 59.6811C33.1314 59.6036 33.567 59.5476 34.034 59.4409C34.1794 59.4077 34.3326 59.4483 34.4386 59.5533L34.5827 59.6961L34.9285 60.0386C35.0095 60.1189 35.0548 60.2284 35.054 60.3424L35.0525 60.5587C35.0522 60.6052 35.0442 60.6514 35.0289 60.6953L34.9366 60.9601C34.907 61.045 34.8448 61.1147 34.7637 61.1536C34.6467 61.2098 34.5081 61.1933 34.4043 61.1153C33.5348 60.4622 32.9158 60.3505 31.7576 60.599C31.7347 60.6039 31.7114 60.611 31.6896 60.6198C30.0137 61.2961 29.3943 61.9273 28.7277 63.3004C28.7039 63.3495 28.6899 63.4046 28.6867 63.459C28.406 68.3321 29.5657 70.3854 32.2503 71.7515C32.2709 71.762 32.2929 71.771 32.315 71.7778C33.0177 71.9938 33.4249 71.9849 34.0706 71.8116C34.1448 71.7917 34.2118 71.7506 34.2643 71.6944L35.0825 70.8204C35.2652 70.6253 35.5807 70.646 35.7363 70.8633L36.3196 71.6779C36.374 71.7539 36.4522 71.8106 36.5425 71.835C37.3443 72.0522 37.8145 71.9494 38.5941 71.6662C38.6139 71.659 38.6338 71.65 38.6523 71.6398C41.5244 70.0619 42.2587 68.0714 42.1737 63.3839C42.1728 63.3366 42.164 63.2884 42.147 63.2443C41.4992 61.5614 40.1036 60.5081 38.3824 60.4965Z" fill="#FFDA6A"/>
</g>
<g opacity="0.1">
<mask id="mask0_776_17975" style="mask-type:alpha" maskUnits="userSpaceOnUse" x="14" y="14" width="100" height="100">
<rect x="19.4141" y="19.4141" width="89.1719" height="89.1719" rx="44.5859" fill="white"/>
<rect x="19.4141" y="19.4141" width="89.1719" height="89.1719" rx="44.5859" stroke="white" stroke-width="10.8281"/>
</mask>
<g mask="url(#mask0_776_17975)">
<path d="M140.24 125.943L-2.20618 8.53367L163.728 -57.153L140.24 125.943Z" fill="white"/>
</g>
</g>
<g opacity="0.04">
<mask id="mask1_776_17975" style="mask-type:alpha" maskUnits="userSpaceOnUse" x="-1" y="0" width="129" height="128">
<path d="M128 64C128 99.3462 99.3461 128 63.9999 128C28.6537 128 -0.00012207 99.3462 -0.00012207 64C-0.00012207 28.6538 28.6537 0 63.9999 0C99.3461 0 128 28.6538 128 64ZM13.9225 64C13.9225 91.657 36.3429 114.077 63.9999 114.077C91.6569 114.077 114.077 91.657 114.077 64C114.077 36.343 91.6569 13.9226 63.9999 13.9226C36.3429 13.9226 13.9225 36.343 13.9225 64Z" fill="#D9D9D9"/>
</mask>
<g mask="url(#mask1_776_17975)">
<path d="M140.107 126.261L-2.33863 8.85188L163.595 -56.8348L140.107 126.261Z" fill="white"/>
</g>
</g>
<defs>
<filter id="filter0_d_776_17975" x="0" y="0" width="128" height="136" filterUnits="userSpaceOnUse" color-interpolation-filters="sRGB">
<feFlood flood-opacity="0" result="BackgroundImageFix"/>
<feColorMatrix in="SourceAlpha" type="matrix" values="0 0 0 0 0 0 0 0 0 0 0 0 0 0 0 0 0 0 127 0" result="hardAlpha"/>
<feOffset dy="8"/>
<feComposite in2="hardAlpha" operator="out"/>
<feColorMatrix type="matrix" values="0 0 0 0 0.6 0 0 0 0 0.454902 0 0 0 0 0.0156863 0 0 0 1 0"/>
<feBlend mode="normal" in2="BackgroundImageFix" result="effect1_dropShadow_776_17975"/>
<feBlend mode="normal" in="SourceGraphic" in2="effect1_dropShadow_776_17975" result="shape"/>
</filter>
<radialGradient id="paint0_radial_776_17975" cx="0" cy="0" r="1" gradientUnits="userSpaceOnUse" gradientTransform="translate(64 64) rotate(90) scale(64)">
<stop offset="0.721154" stop-color="#DDA53A"/>
<stop offset="1" stop-color="#B5801A"/>
</radialGradient>
</defs>
</svg>
