<svg width="128" height="136" viewBox="0 0 128 136" fill="none" xmlns="http://www.w3.org/2000/svg">
<g filter="url(#filter0_d_776_18005)">
<rect width="128" height="128" rx="64" fill="url(#paint0_radial_776_18005)" shape-rendering="crispEdges"/>
<rect x="7" y="7" width="114" height="114" rx="57" stroke="#3D8BFD" stroke-width="14" shape-rendering="crispEdges"/>
<path d="M55 38.8949C55 33.3928 59.8373 29.0852 64.1701 23C68.5261 28.2572 73.3403 33.3928 73.3403 38.8949C73.3403 44.397 70.2169 49.2943 64.1701 49.2878C58.1234 49.2813 55 44.397 55 38.8949Z" fill="#9EC5FE"/>
<path d="M58.0566 39.5062C58.0566 40.729 58.668 43.1743 59.8907 44.3969C61.1134 45.6196 63.5587 46.2309 64.7814 46.231C66.0041 46.2311 66.0041 44.3969 65.3928 44.3969C64.7814 44.3969 62.9474 44.3969 61.7247 43.1742C60.502 41.9516 59.8907 40.7289 59.8907 39.5062C59.8907 38.2834 58.0566 38.2834 58.0566 39.5062Z" fill="#0A58CA"/>
<path fill-rule="evenodd" clip-rule="evenodd" d="M81.6588 80.5733C81.2915 80.5576 81 80.2552 81 79.8875V58.1635C81 57.9127 81.1368 57.6818 81.3568 57.5614L87.7097 54.0843C87.8108 54.029 87.9241 54 88.0393 54H88.8566C88.9561 54 89.0545 54.0217 89.1449 54.0635L99.5917 58.8984C99.8344 59.0107 99.9897 59.2538 99.9897 59.5213V83.9025C99.9897 84.3806 99.5128 84.7112 99.0639 84.5466C98.3857 84.298 97.8166 84.0979 97.3523 83.9679C96.7972 83.8124 95.9736 83.0668 95.9816 82.4904L96.0939 74.3494C96.0978 74.0706 95.9326 73.8172 95.6761 73.7082L91.3353 71.8634C90.8826 71.6711 90.3805 72.0033 90.3805 72.4951V80.4034C90.3805 81.0388 89.4366 81.4889 88.8323 81.2927C87.4139 80.8323 85.1967 80.7247 81.6588 80.5733ZM90.3805 68.5659C90.3805 68.8447 90.5491 69.0958 90.8072 69.2012L95.383 71.0711C95.8346 71.2556 96.3291 70.9235 96.3291 70.4357V64.4052C96.3291 64.1264 96.1604 63.8753 95.9023 63.7699L91.3265 61.9C90.875 61.7155 90.3805 62.0476 90.3805 62.5354V68.5659Z" fill="#6EA8FE"/>
<path d="M77.1599 92.6112C84.105 86.0197 83.0392 82.9996 73.7814 78.6146C85.6988 78.2826 92.25 79.4519 103.705 83.9237C99.5685 92.7991 95.7124 96.9607 85.8474 102.747C82.7118 102.361 81.0966 101.726 78.6078 99.8508C74.8537 96.2653 74.9248 94.7715 77.1599 92.6112Z" fill="#6EA8FE"/>
<path d="M26.3111 84.4664C30.6651 91.9544 36.15 96.8617 44 102.5C44.5 93.0001 46.9128 90.3581 57 87C59.4786 86.3571 61.5 85.5 60.7501 83.9237C60.0002 82.3473 48 78.4027 40 78.5C40 78.5 39.5 61.5 39 60.5001C38.5 59.5001 37.5 59.5001 37 60.5001C36.5 61.5 36 78.5 36 78.5C30.9667 78.9425 28.7911 80.285 26.3761 83.4234C26.1443 83.7247 26.12 84.1379 26.3111 84.4664Z" fill="#6EA8FE"/>
<path d="M78.1251 105.16C66.5282 108.691 60.0832 108.544 48.6841 104.677C47.5434 97.217 48.7128 93.9857 56.4063 91.1633C70 84 65 81.5 55.5 79C65.5 78.5 67.5 78.5 71.5 80.5C75.5 82.5 78.2699 86.0842 74.264 90.198C65.3175 96.3997 68.5807 99.592 78.1251 105.16Z" fill="#9EC5FE"/>
<path d="M48.5474 59.2422C45.2746 59.9065 43.7466 60.651 41.352 62.38C42.7204 58.2763 42.6918 58.1648 46.4949 56.4406C49.3926 55.1269 51.0937 55.458 55.8635 56.796C54.3629 59.7157 54.1789 60.7943 51.353 62.9463C47.383 65.3683 45.8623 65.1869 42.2747 63.8277C44.6446 62.0497 45.1831 61.5764 48.1564 60.4147C49.4016 59.9281 49.4471 59.7051 49.3868 59.3592C49.1686 59.1962 48.9898 59.1626 48.5474 59.2422Z" fill="#6EA8FE"/>
<path d="M28.5979 58.5937C30.9725 60.5497 32.1031 61.6606 34 63.6504C33.64 59.4409 32.4993 57.6078 29.3182 54.9818C27.7199 53.9599 26.7699 53.5814 24.9965 53.1758C23.4237 52.9325 22.5594 52.9505 21.035 53.1758C20.9687 54.2115 20.9801 54.8001 21.2151 55.8848C21.5701 57.8266 22.0135 58.8966 23.3759 60.7609C24.3769 62.0647 25.0094 62.6493 26.257 63.4698C27.9789 64.3914 29.6784 64.734 30.5787 64.9146C31.479 65.0952 31.8652 64.9368 32.3794 64.9146C31.2619 63.2389 30.6716 62.0984 28.4178 59.8579C27.5186 58.9665 27.0343 58.5535 26.6172 57.8713C27.1927 57.6952 27.6446 57.8608 28.5979 58.5937Z" fill="#6EA8FE"/>
<path d="M40.0462 45.1412C38.2608 46.5189 37.4916 49.7687 36.6823 56.2588C32.9742 52.639 32.482 50.0824 33.3996 45.3882C34.9287 39.4588 37.9868 38.2235 42.574 36C45.3263 38.9647 47.6059 40.2 46.8553 46.8706C46.2436 52.3059 44.111 54.1612 39.4346 57C40.6529 48.9727 40.8329 46.2163 40.0462 45.1412Z" fill="#6EA8FE"/>
</g>
<g opacity="0.1">
<mask id="mask0_776_18005" style="mask-type:alpha" maskUnits="userSpaceOnUse" x="14" y="14" width="100" height="100">
<rect x="19.4141" y="19.4141" width="89.1719" height="89.1719" rx="44.5859" fill="white"/>
<rect x="19.4141" y="19.4141" width="89.1719" height="89.1719" rx="44.5859" stroke="white" stroke-width="10.8281"/>
</mask>
<g mask="url(#mask0_776_18005)">
<path d="M140.24 125.943L-2.20618 8.53364L163.728 -57.153L140.24 125.943Z" fill="white"/>
</g>
</g>
<g opacity="0.04">
<mask id="mask1_776_18005" style="mask-type:alpha" maskUnits="userSpaceOnUse" x="-1" y="0" width="129" height="128">
<path d="M128 64C128 99.3462 99.3461 128 63.9999 128C28.6537 128 -0.00012207 99.3462 -0.00012207 64C-0.00012207 28.6538 28.6537 0 63.9999 0C99.3461 0 128 28.6538 128 64ZM13.9225 64C13.9225 91.657 36.3429 114.077 63.9999 114.077C91.6569 114.077 114.077 91.657 114.077 64C114.077 36.343 91.6569 13.9226 63.9999 13.9226C36.3429 13.9226 13.9225 36.343 13.9225 64Z" fill="#D9D9D9"/>
</mask>
<g mask="url(#mask1_776_18005)">
<path d="M140.24 125.943L-2.20618 8.53364L163.728 -57.153L140.24 125.943Z" fill="white"/>
</g>
</g>
<defs>
<filter id="filter0_d_776_18005" x="0" y="0" width="128" height="136" filterUnits="userSpaceOnUse" color-interpolation-filters="sRGB">
<feFlood flood-opacity="0" result="BackgroundImageFix"/>
<feColorMatrix in="SourceAlpha" type="matrix" values="0 0 0 0 0 0 0 0 0 0 0 0 0 0 0 0 0 0 127 0" result="hardAlpha"/>
<feOffset dy="8"/>
<feComposite in2="hardAlpha" operator="out"/>
<feColorMatrix type="matrix" values="0 0 0 0 0.0313726 0 0 0 0 0.258824 0 0 0 0 0.596078 0 0 0 1 0"/>
<feBlend mode="normal" in2="BackgroundImageFix" result="effect1_dropShadow_776_18005"/>
<feBlend mode="normal" in="SourceGraphic" in2="effect1_dropShadow_776_18005" result="shape"/>
</filter>
<radialGradient id="paint0_radial_776_18005" cx="0" cy="0" r="1" gradientUnits="userSpaceOnUse" gradientTransform="translate(64 64) rotate(90) scale(64)">
<stop offset="0.721154" stop-color="#0A58CA"/>
<stop offset="1" stop-color="#053781"/>
</radialGradient>
</defs>
</svg>
