<svg width="128" height="136" viewBox="0 0 128 136" fill="none" xmlns="http://www.w3.org/2000/svg">
<g filter="url(#filter0_d_776_17927)">
<rect width="128" height="128" rx="64" fill="url(#paint0_radial_776_17927)" shape-rendering="crispEdges"/>
<rect x="7" y="7" width="114" height="114" rx="57" stroke="#FD9843" stroke-width="14" shape-rendering="crispEdges"/>
<path d="M95.1899 90.3287V94H32.7778V90.3287H95.1899Z" fill="#FEB272"/>
<path d="M48.2616 89.1991H44.1177C43.7892 89.1991 43.53 88.9199 43.5544 88.5924L45.5173 62.202C45.569 61.5077 46.5861 61.5035 46.6435 62.1974L48.8245 88.5877C48.8517 88.9169 48.5919 89.1991 48.2616 89.1991Z" fill="#FEB272"/>
<path d="M57.9121 89.1991H56.7824C56.4705 89.1991 56.2176 88.9462 56.2176 88.6343V82.9861C56.2176 82.6742 56.4705 82.4213 56.7824 82.4213H57.3472C57.6592 82.4213 57.9121 82.1684 57.9121 81.8565V75.9259C57.9121 75.614 58.1649 75.3611 58.4769 75.3611H60.1713C60.4833 75.3611 60.7361 75.614 60.7361 75.9259V81.8565C60.7361 82.1684 60.989 82.4213 61.3009 82.4213H76.2685C76.5805 82.4213 76.8334 82.1684 76.8334 81.8565V76.7731C76.8334 76.4612 77.0862 76.2083 77.3982 76.2083H79.0926C79.4045 76.2083 79.6574 76.4612 79.6574 76.7731V82.4213C79.6574 82.7332 79.9103 82.9861 80.2222 82.9861H81.0695C81.3814 82.9861 81.6343 83.239 81.6343 83.5509V85.2454V88.6343C81.6343 88.9462 81.3814 89.1991 81.0695 89.1991H79.9398C79.6279 89.1991 79.375 88.9462 79.375 88.6343V85.8102C79.375 85.4982 79.1221 85.2454 78.8102 85.2454H59.0417C58.7297 85.2454 58.4769 85.4982 58.4769 85.8102V88.6343C58.4769 88.9462 58.224 89.1991 57.9121 89.1991Z" fill="#FEB272"/>
<path d="M81.6343 85.2454H55.6528C54.4051 85.2454 53.3936 84.2339 53.3936 82.9861C53.3936 81.7384 54.4051 80.7269 55.6528 80.7269H81.6343C82.882 80.7269 83.8936 81.7384 83.8936 82.9861C83.8936 84.2339 82.8821 85.2454 81.6343 85.2454Z" fill="#FEB272"/>
<path d="M55.3704 72.537V76.2083C55.3704 77.4561 56.3819 78.4676 57.6296 78.4676H79.9398C81.1876 78.4676 82.1991 77.4561 82.1991 76.2083V72.537C82.1991 71.2893 81.1876 70.2778 79.9398 70.2778H57.6296C56.3819 70.2778 55.3704 71.2893 55.3704 72.537Z" fill="#FEB272"/>
<path d="M91.2362 88.9167H86.7176C86.4057 88.9167 86.1528 88.6638 86.1528 88.3519V77.9402C86.1528 77.7418 86.2569 77.5579 86.4271 77.4558L87.4307 76.8536C87.5185 76.801 87.6189 76.7731 87.7213 76.7731H90.2325C90.3349 76.7731 90.4353 76.801 90.5231 76.8536L91.5268 77.4558C91.6969 77.5579 91.801 77.7418 91.801 77.9402V88.3519C91.801 88.6638 91.5481 88.9167 91.2362 88.9167Z" fill="#FEB272"/>
<path d="M86.4929 54.3151L86.989 55.4728C87.167 55.8881 87.5754 56.1574 88.0273 56.1574H89.644C90.0959 56.1574 90.5043 55.8881 90.6823 55.4728L91.1865 54.2962C91.2195 54.2193 91.2438 54.1391 91.259 54.0569L92.4009 47.8909C92.5295 47.1964 91.9964 46.5556 91.2901 46.5556H86.6149C85.9251 46.5556 85.3963 47.1684 85.4974 47.8507L86.4137 54.0357C86.428 54.1319 86.4546 54.2258 86.4929 54.3151Z" stroke="#FEB272" stroke-width="1.69444"/>
<path d="M87.5648 77.338V56.7222H90.3889V77.338H87.5648Z" fill="#FEB272"/>
<path d="M88.1296 44.5787C88.1296 45.0466 88.509 45.4259 88.9769 45.4259C89.4448 45.4259 89.8241 45.0466 89.8241 44.5787C89.8241 44.1108 89.4448 43.7315 88.9769 43.7315C88.509 43.7315 88.1296 44.1108 88.1296 44.5787Z" stroke="#FEB272" stroke-width="1.69444"/>
<path d="M60.1713 57.2332C55.2667 60.0553 53.2095 62.0711 50.2872 66.1338C50.2871 58.8039 50.1815 58.64 55.3704 53.83C59.3241 50.165 62.236 49.7855 70.6203 49.3796C69.7731 54.8771 70.0555 56.7096 66.6667 61.6835C61.5834 67.7046 59.0417 68.2282 52.5464 67.9663C55.4027 63.838 56.0147 62.7886 60.1713 59.3275C61.9121 57.878 61.8657 57.495 61.5834 56.9714C61.1452 56.8263 60.8398 56.8681 60.1713 57.2332Z" fill="#FEB272"/>
<path d="M35.5732 55.0954C38.565 57.4891 39.9896 58.8485 42.3796 61.2836C41.926 56.1322 40.4888 53.8889 36.4807 50.6752C34.4669 49.4247 33.2699 48.9616 31.0355 48.4652C29.0538 48.1674 27.9647 48.1894 26.0441 48.4652C25.9606 49.7326 25.9749 50.4529 26.271 51.7803C26.7184 54.1566 27.277 55.4661 28.9936 57.7475C30.2548 59.3431 31.0518 60.0585 32.6237 61.0626C34.7932 62.1904 36.9345 62.6096 38.0689 62.8306C39.2032 63.0516 39.6898 62.8578 40.3377 62.8306C38.9297 60.7801 38.1859 59.3843 35.3462 56.6424C34.2132 55.5516 33.603 55.0462 33.0775 54.2113C33.8027 53.9959 34.372 54.1985 35.5732 55.0954Z" fill="#FEB272"/>
<path d="M48.1068 44.572C46.3061 46.1653 45.5302 49.9238 44.7139 57.4298C40.974 53.2435 40.4776 50.2866 41.403 44.8577C42.9452 38.0002 46.0297 36.5716 50.6563 34C53.4323 37.4288 55.7315 38.8574 54.9744 46.5721C54.3575 52.8582 52.2065 55.0039 47.4899 58.287C48.7186 49.0033 48.9002 45.8154 48.1068 44.572Z" fill="#FEB272"/>
</g>
<g opacity="0.1">
<mask id="mask0_776_17927" style="mask-type:alpha" maskUnits="userSpaceOnUse" x="14" y="14" width="100" height="100">
<rect x="19.4141" y="19.4141" width="89.1719" height="89.1719" rx="44.5859" fill="white"/>
<rect x="19.4141" y="19.4141" width="89.1719" height="89.1719" rx="44.5859" stroke="white" stroke-width="10.8281"/>
</mask>
<g mask="url(#mask0_776_17927)">
<path d="M140.24 125.943L-2.20618 8.53365L163.728 -57.153L140.24 125.943Z" fill="white"/>
</g>
</g>
<g opacity="0.04">
<mask id="mask1_776_17927" style="mask-type:alpha" maskUnits="userSpaceOnUse" x="-1" y="0" width="129" height="128">
<path d="M128 64C128 99.3462 99.3461 128 63.9999 128C28.6537 128 -0.00012207 99.3462 -0.00012207 64C-0.00012207 28.6538 28.6537 0 63.9999 0C99.3461 0 128 28.6538 128 64ZM13.9225 64C13.9225 91.657 36.3429 114.077 63.9999 114.077C91.6569 114.077 114.077 91.657 114.077 64C114.077 36.343 91.6569 13.9226 63.9999 13.9226C36.3429 13.9226 13.9225 36.343 13.9225 64Z" fill="#D9D9D9"/>
</mask>
<g mask="url(#mask1_776_17927)">
<path d="M42.4139 146.5H35.0771C34.4956 146.5 34.0368 146.006 34.0799 145.426L37.5552 98.702C37.6467 97.4726 39.4475 97.4652 39.5491 98.6938L43.4105 145.418C43.4587 146 42.9987 146.5 42.4139 146.5Z" fill="#FEB272"/>
<path d="M59.5 146.5H57.5C56.9477 146.5 56.5 146.052 56.5 145.5V135.5C56.5 134.948 56.9477 134.5 57.5 134.5H58.5C59.0523 134.5 59.5 134.052 59.5 133.5V123C59.5 122.448 59.9477 122 60.5 122H63.5C64.0523 122 64.5 122.448 64.5 123V133.5C64.5 134.052 64.9477 134.5 65.5 134.5H92C92.5523 134.5 93 134.052 93 133.5V124.5C93 123.948 93.4477 123.5 94 123.5H97C97.5523 123.5 98 123.948 98 124.5V134.5C98 135.052 98.4477 135.5 99 135.5H100.5C101.052 135.5 101.5 135.948 101.5 136.5V139.5V145.5C101.5 146.052 101.052 146.5 100.5 146.5H98.5C97.9477 146.5 97.5 146.052 97.5 145.5V140.5C97.5 139.948 97.0523 139.5 96.5 139.5H61.5C60.9477 139.5 60.5 139.948 60.5 140.5V145.5C60.5 146.052 60.0523 146.5 59.5 146.5Z" fill="#FEB272"/>
<path d="M55 117V123.5C55 125.709 56.7909 127.5 59 127.5H98.5C100.709 127.5 102.5 125.709 102.5 123.5V117C102.5 114.791 100.709 113 98.5 113H59C56.7909 113 55 114.791 55 117Z" fill="#FEB272"/>
<path d="M118.5 146H110.5C109.948 146 109.5 145.552 109.5 145V126.566C109.5 126.215 109.684 125.889 109.986 125.709L111.762 124.643C111.918 124.549 112.096 124.5 112.277 124.5H116.723C116.904 124.5 117.082 124.549 117.238 124.643L119.014 125.709C119.316 125.889 119.5 126.215 119.5 126.566V145C119.5 145.552 119.052 146 118.5 146Z" fill="#FEB272"/>
<path d="M110.102 84.7383L110.981 86.7878C111.296 87.5232 112.019 88 112.819 88H115.681C116.481 88 117.204 87.5232 117.519 86.7878L118.412 84.7047C118.471 84.5687 118.514 84.4266 118.541 84.281L120.562 73.3642C120.79 72.1346 119.846 71 118.596 71H110.318C109.097 71 108.161 72.085 108.34 73.2931L109.962 84.2435C109.987 84.4138 110.034 84.5801 110.102 84.7383Z" stroke="#FEB272" stroke-width="3"/>
<path d="M112 125.5V89H117V125.5H112Z" fill="#FEB272"/>
<path d="M113 67.5C113 68.3284 113.672 69 114.5 69C115.328 69 116 68.3284 116 67.5C116 66.6716 115.328 66 114.5 66C113.672 66 113 66.6716 113 67.5Z" stroke="#FEB272" stroke-width="3"/>
<path d="M63.5001 89.9046C54.8165 94.9013 51.1744 98.4702 46.0003 105.663C46.0003 92.6856 45.8132 92.3954 55.0002 83.8793C62.0001 77.3906 67.1556 76.7185 82 76C80.5 85.7333 81 88.9777 75.0001 97.7839C66.0001 108.444 61.5002 109.371 50.0003 108.908C55.0574 101.598 56.1409 99.7404 63.5001 93.6126C66.5822 91.0462 66.5001 90.3682 66.0001 89.4411C65.2244 89.1842 64.6836 89.2583 63.5001 89.9046Z" fill="#FEB272"/>
<path d="M19.9492 86.1197C25.2463 90.3577 27.7685 92.7646 32 97.0758C31.1969 87.9553 28.6523 83.9836 21.556 78.2939C17.9905 76.0799 15.8713 75.2598 11.9154 74.3809C8.40681 73.8537 6.47857 73.8927 3.07814 74.3809C2.93023 76.6249 2.95556 77.9002 3.47983 80.2503C4.27184 84.4575 5.26085 86.776 8.30014 90.8152C10.5331 93.6402 11.9441 94.9068 14.7272 96.6846C18.5682 98.6813 22.3594 99.4236 24.3678 99.8149C26.3762 100.206 27.2377 99.863 28.3848 99.8149C25.8919 96.1844 24.5751 93.7132 19.5475 88.8587C17.5414 86.9275 16.4611 86.0326 15.5306 84.5545C16.8146 84.173 17.8226 84.5318 19.9492 86.1197Z" fill="#FEB272"/>
<path d="M42.5825 65.7176C39.3944 68.5386 38.0207 75.193 36.5755 88.4824C29.954 81.0704 29.0751 75.8353 30.7136 66.2235C33.444 54.0824 38.905 51.5529 47.0964 47C52.0113 53.0706 56.0819 55.6 54.7415 69.2588C53.6493 80.3882 49.841 84.1873 41.4903 90C43.6658 73.5632 43.9873 67.919 42.5825 65.7176Z" fill="#FEB272"/>
<path d="M140.24 125.943L-2.20618 8.53366L163.728 -57.153L140.24 125.943Z" fill="white"/>
</g>
</g>
<defs>
<filter id="filter0_d_776_17927" x="0" y="0" width="128" height="136" filterUnits="userSpaceOnUse" color-interpolation-filters="sRGB">
<feFlood flood-opacity="0" result="BackgroundImageFix"/>
<feColorMatrix in="SourceAlpha" type="matrix" values="0 0 0 0 0 0 0 0 0 0 0 0 0 0 0 0 0 0 127 0" result="hardAlpha"/>
<feOffset dy="8"/>
<feComposite in2="hardAlpha" operator="out"/>
<feColorMatrix type="matrix" values="0 0 0 0 0.596078 0 0 0 0 0.298039 0 0 0 0 0.0470588 0 0 0 1 0"/>
<feBlend mode="normal" in2="BackgroundImageFix" result="effect1_dropShadow_776_17927"/>
<feBlend mode="normal" in="SourceGraphic" in2="effect1_dropShadow_776_17927" result="shape"/>
</filter>
<radialGradient id="paint0_radial_776_17927" cx="0" cy="0" r="1" gradientUnits="userSpaceOnUse" gradientTransform="translate(64 64) rotate(90) scale(64)">
<stop offset="0.721154" stop-color="#EA710C"/>
<stop offset="1" stop-color="#B45A0E"/>
</radialGradient>
</defs>
</svg>
