<svg width="128" height="136" viewBox="0 0 128 136" fill="none" xmlns="http://www.w3.org/2000/svg">
<g filter="url(#filter0_d_776_17960)">
<rect width="128" height="128" rx="64" fill="url(#paint0_radial_776_17960)" shape-rendering="crispEdges"/>
<rect x="7" y="7" width="114" height="114" rx="57" stroke="#479F76" stroke-width="14" shape-rendering="crispEdges"/>
<path d="M79.1945 47.0886C73.8879 50.2702 71.6621 52.5427 68.5002 57.1228C68.5002 48.8594 68.3858 48.6746 74.0001 43.252C78.2778 39.1203 81.4284 38.6924 90.5 38.2349C89.5833 44.4325 89.8889 46.4984 86.2223 52.1057C80.7223 58.8936 77.9723 59.4838 70.9446 59.1886C74.0351 54.5345 74.6972 53.3515 79.1945 49.4496C81.078 47.8155 81.0278 47.3838 80.7223 46.7934C80.2483 46.6299 79.9177 46.677 79.1945 47.0886Z" fill="#75B798"/>
<path d="M52.2129 44.8304C55.5609 47.4864 57.1551 48.9948 59.8296 51.6967C59.322 45.9808 57.7137 43.4916 53.2284 39.9259C50.9748 38.5383 49.6354 38.0244 47.135 37.4736C44.9174 37.1432 43.6987 37.1676 41.5494 37.4736C41.4559 38.8799 41.4719 39.6792 41.8033 41.152C42.3039 43.7887 42.929 45.2417 44.85 47.7731C46.2614 49.5436 47.1532 50.3373 48.9123 51.4515C51.34 52.7029 53.7363 53.1681 55.0057 53.4133C56.2751 53.6585 56.8196 53.4434 57.5446 53.4133C55.969 51.138 55.1367 49.5893 51.9589 46.547C50.691 45.3366 50.0082 44.7758 49.42 43.8495C50.2316 43.6104 50.8687 43.8353 52.2129 44.8304Z" fill="#75B798"/>
<path d="M66.1803 33.9123C64.2343 35.7077 63.3958 39.9426 62.5136 48.4003C58.4719 43.6831 57.9354 40.3514 58.9356 34.2343C60.6022 26.5074 63.9355 24.8976 68.9355 22C71.9355 25.8635 74.4202 27.4732 73.6021 36.166C72.9354 43.249 70.6108 45.6668 65.5136 49.3662C66.8415 38.9054 67.0377 35.3133 66.1803 33.9123Z" fill="#75B798"/>
<path d="M63 51.6626V95.2912C63 95.8643 63.4806 96.3202 64.0529 96.2898L69.6287 95.9944C70.1597 95.9662 70.5758 95.5275 70.5758 94.9958V83.3242C70.5758 82.9402 70.7957 82.59 71.1417 82.4233L75.8084 80.1752C76.4724 79.8553 77.2424 80.3391 77.2424 81.0761V94.9442C77.2424 95.4965 77.6901 95.9442 78.2424 95.9442H91.9876C92.5447 95.9442 92.9944 95.4889 92.9875 94.9318L92.7032 71.9585C92.6993 71.6418 92.5456 71.3458 92.289 71.1603L79.6258 62.0096C79.4554 61.8864 79.2504 61.8201 79.0401 61.8201H78.1496C77.9532 61.8201 77.7612 61.8779 77.5974 61.9864L66.6735 69.2225C66.0087 69.6629 65.1212 69.1862 65.1212 68.3888V52.282C65.1212 52.2175 65.115 52.1532 65.1026 52.0899L64.9814 51.4705C64.7489 50.2827 63 50.4522 63 51.6626Z" fill="#75B798"/>
<path fill-rule="evenodd" clip-rule="evenodd" d="M58.6666 96.4697C59.2189 96.4697 59.6666 96.022 59.6666 95.4697V61.0034C59.6666 60.638 59.4673 60.3016 59.1467 60.1262L49.891 55.0603C49.7438 54.9797 49.5787 54.9375 49.4109 54.9375H48.2202C48.0751 54.9375 47.9318 54.9691 47.8001 55.03L32.58 62.074C32.2264 62.2377 32 62.5919 32 62.9816V95.4697C32 96.022 32.4477 96.4697 33 96.4697H36.6667C37.2189 96.4697 37.6667 96.022 37.6667 95.4697V84.575C37.6667 84.1739 37.9064 83.8116 38.2755 83.6547L44.6088 80.9631C45.2684 80.6829 46 81.1669 46 81.8835V95.4697C46 96.022 46.4477 96.4697 47 96.4697H58.6666ZM46 76.1588C46 76.565 45.7543 76.9308 45.3782 77.0845L38.7116 79.8087C38.0538 80.0775 37.3333 79.5937 37.3333 78.883V70.0971C37.3333 69.6909 37.579 69.3251 37.9551 69.1714L44.6217 66.4472C45.2795 66.1784 46 66.6622 46 67.3729V76.1588Z" fill="#75B798"/>
</g>
<g opacity="0.1">
<mask id="mask0_776_17960" style="mask-type:alpha" maskUnits="userSpaceOnUse" x="14" y="14" width="100" height="100">
<rect x="19.4141" y="19.4141" width="89.1719" height="89.1719" rx="44.5859" fill="white"/>
<rect x="19.4141" y="19.4141" width="89.1719" height="89.1719" rx="44.5859" stroke="white" stroke-width="10.8281"/>
</mask>
<g mask="url(#mask0_776_17960)">
<path d="M140.24 125.943L-2.20618 8.53367L163.728 -57.153L140.24 125.943Z" fill="white"/>
</g>
</g>
<g opacity="0.04">
<mask id="mask1_776_17960" style="mask-type:alpha" maskUnits="userSpaceOnUse" x="-1" y="0" width="129" height="128">
<path d="M128 64C128 99.3462 99.3461 128 63.9999 128C28.6537 128 -0.00012207 99.3462 -0.00012207 64C-0.00012207 28.6538 28.6537 0 63.9999 0C99.3461 0 128 28.6538 128 64ZM13.9225 64C13.9225 91.657 36.3429 114.077 63.9999 114.077C91.6569 114.077 114.077 91.657 114.077 64C114.077 36.343 91.6569 13.9226 63.9999 13.9226C36.3429 13.9226 13.9225 36.343 13.9225 64Z" fill="#D9D9D9"/>
</mask>
<g mask="url(#mask1_776_17960)">
<path d="M140.24 125.943L-2.20618 8.53367L163.728 -57.153L140.24 125.943Z" fill="white"/>
</g>
</g>
<defs>
<filter id="filter0_d_776_17960" x="0" y="0" width="128" height="136" filterUnits="userSpaceOnUse" color-interpolation-filters="sRGB">
<feFlood flood-opacity="0" result="BackgroundImageFix"/>
<feColorMatrix in="SourceAlpha" type="matrix" values="0 0 0 0 0 0 0 0 0 0 0 0 0 0 0 0 0 0 127 0" result="hardAlpha"/>
<feOffset dy="8"/>
<feComposite in2="hardAlpha" operator="out"/>
<feColorMatrix type="matrix" values="0 0 0 0 0.0588235 0 0 0 0 0.317647 0 0 0 0 0.196078 0 0 0 1 0"/>
<feBlend mode="normal" in2="BackgroundImageFix" result="effect1_dropShadow_776_17960"/>
<feBlend mode="normal" in="SourceGraphic" in2="effect1_dropShadow_776_17960" result="shape"/>
</filter>
<radialGradient id="paint0_radial_776_17960" cx="0" cy="0" r="1" gradientUnits="userSpaceOnUse" gradientTransform="translate(64 64) rotate(90) scale(64)">
<stop offset="0.721154" stop-color="#146C43"/>
<stop offset="1" stop-color="#0F5132"/>
</radialGradient>
</defs>
</svg>
