<svg width="36" height="36" viewBox="0 0 36 36" fill="none" xmlns="http://www.w3.org/2000/svg">
<rect width="36" height="36" rx="18" fill="white"/>
<g clip-path="url(#clip0_911_21934)">
<rect width="20" height="20" transform="translate(8 8)" fill="white" fill-opacity="0.01"/>
<path d="M18.0662 10.5H18.1774C19.2049 10.5038 24.4112 10.5413 25.8149 10.9188C26.2393 11.034 26.626 11.2585 26.9364 11.57C27.2468 11.8815 27.47 12.269 27.5837 12.6937C27.7099 13.1687 27.7987 13.7975 27.8587 14.4463L27.8712 14.5763L27.8987 14.9012L27.9087 15.0312C27.9899 16.1737 27.9999 17.2437 28.0012 17.4775V17.5713C27.9999 17.8138 27.9887 18.9562 27.8987 20.1462L27.8887 20.2775L27.8774 20.4075C27.8149 21.1225 27.7224 21.8325 27.5837 22.355C27.4703 22.7799 27.2472 23.1676 26.9368 23.4791C26.6264 23.7907 26.2395 24.0151 25.8149 24.13C24.3649 24.52 18.8537 24.5475 18.0899 24.5488H17.9124C17.5262 24.5488 15.9287 24.5413 14.2537 24.4838L14.0412 24.4763L13.9324 24.4713L13.7187 24.4625L13.5049 24.4538C12.1174 24.3925 10.7962 24.2938 10.1874 24.1288C9.76305 24.014 9.37627 23.7897 9.06585 23.4784C8.75542 23.1671 8.53225 22.7797 8.41869 22.355C8.27994 21.8338 8.18744 21.1225 8.12494 20.4075L8.11494 20.2762L8.10494 20.1462C8.04325 19.2992 8.00907 18.4505 8.00244 17.6012V17.4475C8.00494 17.1788 8.01494 16.25 8.08244 15.225L8.09119 15.0963L8.09494 15.0312L8.10494 14.9012L8.13244 14.5763L8.14494 14.4463C8.20494 13.7975 8.29369 13.1675 8.41994 12.6937C8.53331 12.2688 8.75639 11.8811 9.06683 11.5696C9.37727 11.2581 9.76415 11.0336 10.1887 10.9188C10.7974 10.7563 12.1187 10.6562 13.5062 10.5937L13.7187 10.585L13.9337 10.5775L14.0412 10.5738L14.2549 10.565C15.4446 10.5267 16.6347 10.5055 17.8249 10.5013H18.0662V10.5ZM16.0024 14.5125V20.535L21.1987 17.525L16.0024 14.5125Z" fill="#025949"/>
</g>
<defs>
<clipPath id="clip0_911_21934">
<rect width="20" height="20" fill="white" transform="translate(8 8)"/>
</clipPath>
</defs>
</svg>
