<svg width="36" height="36" viewBox="0 0 36 36" fill="none" xmlns="http://www.w3.org/2000/svg">
<rect width="36" height="36" rx="18" fill="white"/>
<g clip-path="url(#clip0_911_21928)">
<rect width="20" height="20" transform="translate(8 8)" fill="white" fill-opacity="0.01"/>
<path d="M8.00244 13.001C8.00244 12.3379 8.26583 11.7021 8.73467 11.2332C9.20352 10.7644 9.8394 10.501 10.5024 10.501H25.5024C26.1655 10.501 26.8014 10.7644 27.2702 11.2332C27.739 11.7021 28.0024 12.3379 28.0024 13.001V23.001C28.0024 23.664 27.739 24.2999 27.2702 24.7687C26.8014 25.2376 26.1655 25.501 25.5024 25.501H10.5024C9.8394 25.501 9.20352 25.2376 8.73467 24.7687C8.26583 24.2999 8.00244 23.664 8.00244 23.001V13.001ZM10.5024 11.751C10.1709 11.751 9.85298 11.8827 9.61856 12.1171C9.38414 12.3515 9.25244 12.6695 9.25244 13.001V13.2722L18.0024 18.5222L26.7524 13.2722V13.001C26.7524 12.6695 26.6207 12.3515 26.3863 12.1171C26.1519 11.8827 25.834 11.751 25.5024 11.751H10.5024ZM26.7524 14.7297L20.8674 18.261L26.7524 21.8822V14.7297ZM26.7099 23.3247L19.6599 18.986L18.0024 19.9797L16.3449 18.986L9.29494 23.3235C9.36597 23.5895 9.52284 23.8246 9.74118 23.9923C9.95952 24.16 10.2271 24.2509 10.5024 24.251H25.5024C25.7776 24.251 26.0451 24.1603 26.2634 23.9928C26.4817 23.8253 26.6387 23.5905 26.7099 23.3247V23.3247ZM9.25244 21.8822L15.1374 18.261L9.25244 14.7297V21.8822Z" fill="#025949"/>
</g>
<defs>
<clipPath id="clip0_911_21928">
<rect width="20" height="20" fill="white" transform="translate(8 8)"/>
</clipPath>
</defs>
</svg>
