<svg width="36" height="36" viewBox="0 0 36 36" fill="none" xmlns="http://www.w3.org/2000/svg">
<rect width="36" height="36" rx="18" fill="white"/>
<g clip-path="url(#clip0_911_21932)">
<rect width="20" height="20" transform="translate(8 8)" fill="white" fill-opacity="0.01"/>
<path d="M8.00244 9.43348C8.00244 8.64223 8.65994 8.00098 9.47119 8.00098H26.5337C27.3449 8.00098 28.0024 8.64223 28.0024 9.43348V26.5685C28.0024 27.3597 27.3449 28.001 26.5337 28.001H9.47119C8.65994 28.001 8.00244 27.3597 8.00244 26.5685V9.43348ZM14.1812 24.7435V15.7122H11.1799V24.7435H14.1812ZM12.6812 14.4785C13.7274 14.4785 14.3787 13.786 14.3787 12.9185C14.3599 12.0322 13.7287 11.3585 12.7012 11.3585C11.6737 11.3585 11.0024 12.0335 11.0024 12.9185C11.0024 13.786 11.6537 14.4785 12.6612 14.4785H12.6812V14.4785ZM18.8162 24.7435V19.6997C18.8162 19.4297 18.8362 19.1597 18.9162 18.9672C19.1324 18.4285 19.6262 17.8697 20.4562 17.8697C21.5424 17.8697 21.9762 18.6972 21.9762 19.9122V24.7435H24.9774V19.5635C24.9774 16.7885 23.4974 15.4985 21.5224 15.4985C19.9299 15.4985 19.2162 16.3735 18.8162 16.9897V17.021H18.7962C18.8028 17.0105 18.8095 17.0001 18.8162 16.9897V15.7122H15.8162C15.8537 16.5597 15.8162 24.7435 15.8162 24.7435H18.8162Z" fill="#025949"/>
</g>
<defs>
<clipPath id="clip0_911_21932">
<rect width="20" height="20" fill="white" transform="translate(8 8)"/>
</clipPath>
</defs>
</svg>
