<svg width="36" height="36" viewBox="0 0 36 36" fill="none" xmlns="http://www.w3.org/2000/svg">
<rect width="36" height="36" rx="18" fill="white"/>
<g clip-path="url(#clip0_911_21930)">
<rect width="20" height="20" transform="translate(8 8)" fill="white" fill-opacity="0.01"/>
<path d="M18.0024 8.00098C15.2887 8.00098 14.9474 8.01348 13.8812 8.06098C12.8149 8.11098 12.0887 8.27848 11.4524 8.52598C10.7851 8.777 10.1806 9.17076 9.68119 9.67973C9.17254 10.1793 8.77883 10.7838 8.52744 11.451C8.27994 12.086 8.11119 12.8135 8.06244 13.876C8.01494 14.9447 8.00244 15.2847 8.00244 18.0022C8.00244 20.7172 8.01494 21.0572 8.06244 22.1235C8.11244 23.1885 8.27994 23.9147 8.52744 24.551C8.78369 25.2085 9.12494 25.766 9.68119 26.3222C10.2362 26.8785 10.7937 27.221 11.4512 27.476C12.0887 27.7235 12.8137 27.8922 13.8787 27.941C14.9462 27.9885 15.2862 28.001 18.0024 28.001C20.7187 28.001 21.0574 27.9885 22.1249 27.941C23.1887 27.891 23.9174 27.7235 24.5537 27.476C25.2206 27.2248 25.8247 26.8311 26.3237 26.3222C26.8799 25.766 27.2212 25.2085 27.4774 24.551C27.7237 23.9147 27.8924 23.1885 27.9424 22.1235C27.9899 21.0572 28.0024 20.7172 28.0024 18.001C28.0024 15.2847 27.9899 14.9447 27.9424 13.8772C27.8924 12.8135 27.7237 12.086 27.4774 11.451C27.2261 10.7838 26.8324 10.1793 26.3237 9.67973C25.8245 9.17057 25.2199 8.77678 24.5524 8.52598C23.9149 8.27848 23.1874 8.10973 22.1237 8.06098C21.0562 8.01348 20.7174 8.00098 17.9999 8.00098H18.0037H18.0024ZM17.1062 9.80348H18.0037C20.6737 9.80348 20.9899 9.81223 22.0437 9.86098C23.0187 9.90473 23.5487 10.0685 23.9012 10.2047C24.3674 10.386 24.7012 10.6035 25.0512 10.9535C25.4012 11.3035 25.6174 11.636 25.7987 12.1035C25.9362 12.4547 26.0987 12.9847 26.1424 13.9597C26.1912 15.0135 26.2012 15.3297 26.2012 17.9985C26.2012 20.6672 26.1912 20.9847 26.1424 22.0385C26.0987 23.0135 25.9349 23.5422 25.7987 23.8947C25.6384 24.3289 25.3825 24.7215 25.0499 25.0435C24.6999 25.3935 24.3674 25.6097 23.8999 25.791C23.5499 25.9285 23.0199 26.091 22.0437 26.136C20.9899 26.1835 20.6737 26.1947 18.0037 26.1947C15.3337 26.1947 15.0162 26.1835 13.9624 26.136C12.9874 26.091 12.4587 25.9285 12.1062 25.791C11.6718 25.6309 11.2788 25.3754 10.9562 25.0435C10.6234 24.721 10.3671 24.328 10.2062 23.8935C10.0699 23.5422 9.90619 23.0122 9.86244 22.0372C9.81494 20.9835 9.80494 20.6672 9.80494 17.996C9.80494 15.326 9.81494 15.011 9.86244 13.9572C9.90744 12.9822 10.0699 12.4522 10.2074 12.0997C10.3887 11.6335 10.6062 11.2997 10.9562 10.9497C11.3062 10.5997 11.6387 10.3835 12.1062 10.2022C12.4587 10.0647 12.9874 9.90223 13.9624 9.85723C14.8849 9.81473 15.2424 9.80223 17.1062 9.80098V9.80348V9.80348ZM23.3412 11.4635C23.1836 11.4635 23.0276 11.4945 22.882 11.5548C22.7364 11.6151 22.6041 11.7035 22.4927 11.8149C22.3812 11.9264 22.2928 12.0587 22.2325 12.2043C22.1722 12.3498 22.1412 12.5059 22.1412 12.6635C22.1412 12.8211 22.1722 12.9771 22.2325 13.1227C22.2928 13.2683 22.3812 13.4006 22.4927 13.512C22.6041 13.6234 22.7364 13.7118 22.882 13.7721C23.0276 13.8324 23.1836 13.8635 23.3412 13.8635C23.6595 13.8635 23.9647 13.737 24.1897 13.512C24.4148 13.287 24.5412 12.9817 24.5412 12.6635C24.5412 12.3452 24.4148 12.04 24.1897 11.8149C23.9647 11.5899 23.6595 11.4635 23.3412 11.4635V11.4635ZM18.0037 12.866C17.3225 12.8553 16.6461 12.9803 16.0137 13.2337C15.3813 13.487 14.8056 13.8636 14.3201 14.3415C13.8347 14.8194 13.4491 15.3892 13.186 16.0176C12.9228 16.6459 12.7873 17.3204 12.7873 18.0016C12.7873 18.6828 12.9228 19.3573 13.186 19.9857C13.4491 20.614 13.8347 21.1838 14.3201 21.6617C14.8056 22.1396 15.3813 22.5162 16.0137 22.7695C16.6461 23.0229 17.3225 23.1479 18.0037 23.1372C19.3519 23.1162 20.6377 22.5659 21.5837 21.605C22.5296 20.6442 23.0598 19.3499 23.0598 18.0016C23.0598 16.6533 22.5296 15.359 21.5837 14.3982C20.6377 13.4373 19.3519 12.887 18.0037 12.866V12.866ZM18.0037 14.6672C18.8879 14.6672 19.7358 15.0185 20.361 15.6437C20.9862 16.2689 21.3374 17.1168 21.3374 18.001C21.3374 18.8851 20.9862 19.7331 20.361 20.3583C19.7358 20.9835 18.8879 21.3347 18.0037 21.3347C17.1195 21.3347 16.2716 20.9835 15.6464 20.3583C15.0212 19.7331 14.6699 18.8851 14.6699 18.001C14.6699 17.1168 15.0212 16.2689 15.6464 15.6437C16.2716 15.0185 17.1195 14.6672 18.0037 14.6672V14.6672Z" fill="#025949"/>
</g>
<defs>
<clipPath id="clip0_911_21930">
<rect width="20" height="20" fill="white" transform="translate(8 8)"/>
</clipPath>
</defs>
</svg>
