<svg width="36" height="36" viewBox="0 0 36 36" fill="none" xmlns="http://www.w3.org/2000/svg">
<rect width="36" height="36" rx="18" fill="white"/>
<g clip-path="url(#clip0_911_21926)">
<rect width="20" height="20" transform="translate(8 8)" fill="white" fill-opacity="0.01"/>
<path d="M25.0037 10.9085C24.0868 9.98313 22.9949 9.24947 21.7916 8.75029C20.5883 8.25112 19.2977 7.99642 17.9949 8.00104C12.5362 8.00104 8.08744 12.4485 8.08244 17.9085C8.08244 19.6573 8.53994 21.3585 9.40369 22.8648L8.00244 28.001L13.2574 26.6235C14.7112 27.4147 16.3399 27.8294 17.9949 27.8298H17.9999C23.4599 27.8298 27.9074 23.3823 27.9124 17.9173C27.9137 16.6148 27.6572 15.325 27.1578 14.1221C26.6583 12.9193 25.9258 11.8271 25.0024 10.9085H25.0037ZM17.9949 26.1523C16.5187 26.1528 15.0696 25.7555 13.7999 25.0023L13.4999 24.8223L10.3824 25.6398L11.2149 22.5985L11.0199 22.2848C10.1947 20.9727 9.75825 19.4536 9.76119 17.9035C9.76119 13.371 13.4574 9.67354 17.9999 9.67354C19.0821 9.6716 20.154 9.88388 21.1537 10.2982C22.1535 10.7124 23.0613 11.3205 23.8249 12.0873C24.5912 12.8511 25.1987 13.7591 25.6123 14.7588C26.026 15.7586 26.2376 16.8303 26.2349 17.9123C26.2299 22.461 22.5337 26.1523 17.9949 26.1523V26.1523ZM22.5137 19.9848C22.2674 19.861 21.0512 19.2623 20.8224 19.1773C20.5949 19.096 20.4287 19.0535 20.2662 19.301C20.0999 19.5473 19.6249 20.1085 19.4824 20.2698C19.3399 20.436 19.1924 20.4548 18.9449 20.3323C18.6987 20.2073 17.8999 19.9473 16.9549 19.101C16.2174 18.4448 15.7237 17.6323 15.5762 17.386C15.4337 17.1385 15.5624 17.006 15.6862 16.8823C15.7949 16.7723 15.9324 16.5923 16.0562 16.4498C16.1812 16.3073 16.2224 16.2023 16.3037 16.0373C16.3849 15.8698 16.3462 15.7273 16.2849 15.6035C16.2224 15.4798 15.7287 14.2585 15.5199 13.766C15.3199 13.2798 15.1162 13.3473 14.9637 13.341C14.8212 13.3323 14.6549 13.3323 14.4887 13.3323C14.3631 13.3354 14.2396 13.3644 14.1258 13.4176C14.012 13.4707 13.9104 13.5468 13.8274 13.641C13.5999 13.8885 12.9637 14.4873 12.9637 15.7085C12.9637 16.9298 13.8512 18.1035 13.9762 18.2698C14.0987 18.436 15.7187 20.9348 18.2049 22.0098C18.7924 22.266 19.2549 22.4173 19.6162 22.5323C20.2099 22.7223 20.7462 22.6935 21.1737 22.6323C21.6487 22.5598 22.6374 22.0323 22.8462 21.4535C23.0512 20.8735 23.0512 20.3785 22.9887 20.2748C22.9274 20.1698 22.7612 20.1085 22.5137 19.9848V19.9848Z" fill="#025949"/>
</g>
<defs>
<clipPath id="clip0_911_21926">
<rect width="20" height="20" fill="white" transform="translate(8 8)"/>
</clipPath>
</defs>
</svg>
