<svg width="323" height="232" viewBox="0 0 323 232" fill="none" xmlns="http://www.w3.org/2000/svg">
<path d="M310 172.934C310 236.693 252.103 231.392 162.592 231.392C73.0807 231.392 11 230.338 11 166.579C11 102.82 73.0807 0.5 162.592 0.5C252.103 0.5 310 109.175 310 172.934Z" fill="#E9ECEF"/>
<path d="M62.0803 176.456L72.9467 196.178L106.481 166.371L119.441 154.852L120.736 153.705L117.527 113.311L100.998 111.626L98.0231 115.301L95.5514 137.712L95.4436 138.671C95.4436 138.671 81.2067 160.688 62.0803 176.456Z" fill="#FF95A1"/>
<path d="M62.0795 176.451L72.946 196.173L106.48 166.366C102.184 155.457 95.4428 138.693 95.4428 138.693C95.4428 138.693 81.2059 160.683 62.0795 176.451Z" fill="#FF95A1"/>
<path d="M95.5515 137.689C102.499 142.638 112.062 149.46 119.441 154.802L120.736 153.655L117.527 113.261L100.998 111.576L98.0232 115.251L95.5515 137.689Z" fill="#FF95A1"/>
<path d="M233.094 174.488L232.196 206.249C254.207 201.408 272.776 197.114 272.776 197.114C281.944 224.169 293.053 220.359 293.053 220.359L289.871 176.012L233.094 174.488Z" fill="#377464"/>
<path d="M233.094 174.488L232.196 206.249C254.207 201.408 272.776 197.114 272.776 197.114C281.944 224.169 293.053 220.359 293.053 220.359L289.871 176.012L233.094 174.488Z" fill="#114C3A"/>
<path d="M261.783 179.49V205.486C283.66 200.314 302.103 195.742 302.103 195.742C311.99 221.299 323 217.382 323 217.382L318.623 179.463L261.783 179.49Z" fill="#377464"/>
<path d="M261.783 179.49V205.486C283.66 200.314 302.103 195.742 302.103 195.742C311.99 221.299 323 217.382 323 217.382L318.623 179.463L261.783 179.49Z" fill="#114C3A"/>
<path d="M242.41 169.303L209.595 172.191L203.804 183.742L244.823 181.817L242.41 169.303Z" fill="#1A9B59"/>
<path d="M173.09 218.262C176.811 217.652 225.93 209.703 230.828 208.771C232.051 196.669 201.391 180.374 201.391 180.374L168.094 99.9947C156.391 160.558 139.529 223.775 173.09 218.262Z" fill="#22A762"/>
<path d="M186.823 217.624C191.227 219.327 196.548 219.65 203.002 218.475C217.077 215.894 240.985 210.408 261.801 205.513V179.517H218.101L186.823 217.624Z" fill="#17C690"/>
<path d="M186.823 217.624C191.227 219.327 196.548 219.65 203.002 218.475C217.077 215.894 240.985 210.408 261.801 205.513V179.517H218.101L186.823 217.624Z" fill="#2CBA7D"/>
<path d="M169.926 155.345C170.735 174.789 182.591 206.944 186.914 217.916L218.101 179.491C221.443 159.746 223.303 139.781 223.665 119.761C224.069 88.1969 215.908 77.6278 215.504 77.3679L169.926 105.265C169.926 105.265 169.234 137.488 169.926 155.345Z" fill="#2CBA7D"/>
<path d="M43.1154 183.371C41.884 178.163 42.7559 169.029 55.9951 165.443C57.0288 175.806 51.3124 182.197 43.1154 183.371Z" fill="#17C690"/>
<path d="M43.1145 183.371C41.8831 178.163 42.755 169.029 55.9942 165.443C57.0279 175.806 51.3115 182.197 43.1145 183.371Z" fill="#2DB174"/>
<path d="M19.6031 199.014C19.9177 200.592 29.9123 198.387 29.9123 198.387C29.9123 198.387 24.7532 204.366 25.6969 206.15C26.6406 207.934 65.0372 203.209 65.0372 203.209L72.9466 196.172L62.0801 176.451C54.6741 182.556 46.54 187.719 38.2171 190.301C28.5371 193.304 19.2885 197.401 19.6031 199.014Z" fill="#FC865A"/>
<path d="M19.6038 199.014C19.9184 200.592 29.913 198.387 29.913 198.387C29.913 198.387 24.7539 204.366 25.6976 206.15C26.6414 207.933 65.0379 203.209 65.0379 203.209L72.9473 196.172L62.0809 176.451C54.6748 182.556 46.5407 187.719 38.2178 190.301C28.5378 193.304 19.2892 197.401 19.6038 199.014Z" fill="#EA5426"/>
<path opacity="0.75" d="M19.6038 199.014C19.9184 200.592 29.913 198.387 29.913 198.387C29.913 198.387 24.7539 204.366 25.6976 206.15C26.6414 207.933 65.0379 203.209 65.0379 203.209L72.9473 196.172L62.0809 176.451C54.6748 182.556 46.5407 187.719 38.2178 190.301C28.5378 193.304 19.2892 197.401 19.6038 199.014Z" fill="#FC865A"/>
<path d="M0.000897691 218.18H94.1497C75.1042 200.87 34.9011 182.942 0.000897691 218.18Z" fill="#EDEDC3"/>
<path d="M-4.83543e-05 218.18H94.1487C75.1033 200.87 34.9002 182.942 -4.83543e-05 218.18Z" fill="#DBDAAF"/>
<path opacity="0.75" d="M-4.83543e-05 218.18H94.1487C75.1033 200.87 34.9002 182.942 -4.83543e-05 218.18Z" fill="#799243"/>
<path d="M98.2207 59.4481C97.6185 59.8246 97.1332 115.252 97.1332 115.252H120.736L118.578 64.0737C118.578 64.0737 105.213 55.0914 98.2207 59.4481Z" fill="#FFDEA4"/>
<path d="M98.2216 59.4481C97.6195 59.8246 97.1341 115.252 97.1341 115.252H120.736L118.579 64.0737C118.579 64.0737 105.214 55.0914 98.2216 59.4481Z" fill="#EDC283"/>
<path opacity="0.75" d="M98.2216 59.4481C97.6195 59.8246 97.1341 115.252 97.1341 115.252H120.736L118.579 64.0737C118.579 64.0737 105.214 55.0914 98.2216 59.4481Z" fill="#D9D36C"/>
<path d="M94.3829 38.642C94.8413 45.8135 121.544 79.4033 122.246 80.5238C122.947 81.6444 167.77 110.384 167.77 110.384C203.173 98.5244 220.924 82.7649 220.924 82.7649C216.928 72.8233 211.539 63.4971 204.917 55.0648C204.108 54.0608 203.299 53.0837 202.472 52.1334C174.663 20.1573 136.186 20.9551 114.606 27.1854C114.615 27.1854 93.9245 31.4884 94.3829 38.642Z" fill="#FFDEA4"/>
<path d="M94.383 38.642C94.8414 45.8136 121.545 79.4033 122.246 80.5239C122.947 81.6444 167.77 110.384 167.77 110.384C203.173 98.5245 220.924 82.765 220.924 82.765C216.928 72.8233 211.539 63.4971 204.917 55.0649C204.108 54.0609 203.299 53.0837 202.472 52.1335C174.663 20.1574 136.186 20.9552 114.606 27.1855C114.615 27.1855 93.9246 31.4884 94.383 38.642Z" fill="#EDC283"/>
<path opacity="0.75" d="M94.383 38.642C94.8414 45.8136 121.545 79.4033 122.246 80.5239C122.947 81.6444 167.77 110.384 167.77 110.384C203.173 98.5245 220.924 82.765 220.924 82.765C216.928 72.8233 211.539 63.4971 204.917 55.0649C204.108 54.0609 203.299 53.0837 202.472 52.1335C174.663 20.1574 136.186 20.9552 114.606 27.1855C114.615 27.1855 93.9246 31.4884 94.383 38.642Z" fill="#FFF983"/>
<path d="M91.3714 46.7278L103.955 67.6508C103.955 67.6508 112.664 78.0675 122.829 88.0628C123.971 84.6384 125.238 80.7837 126.514 76.8752C112.907 65.831 96.3237 42.3801 95.9552 42.3801L91.3714 46.7278Z" fill="#FAEC83"/>
<path d="M87.1663 174.955C90.7615 180.53 96.1543 189.1 100.406 195.904C113.168 189.495 126.471 182.126 135.863 175.286C140.752 171.763 144.581 168.384 146.747 165.425C149.336 161.84 151.053 155.233 152.14 147.586C155.043 128.008 154.1 101.617 154.1 101.617L115.137 103.902V144.664C115.137 144.664 114.463 145.704 113.159 147.497C105.705 157.718 96.9699 166.946 87.1663 174.955Z" fill="#FFC5D4"/>
<mask id="mask0_33_14059" style="mask-type:luminance" maskUnits="userSpaceOnUse" x="87" y="101" width="68" height="95">
<path d="M87.1655 174.955C90.7607 180.531 96.1534 189.101 100.405 195.905C113.168 189.495 126.47 182.126 135.862 175.286C140.752 171.763 144.58 168.384 146.747 165.426C149.335 161.84 151.052 155.233 152.139 147.586C155.042 128.008 154.099 101.617 154.099 101.617L115.136 103.903V144.664C115.136 144.664 114.462 145.704 113.159 147.497C105.704 157.718 96.969 166.946 87.1655 174.955Z" fill="white"/>
</mask>
<g mask="url(#mask0_33_14059)">
<path d="M115.191 103.903V134.382C125.266 138.03 140.977 143.651 152.194 147.622C155.097 128.044 154.153 101.652 154.153 101.652L115.191 103.903Z" fill="#FFC5D4"/>
<path d="M143.297 173.65C137.511 172.413 133.827 166.732 135.067 160.962C136.307 155.192 142.003 151.517 147.788 152.754C153.574 153.991 157.258 159.671 156.018 165.441C154.778 171.212 149.082 174.887 143.297 173.65Z" fill="#E5ABBA"/>
<path d="M87.1664 174.954C90.7615 180.53 96.1543 189.1 100.406 195.904C113.168 189.494 126.471 182.126 135.863 175.286L115.191 147.541L113.213 147.451C105.746 157.692 96.9918 166.935 87.1664 174.954Z" fill="#FFC5D4"/>
</g>
<path d="M92.3875 21.2776C95.3535 20.8831 92.1358 33.6213 91.246 36.7587C90.3562 39.8962 85.9341 37.1621 85.8532 36.7587C85.7723 36.3553 81.4851 22.7477 92.3875 21.2776Z" fill="#17C690"/>
<path d="M92.3883 21.2777C95.3544 20.8833 92.1367 33.6214 91.2469 36.7589C90.3571 39.8963 85.935 37.1623 85.8541 36.7589C85.7732 36.3555 81.486 22.7478 92.3883 21.2777Z" fill="#94AE61"/>
<path d="M55.9503 56.3017C56.3548 56.3734 60.0398 57.4222 64.7855 62.236C66.3997 63.8775 67.8785 65.6462 69.2075 67.5249C69.8952 67.2751 70.5174 66.8736 71.0279 66.3506C71.5383 65.8275 71.9238 65.1963 72.1556 64.5039C72.1592 64.4652 72.1592 64.4261 72.1556 64.3874C72.1556 64.3874 84.7387 66.4581 85.6914 58.5696C85.6957 58.5399 85.6957 58.5097 85.6914 58.48C89.6572 59.6784 93.4744 61.3203 97.0702 63.3744C99.1464 64.5039 101.429 65.8754 103.856 67.5249L105.258 65.983L107.406 63.6523L105.609 61.4113L98.4184 52.2947L90.1315 41.8155L80.9458 42.2279L62.8351 43.0346L55.9503 56.3017Z" fill="#FFC5D4"/>
<path d="M80.955 42.2725C82.492 47.2029 85.5479 57.8882 85.7366 58.5695C85.7409 58.5398 85.7409 58.5096 85.7366 58.4799C89.7024 59.6783 93.5196 61.3202 97.1154 63.3743C99.1916 64.5038 101.475 65.8753 103.901 67.5248L105.303 65.9829C105.481 64.495 105.583 62.999 105.609 61.5008L98.4186 52.3842L90.1317 41.905L80.955 42.2725Z" fill="url(#paint0_linear_33_14059)"/>
<path d="M97.1331 63.5001C99.2093 64.6296 101.492 66.0011 103.919 67.6505L107.406 63.8228L98.4184 52.4651C98.864 56.1931 98.4237 59.9733 97.1331 63.5001Z" fill="#FFDEA4"/>
<path d="M97.1341 63.5002C99.2103 64.6297 101.493 66.0012 103.92 67.6506L107.407 63.8229L98.4194 52.4652C98.865 56.1932 98.4247 59.9734 97.1341 63.5002Z" fill="#FF8D8D"/>
<path d="M159.259 65.7234C159.942 73.2446 159.259 108.475 159.259 108.475H114.04C114.04 108.475 109.744 56.4811 110.778 52.465C111.811 48.449 157.038 41.1788 159.259 65.7234Z" fill="#FFDEA4"/>
<path d="M159.259 65.7234C159.942 73.2446 159.259 108.475 159.259 108.475H114.04C114.04 108.475 109.744 56.4811 110.778 52.465C111.811 48.449 157.038 41.1788 159.259 65.7234Z" fill="#EDC283"/>
<path opacity="0.75" d="M159.259 65.7234C159.942 73.2446 159.259 108.475 159.259 108.475H114.04C114.04 108.475 109.744 56.4811 110.778 52.465C111.811 48.449 157.038 41.1788 159.259 65.7234Z" fill="#EAE478"/>
<path d="M41.9388 213.966C42.8376 214.701 46.4957 213.464 46.4957 213.464C46.4957 213.464 47.736 215.804 52.23 213.966C52.23 213.966 53.8029 215.374 62.2246 212.908C66.2332 211.734 82.798 204.733 100.369 195.876C96.1002 189.073 90.6714 180.503 87.1212 174.927C80.1836 180.639 72.5269 185.422 64.3457 189.153C36.546 201.407 56.7689 198.61 56.7689 198.61C56.7689 198.61 43.6285 206.571 42.2803 208.471C40.9321 210.371 44.743 209.708 44.743 209.708C44.743 209.708 41.1388 213.222 41.9388 213.966Z" fill="#FC865A"/>
<path d="M41.9396 213.966C42.8384 214.701 46.4965 213.464 46.4965 213.464C46.4965 213.464 47.7368 215.804 52.2308 213.966C52.2308 213.966 53.8037 215.374 62.2254 212.909C66.234 211.734 82.7988 204.733 100.37 195.876C96.101 189.073 90.6722 180.503 87.122 174.927C80.1845 180.639 72.5277 185.422 64.3465 189.153C36.5468 201.407 56.7697 198.611 56.7697 198.611C56.7697 198.611 43.6293 206.571 42.2811 208.471C40.9329 210.372 44.7438 209.708 44.7438 209.708C44.7438 209.708 41.1397 213.222 41.9396 213.966Z" fill="#EA5426"/>
<path opacity="0.75" d="M41.9396 213.966C42.8384 214.701 46.4965 213.464 46.4965 213.464C46.4965 213.464 47.7368 215.804 52.2308 213.966C52.2308 213.966 53.8037 215.374 62.2254 212.909C66.234 211.734 82.7988 204.733 100.37 195.876C96.101 189.073 90.6722 180.503 87.122 174.927C80.1845 180.639 72.5277 185.422 64.3465 189.153C36.5468 201.407 56.7697 198.611 56.7697 198.611C56.7697 198.611 43.6293 206.571 42.2811 208.471C40.9329 210.372 44.7438 209.708 44.7438 209.708C44.7438 209.708 41.1397 213.222 41.9396 213.966Z" fill="#FC865A"/>
<path d="M29.9133 198.348L35.9712 195.904" stroke="#EA5426" stroke-width="0.931251" stroke-miterlimit="10"/>
<path d="M56.7684 198.576L63.5364 194.81" stroke="#EA5426" stroke-width="0.931251" stroke-miterlimit="10"/>
<path d="M59.4835 201.363L44.7432 209.685" stroke="#EA5426" stroke-width="0.931251" stroke-miterlimit="10"/>
<path d="M62.0811 204.42L46.5409 213.465" stroke="#EA5426" stroke-width="0.931251" stroke-miterlimit="10"/>
<path d="M52.2745 213.984L63.5364 207.244" stroke="#EA5426" stroke-width="0.931251" stroke-miterlimit="10"/>
<path d="M68.3795 59.493C67.6222 59.3311 67.0853 58.8419 67.1802 58.4003C67.2751 57.9587 67.966 57.732 68.7232 57.8939C69.4805 58.0559 70.0174 58.5451 69.9225 58.9867C69.8276 59.4282 69.1367 59.655 68.3795 59.493Z" fill="#2A4055"/>
<path d="M125.832 12.9857C121.644 9.75855 118.696 14.5723 116.844 17.5933C114.993 20.6142 113.734 23.8682 106.957 23.1152C100.181 22.3622 95.6236 28.8882 93.9429 31.4878C92.2622 34.0874 85.4673 32.7428 85.4673 32.7428L82.3844 44.2976C82.3844 44.2976 86.2492 41.949 92.4599 45.723C98.6706 49.4969 105.304 41.6173 107.569 39.69C109.834 37.7627 114.121 38.9371 120.583 40.945C127.046 42.953 128.304 36.0058 130.659 34.8314C133.014 33.6571 137.211 35.2528 136.708 32.6531C136.204 30.0535 132.681 29.3005 132.681 28.2965C132.681 27.2925 133.688 24.1909 128.484 21.6809C123.28 19.171 129.526 15.8273 125.832 12.9857Z" fill="#2A4055"/>
<path d="M52.0062 48.9592H53.5521C58.543 48.7079 63.5462 48.8788 68.508 49.4702C67.8609 47.0857 68.9754 44.262 73.3346 45.6604C76.2826 46.5568 77.1185 50.6624 77.1185 50.6624C77.1185 50.6624 84.4077 45.5618 85.8818 44.2441C87.3558 42.9263 86.7805 34.1145 87.3558 28.7001C87.5054 27.1418 88.0445 25.6458 88.9238 24.3491C89.8032 23.0524 90.9946 21.9964 92.389 21.2778C85.9626 19.969 80.453 31.2549 65.569 31.2549C53.3903 31.2549 52.0062 48.9592 52.0062 48.9592Z" fill="#17C690"/>
<path d="M52.0055 48.9592H53.5514C58.5422 48.7079 63.5454 48.8788 68.5073 49.4702C67.8602 47.0857 68.9747 44.262 73.3338 45.6604C76.2819 46.5568 77.1178 50.6625 77.1178 50.6625C77.1178 50.6625 84.407 45.5618 85.881 44.2441C87.3551 42.9263 86.7798 34.1145 87.355 28.7001C87.5046 27.1418 88.0438 25.6458 88.9231 24.3491C89.8024 23.0524 90.9939 21.9964 92.3883 21.2778C85.9619 19.969 80.4523 31.2549 65.5683 31.2549C53.3896 31.2549 52.0055 48.9592 52.0055 48.9592Z" fill="#0AA370"/>
<path opacity="0.75" d="M52.0055 48.9592H53.5514C58.5422 48.7079 63.5454 48.8788 68.5073 49.4702C67.8602 47.0857 68.9747 44.262 73.3338 45.6604C76.2819 46.5568 77.1178 50.6625 77.1178 50.6625C77.1178 50.6625 84.407 45.5618 85.881 44.2441C87.3551 42.9263 86.7798 34.1145 87.355 28.7001C87.5046 27.1418 88.0438 25.6458 88.9231 24.3491C89.8024 23.0524 90.9939 21.9964 92.3883 21.2778C85.9619 19.969 80.4523 31.2549 65.5683 31.2549C53.3896 31.2549 52.0055 48.9592 52.0055 48.9592Z" fill="#FFF983"/>
<path d="M58.1168 60.0666C58.6479 58.0307 59.8112 56.2145 61.4401 54.878C63.0691 53.5416 65.0802 52.7534 67.1857 52.6263C68.3181 52.5725 73.2346 53.2449 70.673 52.205C70.1248 51.9576 69.6425 51.5854 69.2647 51.1184C68.887 50.6513 68.6243 50.1024 68.4979 49.5158C63.536 48.9244 58.5328 48.7534 53.542 49.0048C52.005 56.5347 57.6674 62.3345 58.1168 60.0666Z" fill="#2A4055"/>
<path d="M65.3072 55.4769C64.0399 55.9981 62.7726 57.7505 63.6444 59.458" stroke="#2A4055" stroke-width="0.931251" stroke-miterlimit="10"/>
<path d="M77.3513 58.6861C77.9671 59.4498 78.3028 60.4012 78.3028 61.3822C78.3028 62.3631 77.9671 63.3145 77.3513 64.0782" stroke="#2A4055" stroke-width="0.931251" stroke-miterlimit="10"/>
<path d="M74.9323 58.3318C73.4778 58.3318 72.2988 57.1529 72.2988 55.6986C72.2988 54.2444 73.4778 53.0655 74.9323 53.0655C76.3867 53.0655 77.5657 54.2444 77.5657 55.6986C77.5657 57.1529 76.3867 58.3318 74.9323 58.3318Z" fill="#FF8D8D"/>
<path d="M64.7855 62.2358C66.3998 63.8815 67.8786 65.6546 69.2076 67.5381C69.8952 67.2876 70.5175 66.8852 71.0279 66.3608C71.5384 65.8364 71.9239 65.2036 72.1556 64.5095C69.6188 64.0409 67.1454 63.2778 64.7855 62.2358Z" fill="#FF8D8D"/>
<path d="M74.9238 50.4835C75.2204 45.5407 66.547 46.2058 72.2274 51.2474C73.2071 52.1551 74.8519 51.6877 74.9238 50.4835Z" fill="#FF8D8D"/>
<path d="M39.3229 189.014C38.8195 183.69 35.0626 175.281 21.347 176.115C23.7198 186.289 31.1528 190.511 39.3229 189.014Z" fill="#17C690"/>
<path d="M39.3229 189.013C38.8195 183.689 35.0626 175.28 21.347 176.114C23.7198 186.288 31.1528 190.51 39.3229 189.013Z" fill="#2DB174"/>
<path d="M49.4074 174.121C50.8634 174.954 42.2889 189.279 42.2889 189.279V202.412C42.2889 203.2 40.3385 203.191 40.3385 202.412V190.462C40.3385 190.462 31.4135 186.088 31.8809 185.191C32.3482 184.295 40.5812 188.15 40.5812 188.15C40.5812 188.15 47.9603 173.287 49.4074 174.121Z" fill="#377464"/>
<path d="M49.4073 174.12C50.8633 174.954 42.2888 189.279 42.2888 189.279V202.412C42.2888 203.2 40.3384 203.191 40.3384 202.412V190.462C40.3384 190.462 31.4134 186.088 31.8808 185.191C32.3481 184.295 40.5811 188.149 40.5811 188.149C40.5811 188.149 47.9602 173.287 49.4073 174.12Z" fill="#114C3A"/>
<defs>
<linearGradient id="paint0_linear_33_14059" x1="101.499" y1="57.6393" x2="83.164" y2="54.2529" gradientUnits="userSpaceOnUse">
<stop stop-color="#FF8D8D"/>
<stop offset="1" stop-color="#FFC5D4"/>
</linearGradient>
</defs>
</svg>
