<svg width="173" height="120" viewBox="0 0 173 120" fill="none" xmlns="http://www.w3.org/2000/svg">
<path d="M88.9133 28.0892C75.3795 43.9297 64.1014 31.6452 43.1562 26.4728C8.17814 17.835 5.79862e-05 50.1443 0 75.6106C-5.7986e-05 101.077 19.8605 118.606 36.9017 118.606C63.3987 118.606 68.7386 97.4586 82.3682 97.4586C99.4833 97.4586 121.459 124.748 148.204 118.606C173.016 112.908 181.502 42.8286 163.027 16.4513C137.893 -19.4322 102.447 12.2488 88.9133 28.0892Z" fill="#F5F6F7"/>
<mask id="mask0_117_8714" style="mask-type:alpha" maskUnits="userSpaceOnUse" x="0" y="0" width="173" height="120">
<path d="M88.9133 28.0892C75.3795 43.9297 64.1014 31.6452 43.1562 26.4728C8.17814 17.835 5.79862e-05 50.1443 0 75.6106C-5.7986e-05 101.077 19.8605 118.606 36.9017 118.606C63.3987 118.606 68.7386 97.4586 82.3682 97.4586C99.4833 97.4586 121.459 124.748 148.204 118.606C173.016 112.908 181.502 42.8286 163.027 16.4513C137.893 -19.4322 102.447 12.2488 88.9133 28.0892Z" fill="#F1F1FA"/>
</mask>
<g mask="url(#mask0_117_8714)">
<path d="M171.043 108.968L173.16 109.832L49.101 144.262C12.4902 140.373 -57.4876 128.043 -44.5126 109.832C-28.2938 87.0692 -10.0833 73.4113 32.5977 73.4113C83.9637 73.4113 90.8121 76.2076 171.043 108.968Z" fill="#D1E7DD"/>
<path d="M164.787 71.704C185.274 71.704 201.777 76.2566 219.134 98.1662L163.649 123.775C127.038 119.886 74.986 124.059 87.961 105.849C104.18 83.0856 122.106 71.704 164.787 71.704Z" fill="#A3CFBB" stroke="#A3CFBB" stroke-width="3.85709"/>
<path d="M37.2652 119.507H27.5517C26.717 119.507 26.0403 118.83 26.0403 117.995V104.829H21.076C16.6719 104.829 13.0889 101.246 13.0889 96.8417V87.1283C13.0889 84.5052 15.2098 82.379 17.8382 82.379C20.4569 82.379 22.5874 84.5096 22.5874 87.1283V95.3303H26.0403V75.7959C26.0403 72.2715 28.8923 69.4277 32.4085 69.4277C35.9199 69.4277 38.7767 72.2845 38.7767 75.7959V87.2357H42.2295V82.2715C42.2295 79.6484 44.3503 77.5221 46.9787 77.5221C49.5974 77.5221 51.7281 79.6528 51.7281 82.2715V88.7472C51.7281 93.1513 48.1451 96.7343 43.7409 96.7343H38.7767V117.995C38.7767 118.83 38.0999 119.507 37.2652 119.507Z" fill="#479F76"/>
<path d="M28.1273 84.0858C28.3162 83.8077 28.4696 82.4528 28.5241 82.121C28.6872 81.5214 28.9922 77.73 28.9922 76.5852C28.9922 75.9806 29.0484 75.2016 29.2434 74.8215C29.5883 74.1584 30.3448 72.7957 30.9622 72.4897C30.619 72.5108 29.4959 73.1532 29.2434 73.3865C28.9546 73.6195 28.6868 74.012 28.5068 74.3366C28.2826 74.728 28.2651 75.1594 28.1715 75.6007C27.9748 76.5264 27.9893 80.6139 27.9892 81.442C27.9892 82.27 28.0842 84.0714 28.1273 84.0858Z" fill="white"/>
<path d="M14.6476 91.821C14.8616 91.1602 14.7163 88.3246 14.8616 87.1622C14.9366 86.5623 15.0914 85.949 15.2865 85.5688C15.6313 84.9057 16.822 84.065 17.4393 83.759C17.0962 83.78 15.9731 84.4224 15.7206 84.6557C15.0066 85.2316 14.8269 85.6966 14.6476 86.5416C14.5486 87.0082 14.5095 88.3491 14.5095 89.1772C14.5095 90.0052 14.6044 91.8066 14.6476 91.821Z" fill="white"/>
<path d="M43.6783 84.7708C43.8078 83.6568 43.7407 82.4643 44.1193 81.3954C44.3573 80.7323 45.1793 79.8916 45.6054 79.5856C45.3685 79.6066 44.5933 80.249 44.419 80.4823C43.8398 81.1591 43.6783 81.9478 43.6783 82.9208C43.6783 83.7488 43.6485 84.7564 43.6783 84.7708Z" fill="white"/>
</g>
</svg>
