<svg width="233" height="168" viewBox="0 0 233 168" fill="none" xmlns="http://www.w3.org/2000/svg">
<g clip-path="url(#clip0_2639_2678)">
<path d="M232.809 139.198C232.809 148.075 232.084 156.914 230.651 165.484H2.15801C0.725272 156.914 -0.000340434 148.075 1.19819e-07 139.198C1.19819e-07 63.8501 52.1154 2.77014 116.406 2.77014C180.697 2.77014 232.809 63.8501 232.809 139.198Z" fill="#F2F8F5"/>
<path opacity="0.75" d="M180.318 68.2991H140.738V163.141H180.318V68.2991Z" fill="#FD9843"/>
<path d="M173.899 163C173.899 163 174.422 161.011 173.088 160.45C172.264 160.103 171.634 161.373 171.634 161.373C173.162 158.375 172.131 155.773 168.411 159.538C168.411 159.538 169.584 153.779 162.63 154.007C156.76 154.199 159.773 163 159.773 163H173.899Z" fill="#4F9982"/>
<path d="M160.899 163C160.899 163 161.422 161.011 160.088 160.45C159.264 160.103 158.634 161.373 158.634 161.373C160.162 158.375 159.131 155.773 155.411 159.538C155.411 159.538 156.584 153.779 149.63 154.007C143.76 154.199 146.773 163 146.773 163H160.899Z" fill="#4F9982"/>
<path d="M138.899 163C138.899 163 139.422 161.011 138.088 160.45C137.264 160.103 136.634 161.373 136.634 161.373C138.162 158.375 137.131 155.773 133.411 159.538C133.411 159.538 134.584 153.779 127.63 154.007C121.76 154.199 124.773 163 124.773 163H138.899Z" fill="#4F9982"/>
<path d="M118.101 163C118.101 163 117.578 161.011 118.912 160.45C119.736 160.103 120.366 161.373 120.366 161.373C118.838 158.375 119.869 155.773 123.589 159.538C123.589 159.538 122.416 153.779 129.37 154.007C135.24 154.199 132.227 163 132.227 163H118.101Z" fill="#4F9982"/>
<path d="M155.979 74.688H149.381C148.276 74.688 147.381 75.5834 147.381 76.688V86.932C147.381 88.0366 148.276 88.932 149.381 88.932H155.979C157.084 88.932 157.979 88.0366 157.979 86.932V76.688C157.979 75.5834 157.084 74.688 155.979 74.688Z" fill="#F6F7F8"/>
<path d="M172.188 74.688H165.59C164.485 74.688 163.59 75.5834 163.59 76.688V86.932C163.59 88.0366 164.485 88.932 165.59 88.932H172.188C173.293 88.932 174.188 88.0366 174.188 86.932V76.688C174.188 75.5834 173.293 74.688 172.188 74.688Z" fill="#F6F7F8"/>
<path d="M155.979 97.692H149.381C148.276 97.692 147.381 98.5874 147.381 99.692V109.936C147.381 111.041 148.276 111.936 149.381 111.936H155.979C157.084 111.936 157.979 111.041 157.979 109.936V99.692C157.979 98.5874 157.084 97.692 155.979 97.692Z" fill="#F6F7F8"/>
<path d="M155.979 120.702H149.381C148.276 120.702 147.381 121.597 147.381 122.702V132.946C147.381 134.05 148.276 134.946 149.381 134.946H155.979C157.084 134.946 157.979 134.05 157.979 132.946V122.702C157.979 121.597 157.084 120.702 155.979 120.702Z" fill="#F6F7F8"/>
<path d="M88.8199 152.448V163.92H84.7633V154.362C84.7633 153.566 84.4486 152.803 83.8884 152.241C83.3282 151.678 82.5684 151.362 81.7761 151.362H71.6914V147.6H84.0046C85.2823 147.605 86.5061 148.117 87.4085 149.026C88.3109 149.934 88.8183 151.165 88.8199 152.448Z" fill="#2A4055"/>
<path d="M100.967 124.032V164.646H103.727V125.34C103.727 124.796 103.942 124.274 104.325 123.889C104.709 123.504 105.228 123.288 105.77 123.288H110.299V120.732H104.229C103.361 120.738 102.532 121.089 101.921 121.707C101.31 122.325 100.967 123.161 100.967 124.032Z" fill="#2A4055"/>
<path d="M118.634 53.5861H68.7656V167.838H118.634V53.5861Z" fill="#FC865A"/>
<path d="M118.634 53.5861H68.7656V167.838H118.634V53.5861Z" fill="#EA5426"/>
<path opacity="0.75" d="M118.634 53.5861H68.7656V167.838H118.634V53.5861Z" fill="#FFF983"/>
<path d="M118.633 53.5861H91.2051V167.838H118.633V53.5861Z" fill="#FC865A"/>
<path d="M118.633 53.5861H91.2051V167.838H118.633V53.5861Z" fill="#EA5426"/>
<path opacity="0.75" d="M118.633 53.5861H91.2051V167.838H118.633V53.5861Z" fill="#FFF983"/>
<path d="M91.5 160.5V163.5M113.5 160.5V162.5" stroke="#8D5943"/>
<path d="M111.373 60.4486H98.9531C97.8486 60.4486 96.9531 61.344 96.9531 62.4486V65.514C96.9531 66.6186 97.8486 67.514 98.9531 67.514H111.373C112.477 67.514 113.373 66.6186 113.373 65.514V62.4486C113.373 61.344 112.477 60.4486 111.373 60.4486Z" fill="#F6F7F8"/>
<path d="M111.373 73.7944H98.9531C97.8486 73.7944 96.9531 74.6899 96.9531 75.7944V78.8599C96.9531 79.9644 97.8486 80.8599 98.9531 80.8599H111.373C112.477 80.8599 113.373 79.9644 113.373 78.8599V75.7944C113.373 74.6899 112.477 73.7944 111.373 73.7944Z" fill="#F6F7F8"/>
<path d="M111.373 87.1401H98.9531C97.8486 87.1401 96.9531 88.0356 96.9531 89.1401V92.2056C96.9531 93.3101 97.8486 94.2056 98.9531 94.2056H111.373C112.477 94.2056 113.373 93.3101 113.373 92.2056V89.1401C113.373 88.0356 112.477 87.1401 111.373 87.1401Z" fill="#F6F7F8"/>
<path d="M120.935 154.479C139.516 154.479 125.948 102.927 117.926 102.937C111.438 102.947 97.821 154.479 120.935 154.479Z" fill="#17C690"/>
<path d="M120.935 154.479C139.516 154.479 125.948 102.927 117.926 102.937C111.438 102.947 97.821 154.479 120.935 154.479Z" fill="#0AA370"/>
<path opacity="0.75" d="M120.935 154.479C139.516 154.479 125.948 102.927 117.926 102.937C111.438 102.947 97.821 154.479 120.935 154.479Z" fill="#75B798"/>
<path d="M120.133 115.384H118.117V164.942H120.133V115.384Z" fill="#377464"/>
<path d="M114.886 140.57L113.418 141.958L118.394 147.266L119.862 145.879L114.886 140.57Z" fill="#377464"/>
<path d="M122.364 129.894L118.334 134.884L119.899 136.159L123.93 131.169L122.364 129.894Z" fill="#377464"/>
<path d="M115.417 121.41L114.021 122.871L118.407 127.095L119.803 125.634L115.417 121.41Z" fill="#377464"/>
<path d="M160.696 157.76C171.785 157.76 163.688 126.994 158.901 127C155.029 127.006 146.902 157.76 160.696 157.76Z" fill="#17C690"/>
<path d="M160.696 157.76C171.785 157.76 163.688 126.994 158.901 127C155.029 127.006 146.902 157.76 160.696 157.76Z" fill="#0AA370"/>
<path opacity="0.75" d="M160.696 157.76C171.785 157.76 163.688 126.994 158.901 127C155.029 127.006 146.902 157.76 160.696 157.76Z" fill="#75B798"/>
<path d="M160.217 134.429H159.014V164.005H160.217V134.429Z" fill="#377464"/>
<path d="M157.085 149.46L156.209 150.288L159.179 153.456L160.055 152.628L157.085 149.46Z" fill="#377464"/>
<path d="M161.55 143.088L159.145 146.066L160.079 146.827L162.484 143.849L161.55 143.088Z" fill="#377464"/>
<path d="M157.403 138.025L156.57 138.897L159.188 141.418L160.02 140.546L157.403 138.025Z" fill="#377464"/>
<path d="M55.7195 159.76C66.8088 159.76 58.7117 128.994 53.9241 129C50.0521 129.006 41.9251 159.76 55.7195 159.76Z" fill="#17C690"/>
<path d="M55.7195 159.76C66.8088 159.76 58.7117 128.994 53.9241 129C50.0521 129.006 41.9251 159.76 55.7195 159.76Z" fill="#0AA370"/>
<path opacity="0.75" d="M55.7195 159.76C66.8088 159.76 58.7117 128.994 53.9241 129C50.0521 129.006 41.9251 159.76 55.7195 159.76Z" fill="#75B798"/>
<path d="M55.24 136.429H54.0371V166.005H55.24V136.429Z" fill="#377464"/>
<path d="M52.1083 151.46L51.2324 152.288L54.2023 155.456L55.0782 154.628L52.1083 151.46Z" fill="#377464"/>
<path d="M56.5734 145.088L54.168 148.066L55.1021 148.827L57.5076 145.849L56.5734 145.088Z" fill="#377464"/>
<path d="M52.4263 140.025L51.5938 140.897L54.2113 143.418L55.0439 142.546L52.4263 140.025Z" fill="#377464"/>
<path d="M195.078 162.505H32.4473V168H195.078V162.505Z" fill="#DEE2E6"/>
<path d="M135.695 154.914C141.245 156.294 149.475 147.884 149.007 143.478C148.538 139.072 142.82 138.791 140.289 140.572C151.273 134.175 150.202 121.156 139.565 129.452C140.041 114.211 130.753 119.932 132.144 128.936C125.394 123.102 123.452 134.73 129.286 140.326C121.555 136.338 118.213 150.567 135.695 154.914Z" fill="#0AA370"/>
<path d="M142 142.476L141.806 142.049C141.791 142.057 140.257 142.858 138.744 143.663C137.21 144.478 136.416 144.902 136.004 145.146V134.618L136.093 134.779L141.052 131.58L140.824 131.174L136.004 134.283V124H135.561V137.649L131.219 132.812L130.9 133.144L135.561 138.337V149.704C135.129 149.307 134.277 148.579 132.593 147.182C130.949 145.818 129.283 144.46 129.266 144.447L129 144.826C131.35 146.741 135.12 149.858 135.563 150.34V163H136.007V145.687C136.567 145.335 139.823 143.614 142 142.476Z" fill="#114C3A"/>
<path d="M197 162H30V169H197V162Z" fill="#CCE59D"/>
<path d="M197 162V163.52C195.16 163.588 192.934 163.551 190.279 163.386C164.672 161.8 155.418 165.015 142.687 165C129.957 164.985 117.195 162.386 100.919 164.098C83.5158 165.93 73.0324 164.488 60.3477 163.183C50.0097 162.12 36.3626 163.386 30 164.288V162H197Z" fill="#BCD389"/>
<path d="M90 157.5V151H115V157.5H90Z" fill="#CF7249"/>
<path d="M95.5 157.5V160M109.5 157.5V160M90.5 160H115" stroke="#753D25"/>
<path d="M89 158V160H116V158H89Z" fill="#77371C" stroke="#77371C"/>
</g>
<defs>
<clipPath id="clip0_2639_2678">
<rect width="233" height="168" fill="white"/>
</clipPath>
</defs>
</svg>
