<svg width="233" height="168" viewBox="0 0 233 168" fill="none" xmlns="http://www.w3.org/2000/svg">
<g id="Global warming">
<g id="Group">
<path id="Vector" d="M232.809 139.198C232.809 148.075 232.084 156.914 230.651 165.484H2.15801C0.725272 156.914 -0.000340434 148.075 1.19819e-07 139.198C1.19819e-07 63.8501 52.1154 2.77014 116.406 2.77014C180.697 2.77014 232.809 63.8501 232.809 139.198Z" fill="#F2F8F5"/>
</g>
<g id="Group_2">
<path id="Vector_2" opacity="0.75" d="M180.318 68.2991H140.738V163.141H180.318V68.2991Z" fill="#FD9843"/>
</g>
<g id="Group_3">
<path id="Vector_3" d="M155.98 74.688H149.381C148.277 74.688 147.381 75.5834 147.381 76.688V86.932C147.381 88.0366 148.277 88.932 149.381 88.932H155.98C157.084 88.932 157.98 88.0366 157.98 86.932V76.688C157.98 75.5834 157.084 74.688 155.98 74.688Z" fill="#F6F7F8"/>
</g>
<g id="Group_4">
<path id="Vector_4" d="M172.188 74.688H165.59C164.485 74.688 163.59 75.5834 163.59 76.688V86.932C163.59 88.0366 164.485 88.932 165.59 88.932H172.188C173.293 88.932 174.188 88.0366 174.188 86.932V76.688C174.188 75.5834 173.293 74.688 172.188 74.688Z" fill="#F6F7F8"/>
</g>
<g id="Group_5">
<path id="Vector_5" d="M155.98 97.692H149.381C148.277 97.692 147.381 98.5874 147.381 99.692V109.936C147.381 111.041 148.277 111.936 149.381 111.936H155.98C157.084 111.936 157.98 111.041 157.98 109.936V99.692C157.98 98.5874 157.084 97.692 155.98 97.692Z" fill="#F6F7F8"/>
</g>
<g id="Group_6">
<path id="Vector_6" d="M155.98 120.702H149.381C148.277 120.702 147.381 121.597 147.381 122.702V132.946C147.381 134.05 148.277 134.946 149.381 134.946H155.98C157.084 134.946 157.98 134.05 157.98 132.946V122.702C157.98 121.597 157.084 120.702 155.98 120.702Z" fill="#F6F7F8"/>
</g>
<path id="Vector_7" d="M88.8209 152.448V163.92H84.7643V154.362C84.7643 153.566 84.4496 152.803 83.8894 152.241C83.3291 151.678 82.5694 151.362 81.7771 151.362H71.6924V147.6H84.0055C85.2832 147.605 86.5071 148.117 87.4095 149.026C88.3118 149.934 88.8193 151.165 88.8209 152.448Z" fill="#2A4055"/>
<path id="Vector_8" d="M100.967 124.032V164.646H103.727V125.34C103.727 124.796 103.942 124.274 104.325 123.889C104.709 123.504 105.228 123.288 105.77 123.288H110.299V120.732H104.229C103.361 120.738 102.532 121.089 101.921 121.707C101.31 122.325 100.967 123.161 100.967 124.032Z" fill="#2A4055"/>
<path id="Vector_9" d="M118.633 53.5861H68.7646V167.838H118.633V53.5861Z" fill="#FC865A"/>
<g id="Group_7">
<path id="Vector_10" d="M118.633 53.5861H68.7646V167.838H118.633V53.5861Z" fill="#EA5426"/>
</g>
<g id="Group_8">
<path id="Vector_11" opacity="0.75" d="M118.633 53.5861H68.7646V167.838H118.633V53.5861Z" fill="#FFF983"/>
</g>
<path id="Vector_12" d="M118.633 53.5861H91.2046V167.838H118.633V53.5861Z" fill="#FC865A"/>
<g id="Group_9">
<path id="Vector_13" d="M118.633 53.5861H91.2046V167.838H118.633V53.5861Z" fill="#EA5426"/>
</g>
<g id="Group_10">
<path id="Vector_14" opacity="0.75" d="M118.633 53.5861H91.2046V167.838H118.633V53.5861Z" fill="#FFF983"/>
</g>
<path id="Vector_15" d="M92.2859 157.416C103.356 157.416 95.2731 126.702 90.4936 126.708C86.6282 126.714 78.515 157.416 92.2859 157.416Z" fill="#17C690"/>
<g id="Group_11">
<path id="Vector_16" d="M92.2859 157.416C103.356 157.416 95.2731 126.702 90.4936 126.708C86.6282 126.714 78.515 157.416 92.2859 157.416Z" fill="#0AA370"/>
</g>
<g id="Group_12">
<path id="Vector_17" opacity="0.75" d="M92.2859 157.416C103.356 157.416 95.2731 126.702 90.4936 126.708C86.6282 126.714 78.515 157.416 92.2859 157.416Z" fill="#75B798"/>
</g>
<path id="Vector_18" d="M91.8078 134.124H90.6069V163.65H91.8078V134.124Z" fill="#377464"/>
<path id="Vector_19" d="M88.6815 149.129L87.8071 149.956L90.7719 153.119L91.6463 152.292L88.6815 149.129Z" fill="#377464"/>
<path id="Vector_20" d="M111.373 60.4486H98.9531C97.8486 60.4486 96.9531 61.344 96.9531 62.4486V65.514C96.9531 66.6186 97.8486 67.514 98.9531 67.514H111.373C112.477 67.514 113.373 66.6186 113.373 65.514V62.4486C113.373 61.344 112.477 60.4486 111.373 60.4486Z" fill="#F6F7F8"/>
<path id="Vector_21" d="M111.373 73.7944H98.9531C97.8486 73.7944 96.9531 74.6899 96.9531 75.7944V78.8599C96.9531 79.9644 97.8486 80.8599 98.9531 80.8599H111.373C112.477 80.8599 113.373 79.9644 113.373 78.8599V75.7944C113.373 74.6899 112.477 73.7944 111.373 73.7944Z" fill="#F6F7F8"/>
<path id="Vector_22" d="M111.373 87.1401H98.9531C97.8486 87.1401 96.9531 88.0356 96.9531 89.1401V92.2056C96.9531 93.3101 97.8486 94.2056 98.9531 94.2056H111.373C112.477 94.2056 113.373 93.3101 113.373 92.2056V89.1401C113.373 88.0356 112.477 87.1401 111.373 87.1401Z" fill="#F6F7F8"/>
<path id="Vector_23" d="M93.1377 142.769L90.7363 145.742L91.6689 146.501L94.0702 143.529L93.1377 142.769Z" fill="#377464"/>
<path id="Vector_24" d="M88.9986 137.714L88.1675 138.584L90.7806 141.101L91.6118 140.231L88.9986 137.714Z" fill="#377464"/>
<path id="Vector_25" d="M58.8417 129.546H51.2603V134.922H58.8417V129.546Z" fill="white"/>
<g id="Group_13">
<path id="Vector_26" d="M58.8417 129.546H51.2603V134.922H58.8417V129.546Z" fill="#CECECE"/>
</g>
<path id="Vector_27" d="M63.9377 133.902H46.1699V165.336H63.9377V133.902Z" fill="#B85764"/>
<g id="Group_14">
<path id="Vector_28" d="M63.9377 133.902H46.1699V165.336H63.9377V133.902Z" fill="#873243"/>
</g>
<g id="Group_15">
<path id="Vector_29" opacity="0.75" d="M63.9377 133.902H46.1699V165.336H63.9377V133.902Z" fill="#FFF983"/>
</g>
<path id="Vector_30" d="M74.6854 144.36H57.3896V163.926H74.6854V144.36Z" fill="#B85764"/>
<g id="Group_16">
<path id="Vector_31" d="M74.6854 144.36H57.3896V163.926H74.6854V144.36Z" fill="#873243"/>
</g>
<g id="Group_17">
<path id="Vector_32" opacity="0.75" d="M74.6854 144.36H57.3896V163.926H74.6854V144.36Z" fill="#FFF983"/>
</g>
<path id="Vector_33" d="M76.7943 158.442H55.2866V163.92H76.7943V158.442Z" fill="white"/>
<g id="Group_18">
<path id="Vector_34" d="M76.7943 158.442H55.2866V163.92H76.7943V158.442Z" fill="#DEE2E6"/>
</g>
<path id="Vector_35" d="M141.282 112.224H108.453V164.652H141.282V112.224Z" fill="#B85764"/>
<g id="Group_19">
<path id="Vector_36" d="M141.282 112.224H108.453V164.652H141.282V112.224Z" fill="#873243"/>
</g>
<g id="Group_20">
<path id="Vector_37" opacity="0.75" d="M141.282 112.224H108.453V164.652H141.282V112.224Z" fill="#FFCD39"/>
</g>
<path id="Vector_38" d="M143.982 110.136H105.752V113.682H143.982V110.136Z" fill="#2A4055"/>
<path id="Vector_39" d="M60.2097 127.296H49.8979V130.032H60.2097V127.296Z" fill="#2A4055"/>
<path id="Vector_40" d="M205.619 132.918V29.52C205.619 28.1626 205.083 26.8608 204.127 25.901C203.171 24.9412 201.875 24.402 200.523 24.402C199.172 24.402 197.876 24.9412 196.92 25.901C195.964 26.8608 195.427 28.1626 195.427 29.52V132.918C193.163 134.069 191.351 135.952 190.284 138.265C189.217 140.577 188.957 143.183 189.546 145.661C190.135 148.14 191.539 150.348 193.531 151.927C195.522 153.506 197.986 154.365 200.523 154.365C203.061 154.365 205.524 153.506 207.516 151.927C209.508 150.348 210.912 148.14 211.501 145.661C212.09 143.183 211.83 140.577 210.763 138.265C209.696 135.952 207.884 134.069 205.619 132.918Z" fill="white"/>
<g id="Group_21">
<path id="Vector_41" d="M205.619 132.918V29.52C205.619 28.1626 205.083 26.8608 204.127 25.901C203.171 24.9412 201.875 24.402 200.523 24.402C199.172 24.402 197.876 24.9412 196.92 25.901C195.964 26.8608 195.427 28.1626 195.427 29.52V132.918C193.163 134.069 191.351 135.952 190.284 138.265C189.217 140.577 188.957 143.183 189.546 145.661C190.135 148.14 191.539 150.348 193.531 151.927C195.522 153.506 197.986 154.365 200.523 154.365C203.061 154.365 205.524 153.506 207.516 151.927C209.508 150.348 210.912 148.14 211.501 145.661C212.09 143.183 211.83 140.577 210.763 138.265C209.696 135.952 207.884 134.069 205.619 132.918Z" fill="#DADEDE"/>
</g>
<path id="Vector_42" d="M190.257 21.6185L185.476 18.6331C185 18.336 184.375 18.4818 184.08 18.9588C183.784 19.4358 183.931 20.0634 184.407 20.3605L189.188 23.3459C189.664 23.643 190.289 23.4972 190.584 23.0202C190.879 22.5432 190.733 21.9156 190.257 21.6185Z" fill="#FC5555"/>
<path id="Vector_43" d="M215.588 18.6178L210.807 21.6031C210.331 21.9002 210.185 22.5278 210.48 23.0048C210.775 23.4818 211.4 23.6276 211.876 23.3305L216.658 20.3452C217.133 20.048 217.28 19.4205 216.984 18.9435C216.689 18.4665 216.064 18.3207 215.588 18.6178Z" fill="#FC5555"/>
<path id="Vector_44" d="M201.539 16.6273V8.76461C201.539 8.20534 201.086 7.75195 200.526 7.75195C199.967 7.75195 199.514 8.20533 199.514 8.76461V16.6273C199.514 17.1866 199.967 17.64 200.526 17.64C201.086 17.64 201.539 17.1866 201.539 16.6273Z" fill="#FC5555"/>
<path id="Vector_45" d="M202.184 138V41.3041C202.184 40.8633 202.01 40.4406 201.699 40.1289C201.389 39.8172 200.968 39.6421 200.529 39.6421C200.09 39.6421 199.669 39.8172 199.359 40.1289C199.049 40.4406 198.874 40.8633 198.874 41.3041V138C197.847 138.355 196.96 139.03 196.342 139.927C195.724 140.824 195.408 141.896 195.439 142.986C195.489 144.288 196.027 145.522 196.944 146.443C197.861 147.364 199.09 147.904 200.386 147.954C201.602 147.985 202.789 147.578 203.732 146.807C204.675 146.035 205.313 144.951 205.529 143.748C205.746 142.546 205.527 141.306 204.912 140.252C204.298 139.198 203.328 138.399 202.178 138H202.184Z" fill="#B85764"/>
<g id="Group_22">
<path id="Vector_46" d="M202.184 138V41.3041C202.184 40.8633 202.01 40.4406 201.699 40.1289C201.389 39.8172 200.968 39.6421 200.529 39.6421C200.09 39.6421 199.669 39.8172 199.359 40.1289C199.049 40.4406 198.874 40.8633 198.874 41.3041V138C197.847 138.355 196.96 139.03 196.342 139.927C195.724 140.824 195.408 141.896 195.439 142.986C195.489 144.288 196.027 145.522 196.944 146.443C197.861 147.364 199.09 147.904 200.386 147.954C201.602 147.985 202.789 147.578 203.732 146.807C204.675 146.035 205.313 144.951 205.529 143.748C205.746 142.546 205.527 141.306 204.912 140.252C204.298 139.198 203.328 138.399 202.178 138H202.184Z" fill="#FC5555"/>
</g>
<path id="Vector_47" d="M195.079 162.505H32.4478V168H195.079V162.505Z" fill="#DEE2E6"/>
<path id="Vector_48" d="M134.047 118.542H131.01C129.906 118.542 129.01 119.437 129.01 120.542V123.607C129.01 124.712 129.906 125.607 131.01 125.607H134.047C135.152 125.607 136.047 124.712 136.047 123.607V120.542C136.047 119.437 135.152 118.542 134.047 118.542Z" fill="#F6F7F8"/>
<path id="Vector_49" d="M134.047 135.028H131.01C129.906 135.028 129.01 135.924 129.01 137.028V140.093C129.01 141.198 129.906 142.093 131.01 142.093H134.047C135.152 142.093 136.047 141.198 136.047 140.093V137.028C136.047 135.924 135.152 135.028 134.047 135.028Z" fill="#F6F7F8"/>
</g>
</svg>
