<svg width="234" height="168" viewBox="0 0 234 168" fill="none" xmlns="http://www.w3.org/2000/svg">
<g clip-path="url(#clip0_2639_5003)">
<path d="M233.309 139.198C233.309 148.075 232.584 156.914 231.151 165.484H2.65801C1.22527 156.914 0.49966 148.075 0.5 139.198C0.5 63.8501 52.6154 2.77014 116.906 2.77014C181.197 2.77014 233.309 63.8501 233.309 139.198Z" fill="#F2F8F5"/>
<path opacity="0.75" d="M180.818 68.2991H141.238V163.141H180.818V68.2991Z" fill="#FD9843"/>
<path d="M156.48 74.688H149.882C148.777 74.688 147.882 75.5834 147.882 76.688V86.932C147.882 88.0366 148.777 88.932 149.882 88.932H156.48C157.585 88.932 158.48 88.0366 158.48 86.932V76.688C158.48 75.5834 157.585 74.688 156.48 74.688Z" fill="#F6F7F8"/>
<path d="M172.688 74.688H166.09C164.985 74.688 164.09 75.5834 164.09 76.688V86.932C164.09 88.0366 164.985 88.932 166.09 88.932H172.688C173.793 88.932 174.688 88.0366 174.688 86.932V76.688C174.688 75.5834 173.793 74.688 172.688 74.688Z" fill="#F6F7F8"/>
<path d="M156.48 97.692H149.882C148.777 97.692 147.882 98.5874 147.882 99.692V109.936C147.882 111.041 148.777 111.936 149.882 111.936H156.48C157.585 111.936 158.48 111.041 158.48 109.936V99.692C158.48 98.5874 157.585 97.692 156.48 97.692Z" fill="#F6F7F8"/>
<path d="M156.48 120.702H149.882C148.777 120.702 147.882 121.597 147.882 122.702V132.946C147.882 134.05 148.777 134.946 149.882 134.946H156.48C157.585 134.946 158.48 134.05 158.48 132.946V122.702C158.48 121.597 157.585 120.702 156.48 120.702Z" fill="#F6F7F8"/>
<path d="M89.3209 152.448V163.92H85.2643V154.362C85.2643 153.566 84.9496 152.803 84.3894 152.241C83.8291 151.678 83.0694 151.362 82.2771 151.362H72.1924V147.6H84.5055C85.7832 147.605 87.0071 148.117 87.9095 149.026C88.8118 149.934 89.3193 151.165 89.3209 152.448Z" fill="#2A4055"/>
<path d="M101.467 124.032V164.646H104.227V125.34C104.227 124.796 104.442 124.274 104.825 123.889C105.209 123.504 105.728 123.288 106.27 123.288H110.799V120.732H104.729C103.861 120.738 103.032 121.089 102.421 121.707C101.81 122.325 101.467 123.161 101.467 124.032Z" fill="#2A4055"/>
<path d="M119.133 53.5861H69.2646V167.838H119.133V53.5861Z" fill="#FC865A"/>
<path d="M119.133 53.5861H69.2646V167.838H119.133V53.5861Z" fill="#EA5426"/>
<path opacity="0.75" d="M119.133 53.5861H69.2646V167.838H119.133V53.5861Z" fill="#FFF983"/>
<path d="M119.132 53.5861H91.7041V167.838H119.132V53.5861Z" fill="#FC865A"/>
<path d="M119.132 53.5861H91.7041V167.838H119.132V53.5861Z" fill="#EA5426"/>
<path opacity="0.75" d="M119.132 53.5861H91.7041V167.838H119.132V53.5861Z" fill="#FFF983"/>
<path d="M111.873 60.4486H99.4531C98.3486 60.4486 97.4531 61.344 97.4531 62.4486V65.514C97.4531 66.6186 98.3486 67.514 99.4531 67.514H111.873C112.977 67.514 113.873 66.6186 113.873 65.514V62.4486C113.873 61.344 112.977 60.4486 111.873 60.4486Z" fill="#F6F7F8"/>
<path d="M111.873 73.7944H99.4531C98.3486 73.7944 97.4531 74.6899 97.4531 75.7944V78.8599C97.4531 79.9644 98.3486 80.8599 99.4531 80.8599H111.873C112.977 80.8599 113.873 79.9644 113.873 78.8599V75.7944C113.873 74.6899 112.977 73.7944 111.873 73.7944Z" fill="#F6F7F8"/>
<path d="M111.873 87.1401H99.4531C98.3486 87.1401 97.4531 88.0356 97.4531 89.1401V92.2056C97.4531 93.3101 98.3486 94.2056 99.4531 94.2056H111.873C112.977 94.2056 113.873 93.3101 113.873 92.2056V89.1401C113.873 88.0356 112.977 87.1401 111.873 87.1401Z" fill="#F6F7F8"/>
<path d="M52.2935 155.305C57.3841 156.571 64.9373 148.857 64.5033 144.816C64.0693 140.774 58.8284 140.517 56.507 142.15C66.5821 136.283 65.5991 124.342 55.8429 131.95C56.2803 117.974 47.7668 123.214 49.0357 131.476C42.8471 126.122 41.0622 136.791 46.4159 141.924C39.3228 138.265 36.2621 151.316 52.2935 155.305Z" fill="#0AA370"/>
<path d="M58.42 144.066L58.2309 143.68C58.2161 143.687 56.7296 144.412 55.2625 145.14C53.776 145.882 53.006 146.262 52.6073 146.483V136.95L52.695 137.095L57.5031 134.198L57.2809 133.83L52.6107 136.646V127.333H52.1813V139.694L47.9724 135.313L47.6625 135.611L52.1813 140.314V150.612C51.7632 150.251 50.9374 149.593 49.3039 148.327C47.7092 147.092 46.0952 145.862 46.0792 145.85L45.8184 146.192C48.0965 147.925 51.7496 150.748 52.1813 151.185V162.654H52.6107V146.975C53.154 146.656 56.3093 145.097 58.42 144.066Z" fill="#114C3A"/>
<path opacity="0.75" d="M80.4494 136.935C87.8739 137.247 94.3804 146.943 85.3475 154.477C76.3145 162.011 69.7102 152.044 69.1213 149.124C68.5323 146.203 69.7272 136.484 80.4494 136.935Z" fill="#0AA370"/>
<path d="M79.286 154.003V152.451C81.3238 151.426 82.6223 149.717 83.4163 148.236C83.5088 148.249 83.602 148.255 83.6953 148.255C84.2157 148.243 84.7218 148.082 85.1545 147.793L84.9142 147.451C84.5297 147.703 84.0798 147.837 83.6202 147.835C84.0028 147.075 84.3022 146.275 84.5132 145.45L84.1111 145.358C84.1031 145.392 83.5233 147.823 81.7703 149.914C81.4286 149.082 81.0003 147.914 81.0003 147.618H80.5868C80.5868 148.095 81.2702 149.8 81.465 150.261C80.8384 150.948 80.1015 151.526 79.2848 151.97V147.081H78.8713V153.159C78.2663 152.753 77.6841 152.313 77.1274 151.842C78.0455 151.172 77.8052 149.381 77.7938 149.298L77.3848 149.356C77.3848 149.374 77.6183 151.1 76.8028 151.561C75.4735 150.38 74.0496 148.746 73.8696 147.059L73.4584 147.104C73.5396 147.744 73.7438 148.363 74.0599 148.926C73.4391 148.774 72.3512 148.445 71.9286 147.733L71.5732 147.948C72.1496 148.922 73.6521 149.264 74.2182 149.392L74.3492 149.423C75.748 151.606 78.32 153.306 78.8702 153.655V153.996C75.2502 153.63 73.8582 151.348 73.8411 151.324L73.4846 151.534C73.5461 151.637 75.0019 154.04 78.8702 154.411V162.56H79.2837V154.418C81.0413 154.252 83.3479 153.216 84.3401 151.537L83.9892 151.324C83.0711 152.876 80.9331 153.837 79.286 154.003Z" fill="#9B341F"/>
<path d="M66.2408 152.01C71.2527 152.01 71.525 151.583 71.3382 150.009C71.1514 148.434 68.6044 133.997 66.1348 134C63.7189 134 59.9439 149.635 61.1229 150.809C62.0638 151.756 62.6891 152.01 66.2408 152.01Z" fill="#5BB28E"/>
<path d="M69.2848 145.738L69.0753 145.449L66.3073 147.455C66.3073 145.882 66.3073 144.351 66.3073 142.953L68.1173 141.131L67.8644 140.88L66.3084 142.451C66.3084 139.014 66.3084 136.504 66.3153 136.391L66.1376 136.379L65.961 136.357C65.961 136.394 65.9542 137.965 65.953 140.349L64.6249 138.68L64.3458 138.903L65.9496 140.92C65.9496 142.316 65.9496 143.948 65.9496 145.69L63.4436 143.654L63.2158 143.93L65.9496 146.149C65.9496 147.245 65.9496 148.381 65.9496 149.524L63.406 148.291L63.25 148.612L65.9496 149.921C65.9496 155.047 65.9496 160.287 65.9564 162.947H66.313C66.313 162.804 66.313 155.006 66.3061 147.897L69.2848 145.738Z" fill="#114C3A"/>
<path d="M118.435 154.479C137.016 154.479 123.448 102.927 115.426 102.937C108.938 102.947 95.321 154.479 118.435 154.479Z" fill="#17C690"/>
<path d="M118.435 154.479C137.016 154.479 123.448 102.927 115.426 102.937C108.938 102.947 95.321 154.479 118.435 154.479Z" fill="#0AA370"/>
<path opacity="0.75" d="M118.435 154.479C137.016 154.479 123.448 102.927 115.426 102.937C108.938 102.947 95.321 154.479 118.435 154.479Z" fill="#75B798"/>
<path d="M117.632 115.384H115.616V164.942H117.632V115.384Z" fill="#377464"/>
<path d="M112.385 140.57L110.917 141.958L115.893 147.266L117.361 145.879L112.385 140.57Z" fill="#377464"/>
<path d="M119.864 129.894L115.834 134.884L117.399 136.159L121.43 131.169L119.864 129.894Z" fill="#377464"/>
<path d="M112.918 121.41L111.522 122.871L115.908 127.095L117.303 125.634L112.918 121.41Z" fill="#377464"/>
<path d="M161.197 157.76C172.286 157.76 164.189 126.994 159.402 127C155.53 127.006 147.403 157.76 161.197 157.76Z" fill="#17C690"/>
<path d="M161.197 157.76C172.286 157.76 164.189 126.994 159.402 127C155.53 127.006 147.403 157.76 161.197 157.76Z" fill="#0AA370"/>
<path opacity="0.75" d="M161.197 157.76C172.286 157.76 164.189 126.994 159.402 127C155.53 127.006 147.403 157.76 161.197 157.76Z" fill="#75B798"/>
<path d="M160.719 134.429H159.516V164.005H160.719V134.429Z" fill="#377464"/>
<path d="M157.586 149.46L156.71 150.288L159.68 153.456L160.556 152.628L157.586 149.46Z" fill="#377464"/>
<path d="M162.05 143.088L159.645 146.066L160.579 146.827L162.984 143.849L162.05 143.088Z" fill="#377464"/>
<path d="M157.904 138.025L157.071 138.897L159.689 141.418L160.521 140.546L157.904 138.025Z" fill="#377464"/>
<path d="M195.579 162.505H32.9482V168H195.579V162.505Z" fill="#DEE2E6"/>
<path d="M136.195 154.914C141.745 156.294 149.975 147.884 149.507 143.478C149.038 139.072 143.32 138.791 140.789 140.572C151.773 134.175 150.702 121.156 140.065 129.452C140.541 114.211 131.253 119.932 132.644 128.936C125.894 123.102 123.952 134.73 129.786 140.326C122.055 136.338 118.713 150.567 136.195 154.914Z" fill="#0AA370"/>
<path d="M142.5 142.476L142.306 142.049C142.291 142.057 140.757 142.858 139.244 143.663C137.71 144.478 136.916 144.902 136.504 145.146V134.618L136.593 134.779L141.552 131.58L141.324 131.174L136.504 134.283V124H136.061V137.649L131.719 132.812L131.4 133.144L136.061 138.337V149.704C135.629 149.307 134.777 148.579 133.093 147.182C131.449 145.818 129.783 144.46 129.766 144.447L129.5 144.826C131.85 146.741 135.62 149.858 136.063 150.34V163H136.507V145.687C137.067 145.335 140.323 143.614 142.5 142.476Z" fill="#114C3A"/>
<path d="M197.5 162H30.5V169H197.5V162Z" fill="#CCE59D"/>
<path d="M197.5 162V163.52C195.66 163.588 193.434 163.551 190.779 163.386C165.172 161.8 155.918 165.015 143.187 165C130.457 164.985 117.695 162.386 101.419 164.098C84.0158 165.93 73.5324 164.488 60.8477 163.183C50.5097 162.12 36.8626 163.386 30.5 164.288V162H197.5Z" fill="#BCD389"/>
</g>
<defs>
<clipPath id="clip0_2639_5003">
<rect width="233" height="168" fill="white" transform="translate(0.5)"/>
</clipPath>
</defs>
</svg>
