<svg width="40" height="40" viewBox="0 0 40 40" fill="none" xmlns="http://www.w3.org/2000/svg">
<rect x="0.5" y="0.5" width="39" height="39" rx="19.5" fill="white"/>
<rect x="0.5" y="0.5" width="39" height="39" rx="19.5" stroke="#E9ECEF"/>
<g clip-path="url(#clip0_1253_12769)">
<rect width="20" height="20" transform="translate(10 10)" fill="white" fill-opacity="0.01"/>
<path d="M10.0024 11.4336C10.0024 10.6423 10.6599 10.0011 11.4712 10.0011H28.5337C29.3449 10.0011 30.0024 10.6423 30.0024 11.4336V28.5686C30.0024 29.3598 29.3449 30.0011 28.5337 30.0011H11.4712C10.6599 30.0011 10.0024 29.3598 10.0024 28.5686V11.4336ZM16.1812 26.7436V17.7123H13.1799V26.7436H16.1812ZM14.6812 16.4786C15.7274 16.4786 16.3787 15.7861 16.3787 14.9186C16.3599 14.0323 15.7287 13.3586 14.7012 13.3586C13.6737 13.3586 13.0024 14.0336 13.0024 14.9186C13.0024 15.7861 13.6537 16.4786 14.6612 16.4786H14.6812ZM20.8162 26.7436V21.6998C20.8162 21.4298 20.8362 21.1598 20.9162 20.9673C21.1324 20.4286 21.6262 19.8698 22.4562 19.8698C23.5424 19.8698 23.9762 20.6973 23.9762 21.9123V26.7436H26.9774V21.5636C26.9774 18.7886 25.4974 17.4986 23.5224 17.4986C21.9299 17.4986 21.2162 18.3736 20.8162 18.9898V19.0211H20.7962C20.8028 19.0107 20.8095 19.0002 20.8162 18.9898V17.7123H17.8162C17.8537 18.5598 17.8162 26.7436 17.8162 26.7436H20.8162Z" fill="#025949"/>
</g>
<defs>
<clipPath id="clip0_1253_12769">
<rect width="20" height="20" fill="white" transform="translate(10 10)"/>
</clipPath>
</defs>
</svg>
