<svg width="16" height="16" viewBox="0 0 16 16" fill="none" xmlns="http://www.w3.org/2000/svg">
<g id="wrapper">
<g id="Union">
<path fill-rule="evenodd" clip-rule="evenodd" d="M13.8564 2.14714C13.9029 2.19358 13.9399 2.24876 13.9651 2.3095C13.9903 2.37025 14.0033 2.43537 14.0033 2.50114C14.0033 2.56691 13.9903 2.63203 13.9651 2.69277C13.9399 2.75352 13.9029 2.80869 13.8564 2.85514L2.85636 13.8551C2.76247 13.949 2.63513 14.0018 2.50236 14.0018C2.36958 14.0018 2.24225 13.949 2.14836 13.8551C2.05447 13.7613 2.00173 13.6339 2.00173 13.5011C2.00173 13.3684 2.05447 13.241 2.14836 13.1471L13.1484 2.14714C13.1948 2.10057 13.25 2.06363 13.3107 2.03843C13.3715 2.01322 13.4366 2.00024 13.5024 2.00024C13.5681 2.00024 13.6332 2.01322 13.694 2.03843C13.7547 2.06363 13.8099 2.10057 13.8564 2.14714Z" fill="#6C757D"/>
<path fill-rule="evenodd" clip-rule="evenodd" d="M2.14836 2.14714C2.1018 2.19358 2.06485 2.24876 2.03965 2.3095C2.01444 2.37025 2.00146 2.43537 2.00146 2.50114C2.00146 2.56691 2.01444 2.63203 2.03965 2.69277C2.06485 2.75352 2.1018 2.80869 2.14836 2.85514L13.1484 13.8551C13.2422 13.949 13.3696 14.0018 13.5024 14.0018C13.6351 14.0018 13.7625 13.949 13.8564 13.8551C13.9502 13.7613 14.003 13.6339 14.003 13.5011C14.003 13.3684 13.9502 13.241 13.8564 13.1471L2.85636 2.14714C2.80991 2.10057 2.75474 2.06363 2.69399 2.03843C2.63325 2.01322 2.56813 2.00024 2.50236 2.00024C2.43659 2.00024 2.37147 2.01322 2.31072 2.03843C2.24998 2.06363 2.1948 2.10057 2.14836 2.14714Z" fill="#6C757D"/>
</g>
</g>
</svg>
