<svg width="14" height="14" viewBox="0 0 14 14" fill="none" xmlns="http://www.w3.org/2000/svg">
<g id="wrapper">
<path id="Union" d="M6.70178 5.46628C6.79803 5.17753 7.20578 5.17753 7.30203 5.46628L7.86641 7.16115C7.99063 7.53373 8.19993 7.87225 8.47772 8.14989C8.75551 8.42752 9.09414 8.63663 9.46678 8.76065L11.1608 9.32503C11.4495 9.42128 11.4495 9.82903 11.1608 9.92528L9.46591 10.4897C9.09333 10.6139 8.75481 10.8232 8.47718 11.101C8.19955 11.3788 7.99043 11.7174 7.86641 12.09L7.30203 13.784C7.28128 13.8473 7.24109 13.9023 7.1872 13.9414C7.1333 13.9804 7.06846 14.0014 7.00191 14.0014C6.93536 14.0014 6.87052 13.9804 6.81662 13.9414C6.76273 13.9023 6.72254 13.8473 6.70178 13.784L6.13741 12.0892C6.01327 11.7167 5.80411 11.3782 5.52648 11.1006C5.24885 10.823 4.91039 10.6138 4.53791 10.4897L2.84303 9.92528C2.77981 9.90453 2.72475 9.86434 2.68571 9.81044C2.64668 9.75655 2.62566 9.6917 2.62566 9.62515C2.62566 9.55861 2.64668 9.49376 2.68571 9.43987C2.72475 9.38597 2.77981 9.34578 2.84303 9.32503L4.53791 8.76065C4.91039 8.63652 5.24885 8.42735 5.52648 8.14972C5.80411 7.8721 6.01327 7.53364 6.13741 7.16115L6.70178 5.46628ZM3.32166 1.00465C3.33421 0.966762 3.35838 0.933788 3.39073 0.910416C3.42309 0.887045 3.46199 0.874466 3.50191 0.874466C3.54183 0.874466 3.58073 0.887045 3.61308 0.910416C3.64544 0.933788 3.66961 0.966762 3.68216 1.00465L4.02078 2.0214C4.17216 2.47465 4.52741 2.8299 4.98066 2.98128L5.99741 3.3199C6.0353 3.33245 6.06828 3.35662 6.09165 3.38898C6.11502 3.42134 6.1276 3.46024 6.1276 3.50015C6.1276 3.54007 6.11502 3.57897 6.09165 3.61133C6.06828 3.64369 6.0353 3.66786 5.99741 3.6804L4.98066 4.01903C4.75712 4.09351 4.554 4.21902 4.38739 4.38563C4.22078 4.55224 4.09526 4.75536 4.02078 4.9789L3.68216 5.99566C3.66961 6.03355 3.64544 6.06652 3.61308 6.08989C3.58073 6.11326 3.54183 6.12584 3.50191 6.12584C3.46199 6.12584 3.42309 6.11326 3.39073 6.08989C3.35838 6.06652 3.33421 6.03355 3.32166 5.99566L2.98303 4.9789C2.90856 4.75536 2.78304 4.55224 2.61643 4.38563C2.44982 4.21902 2.2467 4.09351 2.02316 4.01903L1.00641 3.6804C0.968517 3.66786 0.935543 3.64369 0.912171 3.61133C0.8888 3.57897 0.876221 3.54007 0.876221 3.50015C0.876221 3.46024 0.8888 3.42134 0.912171 3.38898C0.935543 3.35662 0.968517 3.33245 1.00641 3.3199L2.02316 2.98128C2.2467 2.9068 2.44982 2.78129 2.61643 2.61468C2.78304 2.44807 2.90856 2.24495 2.98303 2.0214L3.32166 1.00465ZM9.50703 0.0867796C9.51567 0.0618652 9.53186 0.0402611 9.55334 0.024971C9.57483 0.00968101 9.60054 0.00146484 9.62691 0.00146484C9.65328 0.00146484 9.67899 0.00968101 9.70048 0.024971C9.72196 0.0402611 9.73815 0.0618652 9.74678 0.0867796L9.97253 0.76403C10.0732 1.06678 10.3103 1.3039 10.613 1.40453L11.2903 1.63028C11.3152 1.63892 11.3368 1.6551 11.3521 1.67659C11.3674 1.69807 11.3756 1.72379 11.3756 1.75015C11.3756 1.77652 11.3674 1.80224 11.3521 1.82372C11.3368 1.84521 11.3152 1.86139 11.2903 1.87003L10.613 2.09578C10.4638 2.14541 10.3283 2.22914 10.2171 2.34033C10.1059 2.45151 10.0222 2.58708 9.97253 2.73628L9.74678 3.41353C9.73815 3.43844 9.72196 3.46005 9.70048 3.47534C9.67899 3.49063 9.65328 3.49884 9.62691 3.49884C9.60054 3.49884 9.57483 3.49063 9.55334 3.47534C9.53186 3.46005 9.51567 3.43844 9.50703 3.41353L9.28128 2.73628C9.23165 2.58708 9.14792 2.45151 9.03674 2.34033C8.92555 2.22914 8.78998 2.14541 8.64078 2.09578L7.96441 1.87003C7.9395 1.86139 7.91789 1.84521 7.9026 1.82372C7.88731 1.80224 7.87909 1.77652 7.87909 1.75015C7.87909 1.72379 7.88731 1.69807 7.9026 1.67659C7.91789 1.6551 7.9395 1.63892 7.96441 1.63028L8.64166 1.40453C8.94441 1.3039 9.18153 1.06678 9.28216 0.76403L9.50703 0.0876547V0.0867796Z" fill="#025949"/>
</g>
</svg>
